<?xml version="1.0" encoding="utf-8"?>
<!-- Generator: Adobe Illustrator 24.0.1, SVG Export Plug-In . SVG Version: 6.00 Build 0)  -->
<svg version="1.1" id="レイヤー_1" xmlns="http://www.w3.org/2000/svg" xmlns:xlink="http://www.w3.org/1999/xlink" x="0px"
	 y="0px" viewBox="0 0 389.9 20" style="enable-background:new 0 0 389.9 20;" xml:space="preserve">
<style type="text/css">
	.st0{fill:#FABF00;}
	.st1{fill:url(#SVGID_1_);}
	.st2{fill:#EAE2BD;}
	.st3{fill:#3F4144;}
	.st4{fill:#797C7F;}
</style>
<g id="レイヤー_2_1_">
	<g id="レイヤー_1-2">
		<polygon class="st0" points="227.2,16.1 235.1,11.5 227.2,6.8 229.2,10 198.4,10 198.4,12.8 229.4,12.8 		"/>
		
			<linearGradient id="SVGID_1_" gradientUnits="userSpaceOnUse" x1="5112.5635" y1="-7119.3984" x2="5147.9614" y2="-7119.3984" gradientTransform="matrix(1 -4.014247e-03 -4.014247e-03 -1 -5047.6372 -7087.6348)">
			<stop  offset="0" style="stop-color:#278BC4"/>
			<stop  offset="0.49" style="stop-color:#CDE5F2"/>
			<stop  offset="1" style="stop-color:#278BC4"/>
		</linearGradient>
		<path class="st1" d="M94.1,12c0,0,7.3-8.1,18.5-2.2s16.9,0.2,16.9,0.2s-5.9,8.3-17,2.7S94.1,12,94.1,12z"/>
		<rect x="309.8" y="7" class="st2" width="33" height="9"/>
		<path class="st3" d="M8.5,3.7L9,3.3c0.1-0.1,0.2-0.2,0.3-0.2c0.1,0,0.2,0.1,0.3,0.2l0.7,0.6c0.1,0.1,0.2,0.2,0.2,0.3
			c0,0.2-0.3,0.4-0.6,0.7c-0.1,1.4-0.1,6.7-0.1,8.3c0,2.3,0,2.5,0.4,2.5s0.9,0,1.3,0c1.3,0,1.6,0,2.1-3.5h0.1c0.1,1,0.2,2,0.6,3
			c0.1,0.1,0.2,0.2,0.3,0.3c0.1,0.1,0.1,0.2,0.1,0.3c-0.1,0.4-0.4,0.7-0.8,0.9c-0.4,0.2-0.7,0.2-3,0.2c-1.7,0-2.1-0.2-2.1-1.5
			c0-0.8,0.1-4.2,0.1-4.9c0-1,0-5.3,0-6.2h-4c0,0.6,0.1,3.5,0.1,4.1c0,3.4-0.6,5.3-1.7,6.9c-0.7,1.1-1.8,2-3,2.4v-0.1
			c0.9-0.6,2.1-1.7,2.9-4.4c0.5-1.7,0.7-3.4,0.6-5.1c0-1.6-0.1-3.3-0.3-4.9l1.6,0.8L8.5,3.7z M4.9,8.1c0.9,0.1,2.9,0.9,2.9,2.1
			c0,0.4-0.2,0.7-0.6,0.7c0,0,0,0-0.1,0c-0.4,0-0.5-0.1-1-1.1C5.8,9.1,5.4,8.6,4.9,8.1L4.9,8.1z"/>
		<path class="st3" d="M23,6.8C23.2,7,23.3,7,23.3,7.2s-0.2,0.3-0.4,0.5c-0.1,1.4,0.1,7.4,0.1,8.7c0,0.5-0.3,0.6-0.8,0.6
			c-0.2,0-0.4-0.2-0.4-0.4c0,0,0,0,0-0.1c0-0.1,0-0.2,0-0.2c0.1-1.9,0.1-2.5,0.1-8.5c-0.6,1-1.3,1.9-2.1,2.7l-0.1-0.1
			c1.2-2.1,2.2-4.3,2.8-6.6c0.1-0.3,0.1-0.6,0.1-0.8L24,3.4c0.2,0.1,0.2,0.2,0.2,0.3S24,4,23.6,4.1c-0.3,0.8-0.6,1.7-1,2.5L23,6.8z
			 M28,7.2C28.1,7.1,28.2,7,28.3,7c0.1,0,0.2,0.1,0.3,0.1l0.6,0.5c0.1,0.1,0.2,0.2,0.2,0.3c0,0.2-0.2,0.4-0.6,0.5
			c-0.4,2-1.6,5.9-5.7,7.5v-0.1c1.6-1.1,2.8-2.5,3.6-4.3c-0.1,0.1-0.2,0.1-0.3,0.1c-0.3,0-0.4-0.1-0.8-0.9c-0.2-0.4-0.5-0.8-0.9-1.2
			c-0.4,0.6-0.9,1.1-1.4,1.6l-0.1-0.1c1.1-1.9,2-4,2.5-6.2c-0.6,0-1.3,0-1.9,0.1l-0.3-0.6c1,0.1,2,0.1,2.5,0.1h1.4L28,4
			c0.1-0.1,0.2-0.2,0.3-0.2c0.1,0,0.2,0.1,0.3,0.2l0.8,0.6c0.1,0.1,0.1,0.1,0.2,0.2c0,0.2-0.1,0.2-0.2,0.2H27
			c-0.2,0.9-0.6,1.9-1,2.7h1.6L28,7.2z M25.8,8c-0.1,0.2-0.4,0.7-0.9,1.5c0.9,0.2,2.1,0.6,2.1,1.5c0.4-1,0.7-2,0.8-3H25.8z
			 M33.7,3.3C33.9,3.4,34,3.5,34,3.6S33.8,4,33.5,4c-0.1,1.4-0.1,2.7-0.1,3.2c0,0.3,0,6.4,0,7.6c0,1.5-1,1.9-2.1,2.1
			c-0.2-0.7-0.4-1-1.7-1.6v-0.1c0.3,0,1.5,0.1,1.8,0.1c0.9,0,0.9-0.1,0.9-0.8s0-4.2,0-4.9c0.1-2.2,0-4.4-0.3-6.6L33.7,3.3z
			 M31.2,4.8c0.2,0.1,0.4,0.1,0.4,0.3s-0.3,0.4-0.5,0.5c0,0.7,0,1.2,0,1.7c0,0.9,0.1,5.1,0.1,5.9c0,0.4-0.3,0.7-0.7,0.7c0,0,0,0,0,0
			c-0.4,0-0.4-0.2-0.4-0.4s0.1-4.1,0.1-4.8c0-1.4-0.1-2.8-0.2-4.3L31.2,4.8z"/>
		<path class="st3" d="M251.4,10.2c0,1,0.1,4.6,0.1,5.3c0,1.1-0.3,1.5-1.7,1.7c-0.2-0.7-0.7-1.3-1.4-1.6v-0.1c0.3,0,0.9,0.1,1.3,0.1
			c0.7,0,0.7-0.1,0.7-0.7s-0.1-3.5-0.1-4.1c-0.5,0.3-0.9,0.5-1.2,0.7c-0.1,0.4-0.2,0.6-0.4,0.6c-0.1,0-0.2-0.1-0.2-0.2l-0.9-1.4
			c0.6,0,0.8,0,2.7-0.7c0-0.6,0-0.8-0.1-3.3c-0.7,0-1.3,0-2,0.1L248,6c1,0.1,1.3,0.1,2.3,0.1c0-0.1,0-0.7,0-1c0.1-0.8,0-1.6-0.3-2.4
			l1.8,0.5c0.1,0,0.2,0.1,0.2,0.2c0,0.1-0.1,0.2-0.1,0.3l-0.4,0.3c0,0.4,0,1.9,0,2.2h0.5l0.4-0.5c0.1-0.1,0.2-0.2,0.3-0.2
			s0.2,0.1,0.3,0.2l0.7,0.5c0.1,0.1,0.1,0.1,0.2,0.2c0,0.2-0.1,0.2-0.2,0.2h-2c0,0.5,0,2.5,0.1,2.9c0.8-0.3,1.5-0.6,2.3-0.9v0.1
			C253,9.2,252.2,9.7,251.4,10.2z M261.6,15.5c-1.9-1.2-3.2-3.1-3.7-5.3h-0.2c0,0.7,0,1.9,0.1,2.6s0.1,3.2,0.1,3.7
			c0,0.2-0.1,0.4-0.2,0.5c-0.2,0.1-0.4,0.2-0.6,0.2c-0.3,0-0.4-0.2-0.4-0.5s0.1-1.1,0.1-1.3c0-1.8,0-3.6,0-4.1
			c-1.2,1.8-2.8,3.3-4.7,4.3l-0.1-0.1c1.8-1.5,3.2-3.3,4.3-5.3h-0.9c-0.6,0-1.3,0-1.9,0.1l-0.3-0.6c1.1,0.1,2.2,0.1,2.5,0.1h1.1
			c0.1-0.8-0.1-1.5-0.3-2.3l1.7,0.4c0.1,0,0.2,0.1,0.2,0.2c0,0.1,0,0.2-0.5,0.5c0,0.2,0,0.9,0,1.1h2.6L261,9
			c0.1-0.1,0.1-0.2,0.2-0.2c0.1,0,0.2,0.1,0.3,0.2l0.9,0.8c0.1,0.1,0.2,0.1,0.2,0.2s-0.1,0.2-0.2,0.2h-4.2c0.9,2.1,2.7,3.6,4.9,4.1
			v0.1C262.5,14.5,262,14.9,261.6,15.5z M260.3,3.7c-2,0.5-4,0.8-6,0.8c-0.6,0-1,0-1.4-0.1V4.3c2.3-0.2,4.5-0.7,6.6-1.6
			c0.2-0.1,0.3-0.2,0.4-0.4l1.1,0.9c0.1,0.1,0.3,0.2,0.3,0.3S260.5,3.7,260.3,3.7z M255.1,7.5c-0.5,0-0.6-0.4-0.8-1
			c-0.1-0.6-0.4-1.1-0.8-1.5V4.8c0.8,0.3,2.2,1.1,2.2,2C255.7,7.2,255.5,7.4,255.1,7.5C255.1,7.5,255.1,7.5,255.1,7.5z M257.9,7.2
			c-0.4,0-0.6-0.2-0.7-0.9c-0.1-0.6-0.4-1.1-0.7-1.6V4.6c0.9,0.4,2,1,2,1.9C258.4,6.8,258.2,7.1,257.9,7.2z M261.6,5.5
			c-0.8,1-1.6,1.9-2.6,2.6L258.9,8c0.3-0.4,1.8-2.7,1.8-3.9l1.4,0.8c0.1,0,0.2,0.2,0.2,0.3C262.2,5.3,261.8,5.4,261.6,5.5L261.6,5.5
			z"/>
		<path class="st3" d="M279.1,16.8c-3.2,0-3.2,0-3.2-2.3c0-0.9,0-4.7,0-5.5H273l1.2,0.6c0.1,0,0.2,0.1,0.2,0.2s-0.1,0.2-0.5,0.4
			c-0.4,3.2-1,6.1-6,7V17c3.7-1.5,4.7-3.6,4.7-7.1c0-0.3,0-0.7-0.1-1h-2.5c-0.6,0-1.3,0-1.9,0.1L268,8.4c1.1,0.1,2.2,0.1,2.5,0.1
			h4.2c0-3,0-3.4-0.1-4.4c0-0.5-0.1-1-0.3-1.5L276,3c0.2,0,0.3,0.1,0.3,0.2s-0.3,0.4-0.6,0.5v4.7h4.4l0.7-0.9
			c0.1-0.1,0.2-0.2,0.3-0.2s0.2,0.1,0.3,0.2l1,0.9c0.1,0.1,0.2,0.2,0.2,0.3s-0.1,0.2-0.2,0.2h-5.2c0,0.9-0.1,4.8-0.1,5.3
			c0,1.1,0,1.3,0.3,1.4c0.6,0.1,1.2,0.1,1.8,0.1c1.1,0,1.6,0,1.9-0.8c0.3-0.9,0.5-1.8,0.7-2.7h0.1c0.3,2.5,0.3,2.8,0.6,3.1
			s0.3,0.2,0.3,0.4C282.6,16.8,280.7,16.8,279.1,16.8z M272.2,7.4c-0.5,0-0.6-0.3-1-1.2c-0.2-0.8-0.7-1.5-1.2-2.1V4
			c1.5,0.6,2.9,1.7,2.9,2.6C272.9,7,272.6,7.3,272.2,7.4L272.2,7.4z M279.7,5c-0.9,1.1-2,2-3.1,2.8l-0.1-0.1
			c0.9-1.3,1.6-2.7,2.1-4.2l1.4,0.9c0.2,0.1,0.3,0.2,0.3,0.3S280.2,5,279.7,5z"/>
		<path class="st3" d="M361.3,3.8c0,1.7,0,10.3,0,11.1c0,0.2,0.1,1.2,0.1,1.4c0.1,0.4-0.2,0.8-0.6,0.8c-0.1,0-0.1,0-0.2,0
			c-0.3,0-0.5-0.1-0.5-0.4c0,0,0-0.1,0-0.1c0-0.4,0.1-2.1,0.1-2.4c0-0.8,0-1.3,0-2.5c-0.2,0.2-0.9,0.6-1.2,0.9
			c-1.2,0.8-1.3,0.9-1.5,1c-0.1,0.4-0.1,0.6-0.3,0.6s-0.2-0.1-0.3-0.2l-1-1.5c0.6,0,1.1-0.1,1.6-0.2c-0.1-4.7-0.1-6.7-0.2-7.4
			c0-0.3-0.1-0.6-0.2-0.9l1.6,0.6c0.1,0,0.3,0.1,0.3,0.3s-0.1,0.3-0.5,0.5c0,0.3,0,0.6,0,0.9c0,0.9,0,5,0,5.8l1.7-0.6
			c0-2.8,0-5.8-0.1-7.6c0-0.4-0.1-0.9-0.3-1.3l1.6,0.5c0.2,0.1,0.3,0.2,0.3,0.3S361.7,3.6,361.3,3.8z M369.8,16.7
			c-1.5-0.8-2.8-1.9-3.6-3.4c-1.2,1.6-2.7,2.8-4.5,3.5l-0.1-0.1c1.7-1.1,3.1-2.6,4.1-4.3c-1.1-2.5-1.6-5.1-1.6-7.8
			c-0.5,0-1.1,0-1.6,0.1l-0.3-0.6c0.8,0.1,1.6,0.1,2.5,0.1h3.1l0.6-0.5c0.1-0.1,0.3-0.2,0.5-0.1c0,0,0.1,0,0.1,0.1l0.8,0.7
			c0.1,0.1,0.2,0.2,0.2,0.3c0,0.1-0.3,0.3-0.7,0.5l-0.9,3.7c-0.3,1.2-0.8,2.4-1.4,3.5c1.1,1.5,2.7,2.5,4.4,3v0.1
			C370.6,15.6,370.1,16.1,369.8,16.7z M364.3,4.6c0.2,2.4,0.8,4.7,1.9,6.8c1-2.2,1.5-4.5,1.7-6.8L364.3,4.6z"/>
		<path class="st3" d="M377.9,12.1c-0.4,1.4-1.1,2.8-2.1,3.9h-0.1c0.6-1.5,0.9-3,1-4.6c0-0.2,0-0.3,0-0.5l1.4,0.5
			c0.1,0,0.3,0.1,0.3,0.2S378.4,11.8,377.9,12.1z M381.3,10.8c-0.4,0-0.5-0.3-0.5-0.5s-0.2-0.7-0.3-1l-0.9,0.2c0,0.5,0,2.9,0,3.4
			c0,0.3,0.1,3.5,0.1,3.6c0,0.5-0.5,0.6-0.7,0.6c-0.5,0-0.5-0.3-0.5-0.5s0.1-3.3,0.1-3.6c0-0.5,0-2.8,0-3.3
			c-1.1,0.2-1.4,0.3-1.8,0.4c-0.2,0.3-0.2,0.3-0.3,0.3c-0.1,0-0.2-0.1-0.3-0.2l-0.4-1.4c0.7,0.2,1.4,0.3,2.1,0.3
			c0.9-1.1,2.4-3.3,2.5-4.3l1.2,0.7c0.1,0,0.1,0.1,0.1,0.2c0,0.2-0.2,0.3-0.5,0.4c-1,1.1-2,2.1-3.1,3c0.3,0,1.5,0,2.1,0
			c-0.1-0.3-0.3-0.6-0.5-0.9l0.1-0.1c0.7,0.4,1.9,1.1,1.9,2.1C381.8,10.6,381.6,10.8,381.3,10.8z M380.3,3.8c-0.1,0-0.4,0.2-0.5,0.2
			c-0.5,0.7-1.1,1.3-1.7,1.9c0.7,0.5,0.7,1,0.7,1c0,0.3-0.2,0.6-0.6,0.6c-0.3,0-0.4-0.1-0.7-0.7c-0.3-0.6-0.7-1.1-1.1-1.5V5.2
			c0.5,0.1,1,0.3,1.5,0.5c0.3-0.8,0.6-1.6,0.8-2.4c0.1-0.3,0.1-0.5,0.1-0.8l1.5,0.7c0.1,0,0.1,0.1,0.1,0.2
			C380.4,3.6,380.3,3.7,380.3,3.8L380.3,3.8z M381.1,13.9c-0.4,0-0.5-0.3-0.6-0.9c-0.1-0.7-0.2-1.4-0.5-2h0c0.2,0.1,1.7,1.2,1.7,2.2
			C381.8,13.6,381.5,13.9,381.1,13.9C381.1,13.9,381.1,13.9,381.1,13.9L381.1,13.9z M389.8,6.5l-0.4,0.4c0,0.4,0,0.5,0,1
			c0,1.1,0.1,6.1,0.1,7.1c0,0.6,0,1.7-1.8,2.1c-0.2-0.5-0.3-0.9-1.4-1.6v-0.1c0.1,0,1,0,1.4,0s0.6,0,0.6-0.6V6.3h-2
			c-0.1,1.3-0.3,2.1-0.3,2.4c1,0.5,2.1,1.7,2.1,2.7c0,0.4-0.2,0.7-0.6,0.8c0,0,0,0-0.1,0c-0.5,0-0.5-0.4-0.6-0.9
			c-0.1-0.8-0.4-1.6-0.9-2.3c-0.4,1.6-1.3,2.9-2.6,3.9c0,1,0,2.7,0,3.6c0,0.6-0.7,0.6-0.8,0.6c-0.4,0-0.4-0.2-0.4-0.5
			c0-1.9,0.1-5.8,0.1-6.4c0-1.6,0-3.3-0.2-4.9l1.4,0.7h1.8c0-1.1,0-2.2-0.2-3.2l1.6,0.5c0.1,0,0.2,0.1,0.2,0.2s0,0.2-0.4,0.5
			c0,0.5,0,1.1-0.1,2h1.8l0.4-0.4c0.1-0.1,0.2-0.2,0.2-0.2c0.1,0,0.2,0,0.2,0.1l0.7,0.6C389.8,6.1,389.9,6.3,389.8,6.5
			C389.8,6.5,389.8,6.5,389.8,6.5L389.8,6.5z M383.3,6.3c0,2.1,0,4.2,0,6.3c1.3-1.8,2-4,1.9-6.3L383.3,6.3z"/>
		<path class="st3" d="M157.6,16.8c-0.5,0-2.9,0-3.4,0c-1.5,0-2.9-0.1-4.4-0.5c-1.9-0.6-2.3-1.4-2.5-1.9c-0.2,0.3-1.5,1.6-1.7,1.9
			c-0.1,0.2-0.1,0.4-0.1,0.5c0,0.1-0.1,0.1-0.2,0.1c-0.1,0-0.2-0.1-0.2-0.1l-1.2-1.4c0.9-0.1,1.8-0.3,2.6-0.8V10
			c-0.7,0-1.4,0-2.1,0.1l-0.3-0.6c0.7,0.1,1.2,0.1,2.1,0.1l0.6-0.4c0.1-0.1,0.1-0.1,0.2-0.1c0.1,0,0.2,0,0.2,0.1l0.6,0.6
			c0.1,0.1,0.1,0.1,0.1,0.2c0,0.1,0,0.1-0.1,0.2l-0.3,0.3c0,0.3,0,2,0,2.3c0,2,0,3,4.5,3c1.7,0,3.5-0.1,5.2-0.4l1.3-0.3v0.1
			C158.2,15.5,157.8,16.1,157.6,16.8z M147.5,5.8c-0.5,0-0.6-0.4-0.7-0.8c-0.2-0.8-0.7-1.5-1.4-2.1V2.9c2,0.4,2.7,1.6,2.7,2.2
			C148.1,5.5,147.9,5.8,147.5,5.8C147.5,5.8,147.5,5.8,147.5,5.8z M157.9,7.3l-0.5,0.4c0,0.8,0,4.5,0,5.4c0,0.5,0,1.5-1.5,1.8
			c-0.2-0.7-0.6-1.2-1.3-1.5v-0.1h1.1c0.5,0,0.6-0.1,0.6-0.6v-1h-2.5c0,0.2,0,1.7,0,2c0,0.1,0.1,0.6,0.1,0.6c0,0.3-0.3,0.6-0.7,0.6
			s-0.4-0.2-0.4-0.4s0-0.5,0-0.6c0-0.3,0-1.9,0-2.2h-2.4c0,0.3,0,1.9,0,2.2c0,0.4-0.3,0.8-0.7,0.8c0,0,0,0-0.1,0
			c-0.4,0-0.4-0.3-0.4-0.4s0-0.3,0-0.3c0-0.7,0.1-2.8,0.1-3.4c0.1-1.5,0-2.9-0.2-4.4l1.5,0.7h2.7c-0.1-0.1-0.1-0.1-0.3-0.4
			c-0.4-0.6-0.9-1.2-1.5-1.6V4.7c0.7,0.1,1.4,0.3,2,0.7c0.5-0.5,0.9-1,1.3-1.5h-3.6c-0.6,0-1.3,0-1.9,0.1L149,3.4
			c0.8,0.1,1.6,0.1,2.5,0.1h3.5l0.6-0.4c0.1,0,0.1-0.1,0.2-0.1c0.1,0,0.2,0.1,0.3,0.1l1,0.8c0.1,0.1,0.1,0.1,0.1,0.2
			c0,0.1-0.1,0.2-0.1,0.2c-0.3,0.1-0.6,0.1-0.9,0.2c-0.4,0.1-1.9,0.9-2.2,1c0.3,0.2,0.4,0.5,0.4,0.8c0,0.2-0.1,0.4-0.3,0.5h2.2
			l0.4-0.4c0.1-0.1,0.1-0.1,0.2-0.1c0.1,0,0.1,0,0.2,0.1l0.8,0.6c0.1,0,0.1,0.1,0.1,0.2C158,7.2,157.9,7.2,157.9,7.3z M152.9,7.3
			h-2.5c0,0.4,0,1.3,0,1.8h2.5L152.9,7.3z M152.9,9.5h-2.5v1.9h2.5L152.9,9.5z M156.4,7.3h-2.5v1.8h2.5V7.3z M156.4,9.5h-2.5v1.9
			h2.5V9.5z"/>
		<path class="st3" d="M178.5,14.4c0,0.2-0.1,0.8-0.1,1.2c0,0.3,0.1,0.5,0.2,0.8c0,0.1,0,0.2,0,0.2c0,0.3-0.2,0.5-0.4,0.5
			c0,0,0,0-0.1,0c-0.6-0.1-1.2-0.5-1.5-1.1c-1.6-2.4-1.7-5.8-1.7-9.3c0-1.2,0-1.9,0.1-2.8h-8c0,0.7,0,1.3,0,2.2c0,4.3,0,8.1-3.4,11
			l-0.1-0.1c2.3-3.4,2.4-7.4,2.4-9.7c0-1.6-0.1-3.2-0.3-4.7l1.7,0.8h7.6l0.5-0.4c0.1-0.1,0.2-0.1,0.3-0.1c0.1,0,0.2,0.1,0.3,0.1
			l0.7,0.6c0.1,0.1,0.1,0.1,0.1,0.3c0,0.1-0.1,0.2-0.1,0.2c-0.2,0.1-0.3,0.2-0.5,0.3c-0.1,0.8-0.1,2-0.1,3.6
			c-0.1,2.1,0.2,4.2,0.9,6.1c0.2,0.4,0.4,0.7,0.6,0.7s1-1.5,1.2-1.9h0.1C178.7,13.2,178.5,14.2,178.5,14.4z M174.1,15.8
			c-0.3,0-0.5-0.2-0.6-0.4c-0.2-0.4-0.3-0.9-0.5-1.3c-0.7,0.3-1.5,0.6-2.2,0.8c-2.2,0.6-2.4,0.7-2.6,0.8c-0.2,0.3-0.2,0.4-0.4,0.4
			s-0.2-0.1-0.3-0.3l-0.7-1.4c0.3,0.1,0.6,0.1,0.9,0.1c0.9,0,1.7-0.1,2.6-0.3v-2.7h-1.4c0,0.1,0,0.4,0,0.5s0,0.3-0.1,0.4
			c-0.2,0.1-0.4,0.2-0.6,0.2c-0.4,0-0.4-0.2-0.4-0.4c0-0.1,0.1-3,0.1-3.6c0-0.1,0-1.1-0.1-1.6l1.1,0.7h1.3V6.2
			c-0.8,0.2-1.6,0.3-2.5,0.3c-0.4,0-0.6,0-0.8,0V6.4c1.9-0.3,3.8-1,5.5-1.9l1.1,0.7c0.1,0.1,0.2,0.2,0.2,0.2s-0.1,0.2-0.5,0.2
			c-0.7,0.1-1.3,0.3-1.9,0.4v1.7h1.4l0.4-0.4c0.1-0.1,0.1-0.2,0.2-0.2c0.1,0,0.2,0.1,0.3,0.2l0.6,0.5c0.1,0.1,0.1,0.2,0.2,0.3
			c0,0.1-0.1,0.2-0.5,0.4c0,0.5,0.1,2.8,0.1,3.4c0,0.3-0.4,0.6-0.8,0.6s-0.3-0.1-0.3-0.4c0-0.1,0-0.5,0-0.6h-1.5v2.6l1.5-0.3
			c-0.3-0.5-0.6-0.9-1-1.2v-0.1c2.4,0.9,2.9,2,2.9,2.6C174.7,15.5,174.4,15.8,174.1,15.8C174.1,15.8,174.1,15.8,174.1,15.8z
			 M170.3,8.1h-1.4v3h1.4V8.1z M172.8,8.1h-1.5v3h1.5V8.1z"/>
		<rect x="63.8" class="st4" width="1" height="20"/>
	</g>
</g>
</svg>
