<?xml version="1.0" encoding="utf-8"?>
<!-- Generator: Adobe Illustrator 24.0.1, SVG Export Plug-In . SVG Version: 6.00 Build 0)  -->
<svg version="1.1" id="レイヤー_1" xmlns="http://www.w3.org/2000/svg" xmlns:xlink="http://www.w3.org/1999/xlink" x="0px"
	 y="0px" viewBox="0 0 373 51" style="enable-background:new 0 0 373 51;" xml:space="preserve">
<style type="text/css">
	.st0{fill:#3E4043;}
	.st1{fill:#231815;}
	.st2{fill:#E50012;}
	.st3{fill:#EF8200;}
	.st4{fill:#F7B400;}
</style>
<title>アセット 22</title>
<g>
	<path class="st0" d="M1.2,43.1C1.2,43.1,1.2,43.1,1.2,43.1l1.4,0.7C2.5,43.9,2.4,44,2,43.9c-0.5,0.9-1.4,1.9-2.5,2.6l-0.1-0.2
		c0.7-0.8,1.4-2.2,1.6-3.1c-0.2,0.1-0.4,0.2-0.7,0.2H0.1v-9.8l1.2,0.5h1.9l0.6-0.7l1.2,1c-0.1,0.1-0.3,0.2-0.6,0.2v8.2
		c0,0.1-0.4,0.3-0.9,0.3H3.3v-0.8H1.2V43.1z M1.2,34.6v2.1h2.2v-2.1H1.2z M3.3,39.4v-2.2H1.2v2.2H3.3z M3.3,42v-2.3H1.2V42H3.3z
		 M2.7,43.1c2.8,1,1.7,3,0.7,2.2c-0.1-0.7-0.5-1.5-0.9-2.1L2.7,43.1z M12.5,38.1c-0.1,0.1-0.3,0.2-0.6,0.2c-0.4,1.8-1,3.5-2.1,5
		c0.8,1,1.9,1.7,3.1,2.2l0,0.1c-0.5,0-0.9,0.3-1.1,0.9C10.7,45.8,9.9,45,9.2,44c-0.9,1-2,1.8-3.6,2.5l-0.1-0.2
		c1.4-0.8,2.5-1.8,3.3-3c-0.7-1.4-1.2-3.1-1.5-5.2H6.8v0.5c0,2.6-0.2,5.9-2.8,8l-0.2-0.1c1.7-2.2,1.9-5.1,1.9-7.9v-4.7L7,34.4h3.7
		l0.7-0.9c0,0,0.8,0.6,1.3,1.1c0,0.1-0.2,0.2-0.4,0.2H6.8v2.9h3.8l0.7-0.7L12.5,38.1z M7.6,38.1c0.3,1.8,0.9,3.2,1.7,4.4
		c0.7-1.3,1.2-2.8,1.5-4.4H7.6z"/>
	<path class="st0" d="M14.6,46.4c3.9-1.2,4.5-3.3,4.4-5.9l1.8,0.2c0,0.2-0.2,0.4-0.5,0.4c-0.1,2.6-1,4.6-5.6,5.6L14.6,46.4z
		 M16.9,39.5c0.1,1.1-0.4,1.8-0.8,2.1c-0.4,0.3-1,0.2-1.2-0.1c-0.1-0.4,0.1-0.7,0.4-0.9c0.6-0.3,1.2-1.2,1.1-2.2l0.2,0
		c0.1,0.3,0.1,0.5,0.2,0.7H26l0.7-0.7l1.3,1.2c-0.1,0.1-0.3,0.1-0.5,0.2c-0.5,0.6-1.5,1.4-2.2,1.8L25,41.5c0.3-0.5,0.7-1.3,1-2H16.9
		z M15.1,35h5.6v-1.7l1.7,0.2c0,0.2-0.2,0.4-0.5,0.4V35h3.8l0.8-1c0,0,0.9,0.7,1.4,1.2c0,0.2-0.2,0.2-0.4,0.2h-5.5v1.8h2.9l0.8-1
		c0,0,0.9,0.7,1.4,1.2c0,0.1-0.2,0.2-0.4,0.2H16.4l-0.1-0.4h4.4v-1.8h-5.5L15.1,35z M27.7,45c0.3,0.1,0.4,0.3,0.4,0.5
		c0,0.5-0.5,0.7-2.8,0.7h-1.5c-1.2,0-1.5-0.2-1.5-1.1v-4.7l1.6,0.2c0,0.2-0.2,0.3-0.4,0.4v4c0,0.2,0.1,0.3,0.6,0.3h1.4
		c0.6,0,1.1,0,1.3,0c0.2,0,0.2-0.1,0.3-0.2c0.1-0.2,0.3-1,0.5-1.8h0.2L27.7,45z"/>
	<path class="st0" d="M35.2,39.1c-0.6,0.3-1.3,0.7-2.1,1.2V45c0,0.9-0.2,1.4-1.5,1.5c0-0.3-0.1-0.6-0.3-0.8
		c-0.2-0.2-0.5-0.3-1.1-0.4v-0.2c0,0,1.2,0.1,1.5,0.1c0.2,0,0.3-0.1,0.3-0.3v-4.1c-0.4,0.2-0.9,0.5-1.4,0.7c0,0.2-0.2,0.3-0.3,0.4
		l-0.5-1.4c0.4-0.1,1.2-0.3,2.2-0.6V37h-1.9L30,36.6h2v-3.3l1.6,0.2c0,0.2-0.2,0.4-0.5,0.4v2.8h0.4l0.6-0.9c0,0,0.7,0.6,1.2,1.1
		c0,0.2-0.2,0.2-0.4,0.2h-1.8v2.5c0.6-0.2,1.4-0.4,2-0.6L35.2,39.1z M39.4,45.1c0.3,0,0.7,0,1.1,0c0.7,0,2.2,0,3,0v0.2
		c-0.4,0.1-0.5,0.4-0.5,0.9h-2.5c-2,0-3.2-0.5-4-2.7c-0.6,1.4-1.5,2.4-2.7,3l-0.2-0.2c1.3-1.2,2.1-3,2.3-5.4l1.6,0.3
		c0,0.2-0.2,0.3-0.5,0.3c-0.1,0.5-0.2,1.1-0.4,1.5c0.4,1,1,1.5,1.7,1.8v-4.7h-3.4l-0.1-0.4h6.4l0.7-0.9c0,0,0.8,0.6,1.3,1.1
		c0,0.2-0.2,0.2-0.4,0.2h-3.4v2.1h1.4l0.7-0.9c0,0,0.8,0.6,1.3,1.1c0,0.2-0.2,0.2-0.4,0.2h-3V45.1z M36.9,38.8c0,0.1-0.5,0.4-1,0.4
		h-0.1v-5.5l1.2,0.5h3.8l0.6-0.7l1.3,1c-0.1,0.1-0.3,0.2-0.6,0.3v3.9c0,0.1-0.6,0.3-0.9,0.3h-0.2v-0.7h-4V38.8z M36.9,34.6V36h4
		v-1.4H36.9z M40.9,37.9v-1.4h-4v1.4H40.9z"/>
	<path class="st0" d="M50.2,39.4c-0.5,0.3-1.2,0.7-1.9,1.1V45c0,0.9-0.2,1.4-1.6,1.5c0-0.4-0.1-0.6-0.3-0.8
		c-0.2-0.2-0.5-0.3-1.1-0.4v-0.2c0,0,1.2,0.1,1.5,0.1c0.2,0,0.3-0.1,0.3-0.3v-3.8c-0.4,0.2-0.8,0.4-1.2,0.6
		c-0.1,0.2-0.2,0.3-0.3,0.4l-0.6-1.4c0.4-0.1,1.2-0.3,2.1-0.6V37h-1.8l-0.1-0.4h1.9v-3.3l1.6,0.2c0,0.2-0.2,0.4-0.5,0.4v2.8h0.2
		l0.6-0.9c0,0,0.5,0.5,0.9,0.9c0.7-1.1,1.2-2.3,1.4-3.3l1.6,0.6c-0.1,0.1-0.2,0.2-0.5,0.2c-0.2,0.3-0.4,0.7-0.6,1.1l0.1,0h1.7
		c0.2-0.6,0.4-1.3,0.5-1.8l1.6,0.3c0,0.2-0.2,0.3-0.5,0.3c-0.3,0.4-0.7,0.8-1.1,1.2h2.2l0.6-0.9c0,0,0.8,0.6,1.2,1.1
		c0,0.2-0.2,0.2-0.4,0.2h-3v1.1h1.2l0.6-0.8c0,0,0.7,0.5,1.1,1c0,0.2-0.2,0.2-0.4,0.2h-2.6v1.1h1.2l0.6-0.8c0,0,0.7,0.6,1.1,1
		c0,0.2-0.2,0.2-0.4,0.2h-2.6v1.2h1.6l0.7-0.9c0,0,0.8,0.6,1.3,1.1c0,0.2-0.2,0.2-0.4,0.2h-6.2v0.5c0,0.1-0.4,0.4-0.9,0.4h-0.2v-4.5
		c-0.4,0.4-0.9,0.8-1.4,1.2l-0.1-0.2c0.2-0.2,0.4-0.4,0.5-0.6h-1.5v2.8c0.6-0.2,1.3-0.4,1.9-0.6L50.2,39.4z M58.7,43.1
		c-0.1,0.1-0.3,0.2-0.5,0.2c-0.1,1.5-0.5,2.5-1,2.9c-0.3,0.2-0.9,0.4-1.5,0.4c0-0.3-0.1-0.6-0.3-0.7c-0.2-0.2-0.9-0.3-1.5-0.4v-0.2
		c0.7,0.1,1.8,0.2,2.1,0.2c0.3,0,0.4,0,0.5-0.1c0.2-0.2,0.4-1,0.6-2h-1.5l-0.1,0.6c-0.3,0.1-0.6,0.2-1.1,0c0.2-0.6,0.3-1.4,0.5-2H53
		c-0.2,1.7-0.8,3.5-4,4.8l-0.2-0.2c2.5-1.4,2.9-3,3-4.5h-1.9l-0.1-0.4h5l0.5-0.6l1.2,1c-0.1,0.1-0.3,0.2-0.6,0.2l-0.2,0.8H57
		l0.6-0.6L58.7,43.1z M51.9,35.6v1.1h1.9v-1.1H51.9z M53.8,37.2h-1.9v1.1h1.9V37.2z M53.8,38.7h-1.9v1.2h1.9V38.7z"/>
	<path class="st0" d="M63.5,34.9c0,1.4,0,2.8,0,4.2v3.8c0,1.4,0,2.8,0,4.2l1.8,0.2v0.6h-3c0-1.6,0-3.3,0-5v-3.8c0-1.7,0-3.3,0-5h3
		v0.6L63.5,34.9z"/>
	<path class="st0" d="M72.9,33.8c-0.1,0.2-0.2,0.3-0.6,0.3c-0.4,1.1-0.9,2.1-1.4,3l0.7,0.3c-0.1,0.1-0.2,0.2-0.5,0.2v8.6
		c0,0.1-0.5,0.4-0.9,0.4H70v-8.1c-0.6,0.9-1.3,1.7-2,2.3l-0.2-0.1c1.3-1.8,2.6-4.6,3.3-7.4L72.9,33.8z M80.9,45.2
		c0.5,0.6,0.5,0.9,0.4,1.1c-0.4,0.5-1.4,0.1-2.1-0.4c-2.3-1.6-3.4-4.3-3.9-7.5L72,38.8l-0.2-0.4l3.4-0.4c-0.2-1.4-0.3-2.9-0.3-4.5
		l1.8,0.2c0,0.2-0.2,0.3-0.5,0.4c0,1.3,0,2.6,0.2,3.8l2.7-0.3l0.7-1c0,0,1,0.6,1.5,1c0,0.1-0.2,0.2-0.3,0.3l-4.5,0.5
		c0.4,2.7,1.4,5.1,3.3,6.4c0.3,0.2,0.4,0.2,0.5-0.1c0.2-0.4,0.5-1.1,0.8-1.7l0.1,0L80.9,45.2z M77.4,33.8c3.3,0.5,2.6,2.7,1.4,2
		c-0.3-0.6-1-1.4-1.5-1.9L77.4,33.8z"/>
	<path class="st0" d="M87.1,33.8c0,0,0.8,0.7,1.3,1.1c0,0.2-0.2,0.2-0.4,0.2h-1.9v3.5h0.3l0.6-0.9c0,0,0.7,0.6,1.1,1.1
		c0,0.1-0.2,0.2-0.4,0.2h-1.6v3.7c0.7-0.2,1.4-0.5,2.1-0.7l0.1,0.2c-1,0.6-2.5,1.5-4.4,2.5c0,0.2-0.2,0.3-0.3,0.4L83,43.8
		c0.4-0.1,1.1-0.3,1.9-0.6v-4.1h-1.6l-0.1-0.4H85v-3.5h-1.6l-0.1-0.4h3.1L87.1,33.8z M95.5,44.6c0,0,0.9,0.7,1.4,1.2
		c0,0.2-0.2,0.2-0.4,0.2H87l-0.1-0.4h4.5v-2.5h-3l-0.1-0.4h3.1v-2.2h-1.9V41c0,0.1-0.5,0.4-0.9,0.4h-0.2v-7.6l1.2,0.5h4.9l0.6-0.7
		l1.3,1c-0.1,0.1-0.3,0.2-0.6,0.3v5.7c0,0.1-0.6,0.4-1,0.4h-0.2v-0.6h-2.1v2.2h1.6l0.7-1c0,0,0.8,0.7,1.3,1.1c0,0.2-0.2,0.2-0.4,0.2
		h-3.3v2.5h2.2L95.5,44.6z M89.5,34.7v2.4h1.9v-2.4H89.5z M91.5,40v-2.5h-1.9V40H91.5z M92.6,34.7v2.4h2.1v-2.4H92.6z M94.7,40v-2.5
		h-2.1V40H94.7z"/>
	<path class="st0" d="M102.1,42.9c0,1.7,0,3.3,0,5h-3v-0.6l1.8-0.2c0-1.4,0-2.8,0-4.2v-3.8c0-1.4,0-2.8,0-4.2l-1.8-0.2v-0.6h3
		c0,1.6,0,3.3,0,5V42.9z"/>
</g>
<g>
	<path class="st1" d="M215.9,30.9c-1.7,4.6-5.2,7.3-9.9,8.7v-3c5.2-2.1,8-5.6,8-12.9V22h3v2c0,1.4-0.1,2.7-0.3,3.9
		c4.8-1.1,7.6-4.1,8.3-8.7h-20v-2.9h23.5v0.5C228.1,25.7,222.5,29.7,215.9,30.9z"/>
	<path class="st1" d="M252.7,39.5v-2.9c9.1-0.7,14.4-4.3,16.2-10.8h-18.4V23h22.2v0.4C271.7,32.8,265.4,39,252.7,39.5z M250.5,19
		v-2.9h21.2V19H250.5z"/>
	<path class="st1" d="M278.4,39.5v-2.8c9.9-1.3,15.6-7.3,16.8-17.6h-12.4c-1.6,4-4.7,7.5-8.6,9.3v-3.2c2.8-1.9,5.1-4.9,6.2-8.9h18.1
		v0.4C297.9,30.7,290.6,38.3,278.4,39.5z"/>
	<path class="st1" d="M301.5,39.5v-3c12.3-0.6,18.2-4.9,19.5-16.2h3.2C323,34,314.7,39.2,301.5,39.5z"/>
	<path class="st1" d="M325.3,21.4v-2.9h15v-3.7h3.1v3.7h5.3v2.9h-5.3v18.3h-3.1V21.4H325.3z"/>
	<polygon class="st1" points="248.5,23 234.4,23 234.4,16.2 231.2,16.2 231.2,39.7 234.4,39.7 234.4,25.8 248.5,25.8 	"/>
	<path class="st1" d="M301.5,19.1v-2.9h12v2.9H301.5z"/>
	<path class="st1" d="M301.5,25.9V23h12v2.9H301.5z"/>
	<path class="st1" d="M350.2,39.5v-3c12.3-0.6,18.2-4.9,19.5-16.2h3.2C371.7,34,363.4,39.2,350.2,39.5z"/>
	<path class="st1" d="M350.2,19.1v-2.9h12v2.9H350.2z"/>
	<g>
		<path class="st1" d="M182.6,21.4c0,0-0.5-0.8-0.7-1.4v6.6h-1.2v-6.1c-0.2,0.9-0.4,1.9-1,2.9l-0.9-1c1-1.3,1.6-3,1.7-3.5h-1.4v-1.1
			h1.6v-2h1.2v2h1.3v1.1H182c0.5,0.9,1.3,1.5,1.3,1.5L182.6,21.4z M188.9,25.6c-1-1.2-1.6-2.6-1.9-3.6v4.6h-1.2V22
			c-0.4,1.1-1.2,2.6-2.4,3.6l-0.8-1c1.3-0.9,2.1-2.2,2.5-3.1h-1.8v-1.1h2.5v-1.9h-1.2c-0.2,0.7-0.6,1.5-0.6,1.5l-1-0.8
			c0,0,0.7-1.4,1-3.4l1.1,0.3c-0.1,0.4-0.2,0.9-0.3,1.3h1v-1.8h1.2v1.8h2.2v1H187v1.9h2.6v1.1h-1.9c0.3,0.8,1,2,2.1,3L188.9,25.6z"
			/>
		<path class="st1" d="M200.3,26.4c-0.4,0-0.9-0.4-1.2-0.9c-1.4-2.2-1.6-4.5-1.8-6.3h-6.1v-1.1h6c0-0.8-0.1-1.6-0.1-2.4h1.2
			c0,0.9,0.1,1.7,0.1,2.4h3.3v1.1h-3.2c0.2,2.5,0.7,3.9,1.5,5.5c0.1,0.2,0.2,0.4,0.3,0.4c0.2,0,0.3-0.5,0.7-1.8l0.9,1
			C201.4,25.8,200.8,26.4,200.3,26.4z M196.8,25.1c0,0-2.4,0.6-5.2,1l-0.3-1.1c0.8-0.1,1.5-0.2,2.3-0.3v-2.8h-1.8v-1.1h4.9v1.1h-1.9
			v2.6c1.3-0.3,2.2-0.5,2.2-0.5L196.8,25.1z M200.3,17.9c0,0-0.7-0.9-1.5-1.6l0.8-0.6c0.9,0.7,1.5,1.5,1.5,1.5L200.3,17.9z"/>
	</g>
	<g>
		<path class="st1" d="M189.3,33.1c-2-0.8-4.2-2.2-5-3.1c-0.8,1.1-3,2.6-5,3.3l-0.5-1.2c2.6-0.9,4.5-2.3,5-3.2h1
			c0.6,0.8,2.2,2,5.1,3.1L189.3,33.1z M188.3,39.9c-0.3-0.4-0.6-0.7-0.8-1c-2.2,0.4-5,0.6-7.6,0.7l-0.2-1.1c0.4,0,0.7,0,1,0
			c0.9-0.8,1.6-1.9,1.9-2.5h-3.1v-1.1h9.6v1.1H184c-0.3,0.7-1,1.6-1.7,2.4c2.2-0.1,3.5-0.3,4.4-0.4c-0.5-0.6-1.1-1.1-1.1-1.1l1-0.7
			c0,0,1.3,1.1,2.7,2.7L188.3,39.9z M181.3,33.6v-1h6.3v1H181.3z"/>
		<path class="st1" d="M195.6,36c-0.5-0.4-0.9-1-1.2-1.3v5.2h-1.2v-4.8c-0.4,0.4-1,0.9-1.7,1.3l-0.5-1.1c2.9-1.6,3.8-3.4,3.8-3.4
			h-3.1v-1.1h1.6v-1.9h1.2v1.9h1.6v1.1c0,0-0.4,0.8-1.3,1.9c0.3,0.3,1,0.8,1.6,1.2L195.6,36z M195.6,39.3v-1.1h2.7v-4.5h-2.1v-1.1
			h2.1v-3.7h1.2v3.7h2.2v1.1h-2.2v4.5h2.5v1.1H195.6z"/>
	</g>
	<g>
		<path class="st1" d="M335.2,21.1c-0.9,7.6-4.3,12.9-10,15.6v3.2c7.4-2.8,12.1-9,13.2-18.8H335.2z"/>
	</g>
</g>
<g>
	<polygon class="st2" points="158.3,20.9 147.1,27.3 147.1,40.3 158.3,33.8 	"/>
	<path class="st3" d="M123.9,26.8l12,7l0-26.8c-0.1,0.1-0.3,0.2-0.4,0.2C128.2,11.4,124,19,123.9,26.8z"/>
	<path class="st4" d="M158.3,33.8L135,47.2c6.9,4.2,15.7,4.6,23.2,0.5V33.8L158.3,33.8z"/>
	<path class="st4" d="M159.1,7.5c-6.9-4.2-15.7-4.6-23.2-0.5v13.9L159.1,7.5z"/>
	<path class="st2" d="M135.9,33.8l-12-7c-0.1,4.1,0.9,8.3,3.1,12.1c2,3.5,4.8,6.3,8.1,8.3l12-7L135.9,33.8z"/>
	<path class="st2" d="M167.2,15.7c-2-3.5-4.8-6.3-8.1-8.3l-12,7l11.2,6.5l0,0l0,0l12,7C170.4,23.7,169.4,19.5,167.2,15.7z"/>
	<path class="st3" d="M158.3,33.8L158.3,33.8L158.3,33.8L158.3,33.8L158.3,33.8v13.9c0.1-0.1,0.3-0.2,0.4-0.2
		c7.3-4.2,11.4-11.8,11.6-19.6l-12-7L158.3,33.8z"/>
</g>
</svg>
