<svg xmlns="http://www.w3.org/2000/svg" xmlns:xlink="http://www.w3.org/1999/xlink" viewBox="0 0 356.42 51.02"><defs><style>.cls-1{fill:#35393d;}.cls-2{fill:#231815;}.cls-3{fill:#0080bd;}.cls-4{fill:#0068a8;}.cls-5{fill:url(#linear-gradient);}</style><linearGradient id="linear-gradient" x1="136.02" y1="0.69" x2="137.35" y2="51.46" gradientUnits="userSpaceOnUse"><stop offset="0" stop-color="#b8d9eb"/><stop offset="0.5" stop-color="#7dbee5"/><stop offset="0.52" stop-color="#75b8e1"/><stop offset="0.68" stop-color="#4396c9"/><stop offset="0.82" stop-color="#1e7db7"/><stop offset="0.93" stop-color="#086eac"/><stop offset="1" stop-color="#0068a8"/></linearGradient></defs><title>アセット 22</title><g id="レイヤー_2" data-name="レイヤー 2"><g id="テキスト"><path class="cls-1" d="M15.05,41.81H12.48c0,.06,0,.76,0,.91s.08,1.2.08,1.31c0,.52-.55.7-.83.7-.46,0-.44-.28-.39-.94H8.11c0,1.93,0,2.08-.11,2.42a2.45,2.45,0,0,1-1.73,1.32c-.29-1-.92-1.4-2-1.82v-.12c.33,0,1.37.15,2,.15.15,0,.56,0,.65-.2S7,45.22,7,43.79H4a10.38,10.38,0,0,0-1.9.14l-.32-.65c1,.09,2,.12,2.5.12H7l0-1.59H2.24A11.93,11.93,0,0,0,.33,42L0,41.3c1.09.1,2.19.12,2.5.12H7V39.79H3.82A10.61,10.61,0,0,0,1.9,40l-.32-.65c1.13.1,2.35.1,2.5.1H7V37.87H3.88c0,.31,0,.36-.06.46a.84.84,0,0,1-.72.36.36.36,0,0,1-.4-.36c0-.1.08-1.32.08-1.58A7.14,7.14,0,0,0,2.67,35l1.3.61H7V34.33H2.8a10.7,10.7,0,0,0-1.92.15l-.31-.65c1,.08,2,.11,2.49.11H7a8.77,8.77,0,0,0-.31-1.87l1.72.52c.18,0,.26.13.26.25s-.27.3-.56.43c0,.15,0,.43,0,.67H12l.67-.78c.11-.15.16-.19.24-.19s.15,0,.31.16l1,.78c.13.1.16.16.16.24s-.15.18-.24.18H8.09c0,.1,0,1.06,0,1.24h3.07l.36-.35c.11-.11.16-.16.22-.16s.12,0,.23.12l.68.55c.12.08.15.14.15.23s-.33.32-.44.37c0,.23,0,1.22,0,1.43a.74.74,0,0,1-.77.75c-.39,0-.37-.31-.35-.64H8.06c0,.39,0,.51,0,1.53h3.1l.46-.49c.11-.11.16-.18.24-.18s.11,0,.28.17l.65.55a.36.36,0,0,1,.14.23c0,.08,0,.16-.47.45v1.29h.67l.65-.8c.13-.15.16-.21.24-.21s.16.05.29.18l.82.79c.11.12.14.18.14.25S15.15,41.81,15.05,41.81ZM7,36H3.88v1.52H7Zm4.23,0H8.08v1.52h3.17Zm.13,3.83H8.08v1.63h3.3Zm0,2H8.09l0,1.59h3.27Z"/><path class="cls-1" d="M31,36.13H25.91l.84.51a.34.34,0,0,1,.16.23c0,.19-.3.22-.6.24a16.89,16.89,0,0,1-1.43,1.32h2.78l.64-.72c.08-.1.17-.19.26-.19a.56.56,0,0,1,.29.16l.75.71a.36.36,0,0,1,.14.25c0,.16-.13.18-.24.18H24.31c0,.19,0,1.08,0,1.26h2.29l.57-.58c.1-.1.2-.2.28-.2s.16.08.31.18l.79.55c.08.07.18.15.18.26s-.13.18-.24.18H24.33v1.42h4.18l.73-.83c.11-.13.16-.2.26-.2s.21.1.29.17l.89.82c.09.09.17.15.17.26s-.15.17-.26.17H24.66A9.74,9.74,0,0,0,31,45.41l0,.1a2.76,2.76,0,0,0-1.5,1.32,10.33,10.33,0,0,1-5.13-4.55h-.05c0,1.48,0,1.77,0,2.08s.1,2,.1,2.32c0,.49-.49.67-.83.67s-.47-.26-.47-.51.05-1,.07-1.33c0-.54,0-.78,0-3a12,12,0,0,1-6.45,4.39l0-.1A14.84,14.84,0,0,0,22,42.28H19.11a11.93,11.93,0,0,0-1.91.14l-.33-.65c1.09.1,2.2.12,2.5.12h3.9V40.47H20.43a11.56,11.56,0,0,0-1.92.15L18.19,40c1.12.1,2.29.11,2.5.11h2.58V38.82H19.86A12,12,0,0,0,18,39l-.32-.65c1.08.1,2.22.12,2.5.12h4.42a8.45,8.45,0,0,0,.81-2.3H20.76c.94.31,1.8.8,1.8,1.58a.64.64,0,0,1-.65.65c-.37,0-.42-.1-.81-1.07a4.12,4.12,0,0,0-.67-1.16H18.74a9.78,9.78,0,0,0-1.92.15l-.31-.65c1.11.1,2.26.11,2.49.11h3.06a11,11,0,0,0-.28-3.34l1.58.45c.14,0,.22.1.22.25s-.18.27-.48.38v2.26h1.2c0-2.06,0-2.53-.34-3.34l1.65.44c.1,0,.28.08.28.24s-.39.37-.54.42v2.24h.7a11.51,11.51,0,0,0,.85-2.27,3.56,3.56,0,0,0,.08-.78l1.45.73c.09,0,.19.11.19.23s-.39.29-.57.31c-.5.53-1.36,1.46-1.69,1.78h2.55l.7-.73c.13-.13.2-.21.26-.21a.61.61,0,0,1,.33.18l.84.72c.1.08.18.14.18.26S31.07,36.13,31,36.13Zm-10.57-.74c-.39,0-.5-.26-.81-1a3.58,3.58,0,0,0-.94-1.29l.06-.11c.65.16,2.28.6,2.28,1.74A.6.6,0,0,1,20.41,35.39Z"/><path class="cls-1" d="M47.15,46.14H35.24a11.34,11.34,0,0,0-1.92.15L33,45.64c.82.07,1.67.11,2.5.11h4V41H36.73a10.61,10.61,0,0,0-1.91.15l-.33-.65c1.28.11,2.47.11,2.5.11h2.47V36.31H36.15a11.49,11.49,0,0,0-1.92.15l-.31-.65c1.27.1,2.21.11,2.49.11h7.41l.65-.79c.11-.13.18-.2.27-.2a.6.6,0,0,1,.33.16l1.06.78a.41.41,0,0,1,.19.26c0,.15-.15.18-.24.18H40.65v4.31h2.52l.63-.76c.12-.13.2-.2.28-.2a.72.72,0,0,1,.32.16l1,.77c.07,0,.17.16.17.24s-.12.18-.25.18H40.65v4.74h4.27l.75-.87c.11-.15.21-.2.29-.2a.6.6,0,0,1,.31.18l1,.86a.34.34,0,0,1,.16.28C47.39,46.1,47.3,46.14,47.15,46.14ZM40.28,35.06c-.51,0-.67-.34-.91-.88a3.59,3.59,0,0,0-1.48-1.62v-.12c2.17.15,3.12,1.11,3.12,1.84A.72.72,0,0,1,40.28,35.06Z"/><path class="cls-1" d="M49,48.68V34.17h3.1v.53H50.32V48.16h1.77v.52Z"/><path class="cls-1" d="M59.37,40.9A6.35,6.35,0,0,1,58,45.22a6.73,6.73,0,0,1-4.92,2.05v-.1c3.23-1.06,5-2.76,5-5.9a6.61,6.61,0,0,0-.19-1.56l1.62.47c.25.07.33.15.33.26S59.68,40.73,59.37,40.9Zm7.11-1.14c-.28.19-1.16.83-1.74,1.15l-.1-.08c.19-.34.8-1.64.83-1.72H55.62c.05,1-.49,2.26-1.35,2.26a.69.69,0,0,1-.7-.72c0-.36.07-.42.72-1a2.87,2.87,0,0,0,1-1.76h.11a5.73,5.73,0,0,1,.21.88h9.8l.5-.52c.13-.13.18-.16.26-.16s.13,0,.28.16l1.14.94a.41.41,0,0,1,.18.29C67.73,39.82,66.87,39.79,66.48,39.76Zm.68-4.89H61c0,.19,0,1.46,0,1.75H64.1l.52-.71c.08-.12.15-.2.25-.2s.16,0,.31.16l.94.72c.11.1.16.16.16.24S66.13,37,66,37H57a11.68,11.68,0,0,0-1.91.15l-.32-.65c1,.08,2,.11,2.5.11h2.6V34.87h-4A11.29,11.29,0,0,0,54,35l-.33-.65c1,.08,2,.12,2.5.12h3.69a6.91,6.91,0,0,0-.24-2.23l1.77.54c.1,0,.23.06.23.22s-.41.44-.6.54v.93h4l.65-.78c.12-.15.18-.2.25-.2s.16,0,.3.16l1,.78c.1.09.16.15.16.25S67.27,34.87,67.16,34.87Zm.16,11.76c-.45.34-1.09.34-2.49.34-2.37,0-2.51,0-2.9-.26s-.48-.83-.48-1.9c0-.65,0-3.51,0-4.09a2.62,2.62,0,0,0-.15-1.08l1.63.41c.24.07.36.15.36.28s-.17.27-.54.48c-.1,1.14-.11,2.28-.11,3.42s0,1.39.21,1.51a1.54,1.54,0,0,0,.71.11c2.31,0,2.42,0,2.7-1,.13-.47.2-.73.44-1.85l.15,0c.16,1.48.24,2.17.48,2.39a2.17,2.17,0,0,1,.36.29.3.3,0,0,1,.07.19A1,1,0,0,1,67.32,46.63Z"/><path class="cls-1" d="M83.87,46.14H72a11.27,11.27,0,0,0-1.92.15l-.33-.65c.83.07,1.68.11,2.51.11h4V41H73.45a10.7,10.7,0,0,0-1.92.15l-.32-.65c1.28.11,2.47.11,2.5.11h2.47V36.31H72.87a11.34,11.34,0,0,0-1.92.15l-.31-.65c1.27.1,2.21.11,2.49.11h7.41l.65-.79c.11-.13.17-.2.27-.2a.64.64,0,0,1,.33.16l1,.78c.08.05.2.17.2.26s-.15.18-.25.18H77.37v4.31h2.52l.63-.76c.11-.13.19-.2.28-.2a.72.72,0,0,1,.32.16l1,.77a.38.38,0,0,1,.16.24c0,.11-.11.18-.24.18H77.37v4.74h4.27l.75-.87c.11-.15.21-.2.29-.2a.6.6,0,0,1,.31.18l1,.86a.34.34,0,0,1,.16.28C84.11,46.1,84,46.14,83.87,46.14ZM77,35.06c-.5,0-.66-.34-.91-.88a3.49,3.49,0,0,0-1.48-1.62v-.12c2.18.15,3.12,1.11,3.12,1.84A.71.71,0,0,1,77,35.06Z"/><path class="cls-1" d="M88.39,48.68H85.3v-.52h1.76V34.7H85.3v-.53h3.09Z"/><path class="cls-2" d="M181.94,39.49l-.16-.08H179L178,41h-2.57l-1-1.55h-2.82l-.17.08.91,1.47h-2v2.35h4.93v1.33h-4.93V47H174a21.63,21.63,0,0,1-3.82,3.87h3.79a26.7,26.7,0,0,0,2.7-3.15,26.48,26.48,0,0,0,2.69,3.11h3.79a22,22,0,0,1-3.8-3.83h3.83V44.64H178V43.31h5.16V41H181Z"/><path class="cls-2" d="M175.19,36.07V27.56a1.29,1.29,0,0,0-1.41-1.11h-8.17a1.3,1.3,0,0,0-1.42,1.11V50.82H167V37.18h6.76A1.29,1.29,0,0,0,175.19,36.07Zm-2.82-7.4v2.07H167V28.67ZM167,35V33h5.35v2Z"/><path class="cls-2" d="M187.8,26.45h-8.17a1.3,1.3,0,0,0-1.42,1.11v8.51a1.3,1.3,0,0,0,1.42,1.11h6.75V48.57h-2.16v2.25h3.56a1.31,1.31,0,0,0,1.41-1.14V27.56A1.29,1.29,0,0,0,187.8,26.45Zm-1.42,2.22v2.07H181V28.67ZM181,35V33h5.34v2Z"/><path class="cls-2" d="M314.29,36.06V27.55a1.29,1.29,0,0,0-1.41-1.11h-8.17a1.3,1.3,0,0,0-1.42,1.11V50.8h2.83V37.17h6.76A1.29,1.29,0,0,0,314.29,36.06Zm-2.82-7.4v2.07h-5.35V28.66ZM306.12,35V33h5.35v2Z"/><path class="cls-2" d="M195.66,32.11h7.78v5h2.83v-5h8.32v4.28h2.82V31A1.29,1.29,0,0,0,216,29.9h-9.73V28.66h9.81V26.44H194.29v2.22h9.15V29.9h-9.2A1.29,1.29,0,0,0,192.83,31v5.38h2.83Z"/><rect class="cls-2" x="196.97" y="33.01" width="4.99" height="1.33"/><rect class="cls-2" x="196.97" y="35.12" width="4.99" height="1.33"/><rect class="cls-2" x="207.98" y="33.01" width="4.99" height="1.33"/><rect class="cls-2" x="207.98" y="35.12" width="4.99" height="1.33"/><polygon class="cls-2" points="219.83 28.66 229.83 28.66 219.75 40.74 219.75 44.63 219.84 44.67 230.32 32.16 230.32 50.81 233.15 50.81 233.15 28.66 244.18 28.66 244.18 26.45 219.83 26.45 219.83 28.66"/><path class="cls-2" d="M254.82,43.21h3.39a1.28,1.28,0,0,0,1.41-1.1v-7.5a1.29,1.29,0,0,0-1.41-1.11h-3.39v-.92h4.95V30.37h-4.95V29l4.95-.37V26.4l-12.37.94v2.23l4.59-.35v1.15H247.4v2.21H252v.92h-3.14a1.3,1.3,0,0,0-1.42,1.11v7.5a1.29,1.29,0,0,0,1.42,1.1H252v1.31H247.4v2.21H252v1.52l-4.59.35v2.22l12.36-.94V47.66l-4.94.38V46.73h5V44.52h-5Zm0-2.12V39.18h2.09v1.91Zm2.09-5.46v1.73h-2.09V35.63Zm-4.92,0v1.73h-1.84V35.63Zm-1.84,5.46V39.18H252v1.91Z"/><path class="cls-2" d="M294.59,30h4.69V27.82H288.42V26.45H285.6v1.37H274.86V30h5.67l.87,4.4h-4.56a1.3,1.3,0,0,0-1.42,1.11l-.75,15.26h2.82l.76-14.16h21.07V34.43h-5.6Zm-11.2,0h8.34l-.87,4.4h-6.6Z"/><polygon class="cls-2" points="291.19 37.69 288.37 37.69 288.37 39.14 282.7 39.14 282.93 37.99 280.07 37.99 279.25 42.05 282.12 42.05 282.26 41.35 288.37 41.35 288.37 44.05 281.41 44.05 281.41 46.26 288.37 46.26 288.37 48.6 279.91 48.6 279.91 50.81 299.27 50.81 299.27 48.6 291.19 48.6 291.19 46.26 298.17 46.26 298.17 44.05 291.19 44.05 291.19 41.35 299.27 41.35 299.27 39.14 291.19 39.14 291.19 37.69"/><path class="cls-2" d="M308.37,41.74h2.83v2.84h-2.83V46.8h2.83v4H314v-4h3.63v4h2.82v-4h2.36V44.58h-2.36V41.74h2.36V39.53H308.37Zm9.29,2.84H314V41.74h3.63Z"/><path class="cls-2" d="M268,26.45h-2.85l-.56,3.69h-3.22v2.24h2.87l-2.87,18.43h2.85l2.87-18.43h2.06V45.87c0,2.79-.72,2.91-2.34,2.91V51c3.21,0,4.58-1.54,4.58-5.15V30.14h-4Z"/><polygon class="cls-2" points="233.44 32.09 244.09 44.79 244.17 44.75 244.17 40.86 236.82 32.09 233.44 32.09"/><path class="cls-2" d="M328.31,27.55a1.29,1.29,0,0,0-1.41-1.11h-8.17a1.29,1.29,0,0,0-1.42,1.11v8.51a1.29,1.29,0,0,0,1.42,1.11h6.76V48.6h-2.15v2.21h3.56a1.29,1.29,0,0,0,1.42-1.11Zm-2.82,1.11v2.07h-5.35V28.66ZM320.14,35V33h5.35v2Z"/><path class="cls-2" d="M215.44,48.64h-9V47.32h8.49a1.29,1.29,0,0,0,1.41-1.11v-7.5a1.28,1.28,0,0,0-1.41-1.1H195.34a1.28,1.28,0,0,0-1.41,1.1v9.67h2.86V47.32h6.81v2.39a1.29,1.29,0,0,0,1.42,1.1h12.33a1,1,0,0,0,.87-1.09V47.65h-2.8Zm-9-3.54V43.64h7.08V45.1Zm7.08-3.67h-7.08V39.82h7.08Zm-9.91-1.61v1.61h-6.85V39.82ZM196.8,45.1V43.64h6.81V45.1Z"/><path class="cls-2" d="M356.42,47.54h-2.8v1h-4.33v-4h6.78V42.28h-6.78v-5h3.33V35.81l3.45,2.67V35.37l-2.53-1.95,2.53-1.32V29.25l-4.74,2.48-1.72-1.33,2.91-1.51V26.05l-5.12,2.66L345,26.89a2.36,2.36,0,0,0-1.2-.44H333.45v2.21h7l-4,3.06-4.77-2.47V32.1l2.55,1.32-2.57,2v3.11L335,35.94v1.38h2.82v5h-5.95v2.21h5.67c-1,2.26-4.18,3.54-5.75,4v2.35c.9-.22,7.54-2,8.68-6.39h6V49.7a1.29,1.29,0,0,0,1.41,1.11h7.67a1,1,0,0,0,.87-1.11ZM343.89,29.11l7.81,6H336.09Zm-3.26,13.17v-5h5.84v5Z"/><rect class="cls-3" x="120.29" y="4.02" width="8.59" height="20.56"/><rect class="cls-4" x="120.29" y="4.02" width="8.59" height="46.8"/><rect class="cls-4" x="130.63" y="15.4" width="6.87" height="35.41"/><path class="cls-5" d="M162.19,50.81H146l-.09,0C121.3,41.86,110,32.57,110.3,24.44,110.65,13.9,142.08,4.78,161.72.11L162,0c.09,0,.34-.08.34.06s-.16.19-.26.21l-.33.07c-11.23,3-46.21,13.66-46.21,24.15,0,10.12,46.22,25.58,46.7,25.74a.27.27,0,0,1,.19.29A.3.3,0,0,1,162.19,50.81Z"/><rect class="cls-4" x="120.29" y="4.02" width="8.59" height="25.2"/></g></g></svg>