<?xml version="1.0" encoding="utf-8"?>
<!-- Generator: Adobe Illustrator 25.2.1, SVG Export Plug-In . SVG Version: 6.00 Build 0)  -->
<svg version="1.1" id="レイヤー_1" xmlns="http://www.w3.org/2000/svg" xmlns:xlink="http://www.w3.org/1999/xlink" x="0px"
	 y="0px" viewBox="0 0 249.8 25" style="enable-background:new 0 0 249.8 25;" xml:space="preserve">
<style type="text/css">
	.st0{display:none;}
	.st1{display:inline;}
	.st2{fill:url(#SVGID_1_);}
	.st3{fill:#1E1E78;}
	.st4{fill:#0B308E;}
</style>
<g id="レイヤー_2_1_" class="st0">
	<g id="レイヤー_1-2" class="st1">
		
			<linearGradient id="SVGID_1_" gradientUnits="userSpaceOnUse" x1="32.41" y1="828.15" x2="113.47" y2="828.15" gradientTransform="matrix(1 0 0 1 0 -816)">
			<stop  offset="0.45" style="stop-color:#80C1EA"/>
			<stop  offset="0.8" style="stop-color:#1E1E78"/>
		</linearGradient>
		<path class="st2" d="M113.3,4.3C109,11.5,101.6,17.5,90.8,18c-15.7,0.6-25.2-6.8-36.8-7.6c-5.8-0.5-11.5,0.5-16.8,3l0.2,0.5
			c3.8-1.6,8.5-2.5,16.9-1.9c15.4,1.1,23.2,8,36.6,8c12.7,0,19.8-9.8,22.5-15.5L113.3,4.3z"/>
		<path class="st3" d="M82.4,24.2c1.8-0.5,2.3-1.7,3-3.3L92,6h0.2L99,22.1c0.6,1.3,1,2,2.2,2v0.4h-6.4v-0.4c0.7-0.1,0.6-1,0.3-1.8
			l-4.2-10.1h-0.2l-4.4,10.1c-0.5,1-0.1,1.8,0.3,2v0.2h-4.2C82.4,24.5,82.4,24.2,82.4,24.2z"/>
		<path class="st3" d="M53.8,22.2c-0.4,0.9-1.2,1.4-2.2,1.3h-4.8v-7.8h3.4c0.6,0,1.1,0.4,1.3,0.8c0,0.1,0.1,0,0.1,0c0-0.5,0-1,0-1.6
			c0-0.4,0-0.9,0-1.3c0-0.1-0.1-0.1-0.1-0.1c-0.2,0.6-0.8,0.9-1.5,0.9h-3.3V7.3h3C51,7.3,51,7.7,51.2,8c0.2,0.3,0.2,0.1,0.2-0.1
			c-0.2-1.3-0.3-1.8-1.2-1.8s-4.9,0.1-6.1,0.1h-0.3c-0.6,0-1.1,0-1.7,0c-0.2,0-0.2,0.2-0.1,0.2c0.7,0.2,1.1,0.9,1,1.6v14.6
			c0,1.5-0.4,1.6-1,1.9c-0.2,0.1-0.2,0.2,0.1,0.2c0.6,0,1.1-0.1,1.7,0h3.4c1.2,0,4.1,0.1,5,0.1s1.2-0.8,1.6-2.5
			C54,22.1,53.8,22,53.8,22.2z"/>
		<path class="st3" d="M35.7,24.5c-0.6-0.4-0.9-1-0.9-1.7V7.9c0-0.7,0.4-1.3,0.9-1.7C35.9,6.1,35.8,6,35.6,6
			c-0.9,0.1-1.8,0.2-2.7,0.2c-0.6,0-2.2,0-2.7-0.1c-0.2,0-0.2,0.2-0.1,0.2c0.7,0.2,1.1,0.9,1,1.6v14.9c0.1,0.7-0.3,1.4-1,1.6
			c-0.1,0-0.1,0.2,0.1,0.2c0.5-0.1,2.1-0.1,2.7-0.1c0.9,0,1.8,0.1,2.7,0.2C35.8,24.7,35.9,24.6,35.7,24.5z"/>
		<path class="st3" d="M78.6,24.5c-0.6-0.4-0.9-1-0.9-1.7V7.9c0-0.7,0.4-1.3,0.9-1.7C78.8,6.1,78.7,6,78.5,6
			c-0.9,0.1-1.8,0.2-2.7,0.2c-0.6,0-2.2,0-2.7-0.1c-0.2,0-0.2,0.2-0.1,0.2c0.7,0.2,1.1,0.9,1,1.6v14.9c0.1,0.7-0.3,1.4-1,1.6
			c-0.1,0-0.1,0.2,0.1,0.2c0.5-0.1,2.1-0.1,2.7-0.1c0.9,0,1.8,0.1,2.7,0.2C78.6,24.7,78.7,24.6,78.6,24.5z"/>
		<path class="st3" d="M69.3,22.2c-0.4,0.9-1.2,1.4-2.2,1.3h-4.8V7.9c0-0.7,0.4-1.3,0.9-1.7C63.4,6.1,63.3,6,63.1,6
			c-0.9,0.1-1.8,0.2-2.7,0.2c-0.6,0-2.2,0-2.7-0.1c-0.2,0-0.2,0.2-0.1,0.2c0.7,0.2,1.1,0.9,1,1.6v14.6c0,1.5-0.4,1.6-1,1.9
			c-0.2,0.1-0.2,0.2,0.1,0.2c0.6,0,1.1-0.1,1.7,0h3.5c1.2,0,4.1,0.1,5,0.1s1.2-0.8,1.6-2.5C69.5,22.1,69.4,22,69.3,22.2z"/>
		<path class="st3" d="M28.4,18.2c-2.3,2.9-7.6,6.8-13.7,6.8C5.9,25,0,19.4,0,12.4C0,4.8,6.5,0,14.7,0c4.9,0,8.1,2.2,9.2,2.2l-0.2,5
			l-0.5-0.1c-1.6-3.5-5.2-5.7-9.1-5.4C10,2,6.6,6.8,6.5,12.4C6.5,18.7,10,23,15.2,23c4.9,0.1,9.6-1.9,13-5.4L28.4,18.2z"/>
		<path class="st3" d="M138.9,15.2c-0.2,0-0.3-0.1-0.8-0.4c-0.7-0.7-1.6-1.2-2.6-1.5c0.6-0.1,1.1-0.2,1.7-0.2c1.8,0,2.4,0.8,2.4,1.4
			C139.6,14.8,139.3,15.1,138.9,15.2L138.9,15.2z M140,11.9c-0.2,0-0.5-0.1-0.6-0.3c-0.7-0.8-1.6-1.4-2.6-1.8
			c0.4-0.1,0.8-0.1,1.2-0.1c1.5,0,2.6,0.6,2.6,1.4C140.6,11.4,140.4,11.9,140,11.9z M139.9,19.3c-0.4,0.2-0.8,0.5-1.1,0.9
			c-0.1,0.1-0.2,0.2-0.3,0.2c-0.9-0.3-1.6-1.2-1.6-2.2c0-0.1,0-0.3,0.1-0.4c0.3,0.4,0.6,0.7,1.1,0.8c1,0,5.8-3.8,7.8-6.4l0.1,0.1
			C145.1,14.4,142.7,17.2,139.9,19.3L139.9,19.3z"/>
		<path class="st3" d="M158.4,18.5c-0.2,0-0.9-0.2-1.1-0.2c-1-0.1-2-0.2-3-0.2c-1.7,0-3.4,0.2-5,0.5c-0.1,0-0.9,0.4-1,0.4
			c-0.8-0.3-1.4-1-1.4-1.9c0-0.2,0.1-0.5,0.1-0.7c0.3,0.7,1,1.1,1.8,1.1c0.7,0,2.3-0.1,3.3-0.2c0.1-1.3,0-2.6-0.1-3.9
			c-0.1-0.4-0.2-0.4-0.4-0.5c-0.5,0-0.9,0.1-1.4,0.3c-0.1,0-0.2,0-0.3,0c-0.5,0-1.3-1.1-1.2-1.7c0.5,0.4,1,0.5,1.6,0.5
			c1.5,0,3-0.2,4.4-0.5c0.2-0.1,0.4-0.2,0.6-0.2c0.3,0,1.2,0.3,1.2,0.8c0,0.1-0.1,0.5-0.7,0.5h-2c-0.3,0-0.6,0-0.8,0
			c0.5,0.4,0.6,0.4,0.6,0.6s-0.2,0.7-0.2,0.8s-0.1,0.6-0.1,1.2s-0.1,1.3-0.1,2c0.4,0,2.4-0.1,2.8-0.1c0.2,0,0.9-0.2,1.1-0.2
			c0.5,0,1.6,0.6,1.6,1.3c0,0.2-0.1,0.5-0.3,0.5C158.4,18.5,158.4,18.5,158.4,18.5z"/>
		<path class="st3" d="M162.8,11.4c-0.1,0.5-0.2,1-0.2,1.5c0,0.4,0,2,0,2.3s0,1.2-0.6,1.2c-0.4,0-0.9-0.6-0.9-1.3
			c0-0.1,0.1-0.7,0.1-0.8c0-0.3,0.1-0.9,0.1-1.6c0-1.6,0-1.8-1.3-2.1c0.3-0.2,0.6-0.3,1-0.4c0.5,0,1.8,0.4,1.8,0.9
			C162.8,11.2,162.8,11.3,162.8,11.4z M167.7,11.3c0,0.3-0.1,2.8-0.1,3.4c0.1,1.8-0.6,3.5-1.9,4.8c-0.7,0.8-1.6,1.3-2.7,1.5
			l-0.1-0.1c3.3-2.2,3.3-5.7,3.3-8.3c0-2.2,0-2.4-1.4-2.6c0.3-0.3,0.7-0.5,1.2-0.5c0.7,0,1.9,0.4,1.9,0.9
			C167.9,10.5,167.7,11.2,167.7,11.3z"/>
		<path class="st3" d="M179.5,12.3c-0.1,0-0.3,0.1-0.4,0.2c-1.8,1.1-2,1.2-3,1.7c-0.7,2.7-1.3,5.1-4.2,6.6l-0.1-0.1
			c2.2-2.1,2.8-6.2,2.8-6.6s-0.2-0.6-1-0.9c0.3-0.2,0.6-0.3,0.9-0.3c0.4,0,1.5,0.2,1.6,0.7c0.6-0.6,1.2-1.2,1.6-2
			c0-0.1-0.1-0.1-0.2-0.1c-1.8,0.2-3.6,0.5-5.4,0.9c-0.3,0.1-0.5,0.2-0.8,0.3c-0.3,0-1.3-0.7-1.3-1.5c0-0.3,0.1-0.6,0.2-0.9
			c0.4,0.7,0.7,0.9,1.3,0.9c1,0,6.5-0.6,6.5-0.6c0.2-0.1,0.4-0.3,0.7-0.3c0.4,0.2,0.8,0.5,1.1,0.8c0.1,0.1,0.5,0.5,0.5,0.8
			S180.4,12.1,179.5,12.3z"/>
		<path class="st3" d="M189.2,11.2c-0.7,1.2-1.5,2.3-2.5,3.3c0.2,0.2,0.3,0.4,0.3,0.7c0,0.4-0.3,0.7-0.6,0.7l0,0
			c-0.5,0-0.6-0.3-0.8-1c-0.1-0.3-0.3-0.7-0.5-0.9c0,1,0,5.5,0,6.4c0,0.4,0,1-0.9,1c-0.5,0-0.6-0.3-0.6-0.6s0.1-1.3,0.1-1.5
			c0-1.1,0-2.4,0.1-3.8c-0.6,1-1.4,1.8-2.3,2.5l-0.1-0.1c1.1-1.8,1.9-3.8,2.3-5.8H183c-0.4,0-0.7,0-1.1,0.1l-0.2-0.5
			c0.7,0.1,1.4,0.1,1.6,0.1h0.5c0-2.4-0.1-2.7-0.3-3.1l1.9,0.5c0.1,0,0.2,0.1,0.2,0.2s-0.1,0.2-0.5,0.4v1.9h0.1l0.4-0.8
			c0.1-0.1,0.1-0.2,0.2-0.2c0.1,0,0.2,0.1,0.2,0.1l0.8,0.8c0.1,0.1,0.1,0.1,0.1,0.2s-0.1,0.1-0.2,0.1H185c0,0.2,0,1.4,0,1.6
			c0.5,0.1,1,0.3,1.4,0.6c0.8-1.4,1.3-3,1.4-4.7l1.6,0.9c0.1,0.1,0.2,0.2,0.2,0.3S189.6,11,189.2,11.2z M192.9,20.9
			c-0.6,0-0.7-0.4-0.8-0.8s-0.2-0.9-0.4-1.3c-1.5,0.7-3.1,1.2-4.6,1.7c-0.2,0.3-0.2,0.4-0.4,0.4c-0.1,0-0.2-0.1-0.2-0.2l-0.7-1.9
			c0.4,0.1,0.7,0.1,1.1,0.1h0.7c0.5-1.5,0.9-3.2,1.1-4.8c0-0.2,0-0.3,0-0.5l1.9,0.7c0.2,0.1,0.2,0.2,0.2,0.3s-0.2,0.3-0.5,0.4
			l-1.2,2.1c-0.3,0.6-0.7,1.2-1.1,1.8c1.2-0.1,2.4-0.2,3.6-0.4c-0.3-0.7-0.7-1.4-1.2-2l0.1-0.1c1.3,0.7,3.2,2.2,3.2,3.6
			C193.7,20.5,193.3,20.9,192.9,20.9L192.9,20.9z M193.3,15.3c-1.6-1.3-2.6-3.3-2.7-5.4c-0.4,0-0.8,0-1.2,0.1l-0.2-0.5
			c0.4,0,0.7,0.1,1.1,0.1l0.5-0.6c0.1-0.1,0.1-0.1,0.2-0.1s0.1,0,0.2,0.1l0.7,0.6c0.1,0.1,0.1,0.2,0.1,0.2s-0.1,0.2-0.9,0.6
			c0.6,1.6,1.9,2.8,3.6,3.3v0.1C194.1,14.1,193.6,14.6,193.3,15.3z"/>
		<path class="st3" d="M207.1,12.4c0,0.4,0,1,0,2.3c0,0.8,0,4.2,0,4.9c0,0.4,0,0.9-0.1,1.3c-0.3,0.2-0.6,0.3-0.9,0.3
			c-0.5,0-0.5-0.2-0.5-1.5h-7.4c0,0.9,0,1.5-1,1.5c-0.6,0-0.6-0.4-0.6-0.6c0-0.5,0.1-2.5,0.1-2.9c0-1.4,0-3.4,0-4.8
			c0-0.5-0.1-1.1-0.2-1.6l1.9,0.4c0.2,0,0.3,0.1,0.3,0.2s-0.1,0.2-0.4,0.4c0,1.1,0,6.1,0,7.1h2.9c0-0.9,0-5,0-6.2
			c0.1-1.4,0-2.9-0.3-4.3l2.1,0.4c0.2,0,0.3,0.1,0.3,0.2s-0.2,0.3-0.6,0.5c0,1.5,0,8,0,9.3h3c0-2.2,0-2.5,0-3.4c0-1.6,0-3.2-0.2-4.7
			l1.9,0.4c0.2,0,0.3,0.1,0.3,0.2S207.5,12.1,207.1,12.4z"/>
		<path class="st3" d="M221.9,11.2h-6.4l1,0.3c0.1,0,0.2,0.1,0.2,0.2s-0.1,0.2-0.3,0.4c0,0.2,0,1.2,0,1.4h2.4l0.4-0.6
			c0.1-0.1,0.2-0.2,0.2-0.2c0.1,0,0.2,0.1,0.3,0.1l1,0.7c0.1,0.1,0.2,0.1,0.2,0.2s-0.2,0.3-0.5,0.6c0,0.6,0.1,3.4,0.1,3.9
			s0,1.6-2,1.9c-0.1-0.8-0.6-1.4-1.2-1.8v-0.1c0.3,0,1,0.1,1.1,0.1c0.5,0,0.6-0.1,0.6-0.4s0-3.1,0-4.1h-2.5c0,2.1,0,2.9,0,3.6
			c0,0.5,0.1,2.5,0.1,2.9c0.1,0.5-0.2,0.9-0.7,1c-0.1,0-0.2,0-0.3,0c-0.5,0-0.6-0.3-0.6-0.6c0,0,0.1-2.9,0.1-3.4c0-1.5,0-3.1,0-3.6
			h-2.4c0,0.8,0,4.6,0,5.3c0,0.3,0,0.5-0.2,0.7S212,20,211.7,20c-0.6,0-0.6-0.4-0.6-0.6c0-0.5,0.1-2.5,0.1-2.9c0-0.6,0-1.1,0-1.5
			c0-0.8,0-1.6-0.2-2.3l1.8,0.7h2.3c0-0.8,0-1.5-0.2-2.3h-3.7c-0.5,0-1,0-1.5,0.1l-0.2-0.5c0.9,0.1,1.9,0.1,2,0.1h3.7
			c0.1-0.8,0-1.7-0.3-2.4l1.9,0.4c0.1,0,0.2,0.1,0.2,0.2s-0.1,0.2-0.4,0.4c0,0.4,0,0.8,0,1.4h3.2l0.7-1c0.1-0.1,0.2-0.2,0.2-0.2
			s0.1,0.1,0.3,0.1l1.1,1c0.1,0.1,0.1,0.1,0.1,0.2C222.1,11.2,222.1,11.2,221.9,11.2z"/>
		<path class="st3" d="M223.9,20.2c-0.3,0-0.6-0.2-0.6-0.5c0,0,0,0,0-0.1c0-0.4,0.2-0.7,0.4-1c0.2-0.4,0.4-0.9,0.4-1.4h0.1
			c0.4,0.5,0.6,1.2,0.6,1.9C224.8,19.3,224.8,20.2,223.9,20.2z M229.4,16.2c-0.4,4.2-1.1,4.9-2.7,5.1c0-0.8-0.5-1.5-1.3-1.8l0.1-0.1
			c0.5,0.1,1,0.2,1.4,0.2c0.5,0,0.7,0,1-1.7c-0.4,0.1-0.6-0.4-0.6-0.7c0-0.4-0.2-0.8-0.4-1l0.1-0.1c0.4,0.1,0.8,0.3,1.2,0.6
			c0-0.4,0-0.7,0.1-1h-2.9c0,0.5-0.3,0.7-0.8,0.7s-0.5-0.2-0.5-0.5c0-0.1,0.1-1.7,0.1-2c0-0.8,0-1.6,0-2.5c0-0.6,0-1.3-0.1-2.6
			l1.4,0.6h2.3l0.5-0.6c0.1-0.1,0.1-0.2,0.2-0.2c0.1,0,0.2,0.1,0.3,0.1l0.9,0.6c0.1,0.1,0.1,0.1,0.1,0.2s-0.1,0.1-0.2,0.1h-2v1.6
			h0.2l0.4-0.7c0-0.1,0.1-0.2,0.2-0.2c0.1,0,0.2,0.1,0.3,0.2l0.8,0.7c0.1,0.1,0.2,0.1,0.2,0.2s-0.1,0.2-0.2,0.2h-1.8v1.6h0.2
			l0.4-0.8c0-0.1,0.1-0.2,0.2-0.2c0.1,0,0.2,0.1,0.2,0.1l0.7,0.8c0.1,0.1,0.1,0.1,0.1,0.2s-0.1,0.1-0.2,0.1h-1.8V15h0.6l0.5-0.6
			c0-0.1,0.1-0.1,0.2-0.1s0.1,0,0.3,0.2l0.9,0.8c0.1,0,0.1,0.1,0.1,0.2C229.9,15.9,229.5,16.1,229.4,16.2L229.4,16.2z M225.5,19.5
			c-0.5,0-0.5-0.5-0.5-0.9c0-0.5-0.1-1.1-0.2-1.5h0.1c0.9,0.7,1.2,1.2,1.2,1.8C226.1,19.1,225.9,19.5,225.5,19.5L225.5,19.5z
			 M226.1,9.9h-0.9v1.6h0.9V9.9z M226.1,11.9h-0.9v1.6h0.9V11.9z M226.1,13.9h-0.9v1.6h0.9V13.9z M226.7,18.8
			c-0.4,0-0.5-0.4-0.5-0.9c0-0.4-0.1-0.9-0.3-1.3l0.1-0.1c0.4,0.2,1.3,0.8,1.3,1.6C227.2,18.5,227,18.7,226.7,18.8L226.7,18.8z
			 M235.1,21.4c-1-0.7-2.5-2.9-2.5-7h-1c0,1.7-0.4,3.3-1.1,4.8c-0.5,0.9-1.2,1.6-2,2.2l-0.1-0.1c1.5-2.1,1.9-4.3,1.9-9.4
			c0-0.9,0-1.9-0.2-2.8l1.7,0.7h2.2l0.4-0.5c0.1-0.1,0.1-0.1,0.2-0.1c0.1,0,0.2,0.1,0.3,0.1l0.9,0.7c0.1,0.1,0.1,0.1,0.1,0.2
			c0,0.1-0.1,0.2-0.5,0.4c0,0.3,0,0.6,0,1.1s0.1,2.4,0.1,2.5c0,0.7-0.9,0.7-1,0.7c-0.4,0-0.4-0.2-0.4-0.6h-1.2
			c0.4,2.3,1.8,4.3,3.7,5.6V20C236,20.3,235.4,20.7,235.1,21.4L235.1,21.4z M234.1,10.1h-2.4c0,0.6-0.1,3.3-0.1,3.9h2.4v-3.9H234.1z
			"/>
		<rect x="123.8" y="5" class="st3" width="1" height="20"/>
	</g>
</g>
<g>
	<path class="st4" d="M41.6,20c-5.4,0-9.3-2.7-9.3-7.6c0-4.9,3.9-7.7,9.2-7.7c1,0,2,0.1,2.7,0.2c1,0.2,1.3,0.2,1.4,0l0.1-0.3h0.5
		v4.2h-0.6l-0.3-1.2c-0.3-1.2-2-1.9-3.9-1.9C37.4,5.6,36,9,36,12c0,3.6,2,7,6.2,7c1.8,0,3.3-0.6,3.9-1.8l0.6-1.1l0.5,0.1l-0.7,3
		C45.4,19.7,43.6,20,41.6,20"/>
	<path class="st4" d="M52.2,19.7v-0.4l0.9-0.2c1-0.2,1.2-0.4,1.2-2.2v-9c0-1.8-0.2-2-1.2-2.2l-0.9-0.2V5.1h7.5v0.4l-0.9,0.2
		c-1,0.2-1.2,0.4-1.2,2.2v9c0,1.8,0.2,2,1.2,2.2l0.9,0.2v0.4H52.2"/>
	<path class="st4" d="M65.1,19.7v-0.4l0.9-0.2c1-0.2,1.2-0.4,1.2-2.2v-9c0-1.8-0.2-2-1.2-2.2l-0.9-0.2V5.1h12.1v3h-0.5l-0.3-1
		c-0.2-0.8-0.8-1-3.6-1h-2.2v5.4h2.2c2.3,0,2.6-0.1,2.9-0.8l0.3-0.8h0.4v4.3h-0.4l-0.3-0.9c-0.2-0.8-0.6-0.8-2.9-0.8h-2.2v4
		c0,2,0.3,2.2,1.4,2.2h1.5c2.6,0,3.3-0.3,3.8-1.2l0.5-1l0.5,0.1l-0.7,3.1H65.1"/>
	<path class="st4" d="M83,19.7v-0.4l0.9-0.2c1-0.2,1.2-0.4,1.2-2.2v-9c0-1.8-0.2-2-1.2-2.2L83,5.5V5.1h8v0.4l-1.3,0.2
		c-1,0.2-1.2,0.4-1.2,2.2v8.6c0,2,0.3,2.2,1.4,2.2h1.2c2.6,0,3.4-0.3,3.8-1.2l0.6-1.4l0.6,0.1l-0.8,3.5H83"/>
	<path class="st4" d="M100.3,19.7v-0.4l0.9-0.2c1-0.2,1.2-0.4,1.2-2.2v-9c0-1.8-0.2-2-1.2-2.2l-0.9-0.2V5.1h7.5v0.4l-0.9,0.2
		c-1,0.2-1.2,0.4-1.2,2.2v9c0,1.8,0.2,2,1.2,2.2l0.9,0.2v0.4H100.3"/>
	<path class="st4" d="M121.9,19.7v-0.4l1-0.2c0.9-0.2,1.1-0.5,0.4-2.2l-0.9-2.2h-6l-0.7,1.6c-0.9,2.1-0.8,2.6,0.2,2.8l1,0.2v0.4
		h-5.4v-0.4l0.6-0.2c0.8-0.3,1-0.5,1.9-2.5l4.7-10.1c0.3-0.7,0.3-0.9,0-1.5l0-0.1h3l5.1,12c0.7,1.7,1,2,1.7,2.2l0.6,0.2v0.4H121.9
		 M120.4,9.5c-0.3-0.8-0.7-1.7-0.7-2.1h-0.1c-0.1,0.4-0.5,1.4-0.9,2.2l-1.8,4.1h5.2L120.4,9.5z"/>
	<path class="st4" d="M13.2,0.1C6.3,0.1,0.8,5.7,0.8,12.5s5.6,12.4,12.4,12.4c6.8,0,12.4-5.6,12.4-12.4S20,0.1,13.2,0.1 M20.1,20.2
		c-1.7,0.2-3.4,0.1-5-0.4c0.8-0.6,1.5-1.2,2-2c1.8,0.2,3.5,0,5.2-0.5C21.7,18.4,21,19.4,20.1,20.2z M14.4,22.8L14.4,22.8
		c-0.2,0-0.4,0-0.5,0l-0.1,0c-0.1,0-0.3,0-0.4,0l-0.2,0c-1.5,0-2.9-0.3-4.2-0.9l-0.1,0l-0.2-0.1c0.1,0,0.9,0,2-0.2
		c0.8-0.2,1.6-0.4,2.4-0.8c0.8,0.3,1.6,0.6,2.4,0.8c1.2,0.2,2.1,0.2,2.1,0.2c-0.1,0-0.2,0.1-0.3,0.1l0,0
		C16.5,22.4,15.4,22.7,14.4,22.8z M4,17.4c1.7,0.5,3.5,0.6,5.2,0.4c0.5,0.7,1.1,1.4,2,2c-1.6,0.5-3.3,0.6-4.9,0.4
		C5.4,19.4,4.6,18.4,4,17.4z M2.8,12.5c0-1,0.1-1.9,0.4-2.8c1.6-0.7,3.5-1,5.3-0.9c-0.4,1.2-0.3,2.5,0.2,3.7
		c-0.5,1.2-0.5,2.5-0.2,3.7c-1.8,0.1-3.6-0.2-5.3-0.9C2.9,14.4,2.8,13.5,2.8,12.5z M6.3,4.8c1.6-0.2,3.3-0.1,4.9,0.4
		c-0.8,0.6-1.5,1.3-2,2C7.5,7,5.7,7.2,4,7.6C4.6,6.6,5.4,5.6,6.3,4.8z M8.9,3.1L8.9,3.1L8.9,3.1c0.3-0.2,0.6-0.3,0.9-0.3l0.1,0
		c0.1,0,0.3-0.1,0.4-0.1l0.2-0.1c0.1,0,0.2-0.1,0.3-0.1c0.1,0,0.2,0,0.2-0.1c0.1,0,0.2,0,0.3-0.1c0.1,0,0.2,0,0.3-0.1
		c0.1,0,0.1,0,0.2,0c0.1,0,0.2,0,0.3,0l0.2,0c0.1,0,0.2,0,0.4,0l0.2,0c0.1,0,0.3,0,0.4,0c0.1,0,0.2,0,0.3,0c0.1,0,0.2,0,0.2,0
		c0.1,0,0.2,0,0.4,0l0.2,0c0.1,0,0.3,0,0.4,0.1l0.1,0c0.2,0,0.3,0.1,0.4,0.1l0.1,0c0.1,0,0.3,0.1,0.4,0.1l0.1,0
		c0.1,0,0.3,0.1,0.4,0.1l0.2,0.1c0.1,0,0.2,0.1,0.3,0.1c0.3,0.1,0.5,0.2,0.8,0.3l0,0c0.1,0,0.2,0.1,0.3,0.1c0,0-0.9,0-2,0.2
		c-0.8,0.2-1.6,0.4-2.4,0.8c-0.8-0.3-1.6-0.6-2.4-0.8c-1.1-0.2-1.9-0.2-2-0.2L8.9,3.1z M22.3,7.7c-1.7-0.5-3.5-0.6-5.2-0.5
		c-0.5-0.8-1.2-1.5-2-2c1.6-0.5,3.3-0.6,5-0.4C21,5.6,21.7,6.6,22.3,7.7z M16.4,10.4L16.4,10.4C16,10,15.6,9.7,15.1,9.3
		c0.3-0.1,0.7-0.2,1.1-0.3C16.3,9.5,16.4,9.9,16.4,10.4z M16.4,14.6c0,0.5-0.1,1-0.3,1.4c-0.4-0.1-0.7-0.2-1.1-0.3
		C15.6,15.4,16,15,16.4,14.6L16.4,14.6z M13.5,18.9c-0.1,0.1-0.2,0.1-0.3,0.2c-0.1,0-0.2-0.1-0.3-0.1c-0.7-0.4-1.3-0.9-1.8-1.4
		c0.7-0.2,1.4-0.4,2.1-0.7c0.7,0.3,1.4,0.5,2.1,0.7C14.7,18,14.1,18.5,13.5,18.9z M9.9,14.5c0.4,0.4,0.8,0.8,1.3,1.2
		c-0.3,0.1-0.7,0.2-1.1,0.3C10,15.5,9.9,15,9.9,14.5z M10.2,9c0.4,0.1,0.7,0.2,1.1,0.3c-0.5,0.4-0.9,0.7-1.3,1.2
		C9.9,10,10,9.5,10.2,9z M12.9,6.1C13,6,13.1,6,13.2,6c0.1,0.1,0.2,0.1,0.3,0.2c0.6,0.4,1.3,0.9,1.8,1.4c-0.7,0.2-1.4,0.4-2.1,0.7
		c-0.7-0.3-1.4-0.5-2.1-0.7C11.5,7,12.1,6.5,12.9,6.1z M13.5,10.2c1,0.5,1.8,1.3,2.4,2.3c-0.6,0.9-1.4,1.7-2.4,2.3
		c-0.1,0.1-0.2,0.1-0.3,0.2c-0.1,0-0.2-0.1-0.3-0.1c-1.1-0.6-1.9-1.4-2.4-2.3c0.5-0.8,1.3-1.6,2.4-2.3c0.1-0.1,0.2-0.1,0.3-0.1
		C13.3,10.1,13.4,10.2,13.5,10.2z M17.9,16.2c0.2-0.5,0.3-1,0.3-1.6c0-0.7-0.2-1.4-0.4-2.1c0.3-0.6,0.4-1.3,0.4-2.1
		c0-0.6-0.1-1.1-0.3-1.6c1.8-0.1,3.6,0.2,5.3,0.9c0.2,0.9,0.4,1.8,0.4,2.8c0,1-0.1,1.9-0.4,2.8C21.5,16,19.7,16.3,17.9,16.2z"/>
	<g>
		<path d="M145.7,12.6c-0.9-0.5-2.5-1.2-3.6-1.6l0.4-0.7c1.3,0.4,2.7,1.1,3.6,1.6L145.7,12.6z M152.6,10.9c-1.8,3-5.6,5.9-9.3,7
			l-0.4-0.8c3.6-0.9,7.4-3.8,9.2-6.8L152.6,10.9z M147,9.7c-0.9-0.6-2.4-1.3-3.5-1.7l0.4-0.7c1.3,0.5,2.6,1.2,3.5,1.7L147,9.7z"/>
		<path d="M165.4,16.3v0.8h-10.9v-0.8h4.9v-7h-3.9V8.5h8.8v0.8h-4.1v7H165.4z"/>
		<path d="M168.9,7.1h0.8v6.4h-0.8V7.1z M176.2,6.9v5c0,2.8-1.4,4.9-4.4,6.1l-0.5-0.7c2.9-1.1,4-2.9,4-5.4v-5H176.2z"/>
		<path d="M191.1,8.1c-0.9,1.3-2.4,3.2-3.6,4.4l-0.7-0.5c1-1,2.4-2.7,3-3.6h-9.5V7.7h10.1L191.1,8.1z M185,9.7h0.8
			c0,4-0.4,6.3-3.8,8.3l-0.6-0.6C184.7,15.7,185,13.6,185,9.7z"/>
		<path d="M198,13.7c-0.3-0.6-0.8-1.5-1.4-2.3v7h-0.8v-6.8c-0.5,1.6-1.2,3.1-1.9,4l-0.5-0.5c0.9-1.2,1.9-3.3,2.4-5.4h-2.1V9.1h2.2
			V6.2h0.8v2.9h1.9v0.7h-1.9v0.7c0.7,0.9,1.4,1.9,1.9,2.6L198,13.7z M197.9,11.2c1.2-1.2,2.1-2.9,2.4-4.8l0.7,0.2
			c-0.4,1.9-1.3,3.7-2.5,4.9L197.9,11.2z M203.3,13.4c1.2,1.7,2,3.4,2.5,4.8l-0.8,0.3c-0.1-0.5-0.3-1-0.6-1.5
			c-1.9,0.3-4.7,0.6-6.3,0.8L198,17l1.3-0.1c0.7-2.1,1.3-4.5,1.7-6.1l0.8,0.2c-0.4,1.6-1,3.8-1.7,5.8c1.4-0.1,2.9-0.3,4.1-0.5
			c-0.4-0.9-0.9-1.7-1.5-2.7L203.3,13.4z M202.8,6.6l0.7-0.3c0.5,2,1.5,3.6,2.5,4.5l-0.6,0.6C204.4,10.5,203.4,8.8,202.8,6.6z"/>
		<path d="M219.3,9.2v9.1h-0.8v-1h-8.9v1h-0.8V9.2h0.8v7.4h3.9V6.3h0.8v10.3h4.1V9.2H219.3z"/>
		<path d="M228.6,8.8v1.7h4.4v5.4c0,0.8-0.3,1-1.2,1c-0.5,0-1.1,0-1.5,0l-0.1-0.7c0.4,0,1,0,1.4,0c0.5,0,0.6-0.1,0.6-0.4v-4.6h-3.7
			v7.3h-0.8v-7.3h-3.6v5.9h-0.8v-6.6h4.3V8.8h-5.7V8.1h5.7V6.2h0.8v1.9h5.8v0.7H228.6z"/>
		<path d="M237.1,14l0.5,0.1c-0.1,1.1-0.4,2.3-0.7,3.1l-0.5-0.2C236.8,16.2,237,15,237.1,14z M240.6,18.4c-0.3,0-0.8,0-1.1,0
			l-0.1-0.6c0.3,0,0.8,0,1.1,0c0.4,0,0.6-0.1,0.8-2.3l-0.3,0.1c-0.1-0.6-0.4-1.1-0.8-1.8l0.3-0.2c0.3,0.6,0.6,1.1,0.8,1.6l0.1-2.2
			h-4.3V6.6h5v0.6h-2v1.3h1.7v0.6h-1.7v1.3h1.7V11h-1.7v1.4h2C241.9,18.1,241.6,18.4,240.6,18.4z M237.8,7.2v1.3h1.5V7.2H237.8z
			 M239.4,9.1h-1.5v1.3h1.5V9.1z M237.8,12.4h1.5V11h-1.5V12.4z M238.5,14c0.2,1,0.3,1.9,0.3,2.7l-0.5,0c0-0.8,0-1.6-0.2-2.6
			L238.5,14z M239.7,16.2c-0.1-0.7-0.2-1.4-0.5-2.3l0.4-0.1c0.3,0.8,0.5,1.6,0.6,2.3L239.7,16.2z M249,17.9l-0.6,0.6
			c-1.5-1.2-2.5-3.5-3-7h-1.7v0.9c0,2.3-0.3,4.4-1.4,6.1l-0.6-0.4c1-1.6,1.3-3.5,1.3-5.7V6.6h5.3v4.8h-2.2
			C246.6,14.7,247.6,16.8,249,17.9z M243.8,10.7h3.8V7.3h-3.8V10.7z"/>
	</g>
</g>
</svg>
