<?xml version="1.0" encoding="utf-8"?>
<!-- Generator: Adobe Illustrator 25.2.1, SVG Export Plug-In . SVG Version: 6.00 Build 0)  -->
<svg version="1.1" id="レイヤー_1" xmlns="http://www.w3.org/2000/svg" xmlns:xlink="http://www.w3.org/1999/xlink" x="0px"
	 y="0px" viewBox="0 0 385.4 50.7" style="enable-background:new 0 0 385.4 50.7;" xml:space="preserve">
<style type="text/css">
	.st0{fill:#0B308E;}
</style>
<g>
	<path class="st0" d="M63.5,37.1c-8.3,0-14.3-4.1-14.3-11.8c0-7.6,6-11.9,14.3-11.9c1.5,0,3.1,0.2,4.2,0.3c1.5,0.3,2,0.4,2.1-0.1
		l0.2-0.4h0.8v6.4h-0.9l-0.5-1.9c-0.5-1.8-3.2-2.9-6.1-2.9c-6.3,0-8.5,5.2-8.5,9.9c0,5.6,3,10.8,9.6,10.8c2.7,0,5.1-0.9,6-2.7
		l0.9-1.7l0.8,0.2L71,36C69.3,36.6,66.4,37.1,63.5,37.1"/>
	<path class="st0" d="M79.8,36.6V36l1.4-0.3c1.5-0.4,1.8-0.6,1.8-3.4V18.4c0-2.8-0.3-3-1.8-3.4l-1.4-0.3V14h11.6v0.6l-1.4,0.3
		c-1.5,0.4-1.8,0.6-1.8,3.4v13.9c0,2.8,0.3,3,1.8,3.4l1.4,0.3v0.6H79.8"/>
	<path class="st0" d="M99.7,36.6V36l1.4-0.3c1.5-0.4,1.8-0.6,1.8-3.4V18.4c0-2.8-0.3-3-1.8-3.4l-1.4-0.3V14h18.6v4.6h-0.8l-0.5-1.5
		c-0.4-1.2-1.2-1.6-5.5-1.6h-3.4v8.4h3.5c3.5,0,4.1-0.1,4.5-1.3l0.4-1.2h0.7v6.7h-0.7l-0.5-1.4c-0.4-1.2-0.9-1.3-4.4-1.3h-3.5v6.2
		c0,3.1,0.5,3.4,2.1,3.4h2.3c4,0,5.1-0.5,5.8-1.9l0.8-1.6l0.8,0.2l-1.2,4.8H99.7"/>
	<path class="st0" d="M127.4,36.6V36l1.4-0.3c1.5-0.4,1.8-0.6,1.8-3.4V18.4c0-2.8-0.3-3-1.8-3.4l-1.4-0.3V14h12.4v0.6l-2.1,0.4
		c-1.6,0.3-1.9,0.6-1.9,3.4v13.3c0,3.1,0.5,3.4,2.1,3.4h1.9c4,0,5.2-0.5,5.8-1.9l1-2.2l1,0.2l-1.3,5.5H127.4"/>
	<path class="st0" d="M154.2,36.6V36l1.4-0.3c1.5-0.4,1.8-0.6,1.8-3.4V18.4c0-2.8-0.3-3-1.8-3.4l-1.4-0.3V14h11.6v0.6l-1.4,0.3
		c-1.5,0.4-1.8,0.6-1.8,3.4v13.9c0,2.8,0.3,3,1.8,3.4l1.4,0.3v0.6H154.2"/>
	<path class="st0" d="M187.6,36.6V36l1.6-0.3c1.5-0.3,1.7-0.7,0.7-3.4l-1.4-3.4h-9.3l-1,2.5c-1.4,3.2-1.3,4,0.3,4.4L180,36v0.6h-8.4
		V36l0.9-0.3c1.2-0.4,1.5-0.8,2.9-3.8l7.3-15.7c0.5-1.1,0.5-1.4,0-2.3l0.1-0.2h4.7l8,18.6c1.1,2.7,1.5,3,2.7,3.4l0.9,0.3v0.6H187.6
		 M185.3,20.8c-0.5-1.3-1-2.6-1.2-3.2H184c-0.2,0.6-0.8,2.1-1.4,3.4l-2.8,6.3h8L185.3,20.8z"/>
	<path class="st0" d="M19.5,6.3C8.9,6.3,0.3,14.9,0.3,25.5s8.6,19.2,19.2,19.2c10.6,0,19.2-8.6,19.2-19.2S30,6.3,19.5,6.3
		 M30.1,37.4c-2.6,0.3-5.2,0.1-7.7-0.6c1.2-0.9,2.3-1.9,3.1-3.1c2.7,0.3,5.5,0.1,8.1-0.7C32.7,34.7,31.5,36.2,30.1,37.4z M21.3,41.4
		L21.3,41.4c-0.3,0-0.6,0.1-0.8,0.1l-0.2,0c-0.2,0-0.4,0-0.6,0l-0.3,0c-2.3,0-4.5-0.5-6.5-1.4l-0.1,0l-0.3-0.1c0.2,0,1.5,0,3.1-0.2
		c1.3-0.3,2.5-0.7,3.8-1.2c1.2,0.5,2.5,0.9,3.7,1.2c1.8,0.3,3.2,0.2,3.2,0.2c-0.1,0.1-0.3,0.1-0.4,0.2l0,0
		C24.5,40.7,23,41.2,21.3,41.4z M5.3,33c2.6,0.7,5.3,1,8,0.7c0.8,1.1,1.8,2.2,3.1,3.1c-2.4,0.7-5.1,0.9-7.6,0.6
		C7.4,36.2,6.2,34.7,5.3,33z M3.5,25.5c0-1.5,0.2-3,0.6-4.3c2.5-1,5.3-1.5,8.1-1.3c-0.6,1.9-0.5,3.8,0.2,5.7
		c-0.7,1.8-0.8,3.8-0.2,5.7c-2.8,0.2-5.6-0.3-8.1-1.3C3.7,28.4,3.5,27,3.5,25.5z M8.8,13.5c2.5-0.3,5.2-0.1,7.6,0.6
		c-1.3,0.9-2.3,2-3.1,3.1c-2.7-0.3-5.4-0.1-8,0.7C6.2,16.3,7.4,14.8,8.8,13.5z M12.8,10.9l0.1-0.1l0,0c0.4-0.2,0.8-0.3,1.2-0.5
		l0.1,0c0.2-0.1,0.4-0.1,0.7-0.2l0.3-0.1c0.2,0,0.3-0.1,0.5-0.1c0.1,0,0.3-0.1,0.4-0.1c0.1,0,0.3-0.1,0.4-0.1c0.2,0,0.3-0.1,0.5-0.1
		c0.1,0,0.2,0,0.3,0c0.2,0,0.3,0,0.5-0.1l0.3,0c0.2,0,0.4,0,0.6,0l0.2,0c0.2,0,0.4,0,0.6,0c0.2,0,0.3,0,0.5,0c0.1,0,0.2,0,0.4,0
		c0.2,0,0.4,0,0.5,0l0.3,0c0.2,0,0.4,0.1,0.6,0.1l0.2,0c0.2,0,0.5,0.1,0.7,0.1l0.1,0c0.2,0,0.5,0.1,0.7,0.2l0.1,0
		c0.2,0.1,0.4,0.1,0.6,0.2l0.3,0.1c0.1,0,0.3,0.1,0.4,0.1c0.4,0.1,0.8,0.3,1.2,0.5l0,0c0.1,0.1,0.3,0.1,0.4,0.2c0,0-1.4-0.1-3.2,0.2
		c-1.3,0.3-2.5,0.7-3.8,1.2c-1.2-0.5-2.5-0.9-3.7-1.2c-1.7-0.3-3-0.2-3.1-0.2L12.8,10.9z M33.6,18c-2.6-0.8-5.4-1-8.1-0.7
		c-0.8-1.2-1.9-2.3-3.1-3.1c2.5-0.7,5.1-0.9,7.7-0.6C31.5,14.8,32.7,16.3,33.6,18z M24.5,22.3L24.5,22.3c-0.6-0.6-1.3-1.2-2.1-1.7
		c0.5-0.2,1.1-0.3,1.6-0.4C24.4,20.8,24.5,21.5,24.5,22.3z M24.5,28.7c0,0.8-0.2,1.5-0.4,2.2c-0.6-0.1-1.1-0.2-1.6-0.4
		C23.2,29.9,23.9,29.3,24.5,28.7L24.5,28.7z M19.9,35.3c-0.2,0.1-0.3,0.2-0.5,0.2c-0.1-0.1-0.3-0.1-0.4-0.2
		c-1.1-0.6-2.1-1.4-2.8-2.2c1.1-0.3,2.2-0.6,3.2-1.1c1,0.4,2.1,0.8,3.2,1.1C21.9,34,20.9,34.8,19.9,35.3z M14.4,28.6
		c0.6,0.6,1.3,1.2,2,1.8c-0.5,0.2-1.1,0.3-1.6,0.4C14.6,30.1,14.4,29.4,14.4,28.6z M14.8,20.1c0.6,0.1,1.1,0.2,1.6,0.4
		c-0.8,0.6-1.4,1.2-2,1.8C14.4,21.6,14.6,20.8,14.8,20.1z M19,15.6c0.1-0.1,0.3-0.1,0.4-0.2c0.2,0.1,0.3,0.2,0.5,0.2
		c1,0.6,1.9,1.3,2.7,2.2c-1.1,0.3-2.2,0.6-3.2,1.1c-1-0.5-2.1-0.8-3.2-1.1C17,17,17.9,16.2,19,15.6z M19.9,22c1.5,0.8,2.8,2,3.7,3.5
		c-0.9,1.4-2.2,2.6-3.7,3.5c-0.2,0.1-0.3,0.2-0.5,0.2c-0.1-0.1-0.3-0.1-0.4-0.2c-1.7-1-3-2.2-3.7-3.5c0.8-1.3,2-2.5,3.7-3.5
		c0.1-0.1,0.3-0.2,0.4-0.2C19.6,21.8,19.8,21.9,19.9,22z M26.7,31.1c0.2-0.8,0.4-1.6,0.4-2.5c0-1.1-0.2-2.2-0.6-3.2
		c0.4-1,0.6-2.1,0.6-3.2c0-0.9-0.1-1.7-0.4-2.5c2.8-0.2,5.6,0.3,8.2,1.4c0.4,1.4,0.6,2.8,0.6,4.3c0,1.5-0.2,2.9-0.6,4.3
		C32.4,30.8,29.5,31.3,26.7,31.1z"/>
	<g>
		<path d="M224.2,25.7c-1.4-0.8-3.8-1.9-5.6-2.5l0.6-1c2,0.7,4.2,1.7,5.6,2.5L224.2,25.7z M234.9,23.1c-2.8,4.7-8.7,9.2-14.4,10.8
			l-0.6-1.2c5.6-1.5,11.5-5.9,14.2-10.5L234.9,23.1z M226.4,21.1c-1.4-0.9-3.7-1.9-5.4-2.6l0.6-1c2,0.7,4.1,1.8,5.4,2.6L226.4,21.1z
			"/>
		<path d="M254.8,31.3v1.2H238v-1.2h7.6V20.5h-6.1v-1.2h13.6v1.2h-6.3v10.8H254.8z"/>
		<path d="M260.2,17.1h1.3V27h-1.3V17.1z M271.4,16.9v7.7c0,4.3-2.1,7.5-6.7,9.4l-0.8-1.1c4.5-1.8,6.3-4.6,6.3-8.4v-7.7H271.4z"/>
		<path d="M294.5,18.7c-1.4,2.1-3.7,4.9-5.5,6.8l-1.1-0.7c1.6-1.5,3.8-4.1,4.7-5.6h-14.7V18h15.6L294.5,18.7z M285,21.2h1.3
			c0,6.2-0.6,9.8-5.8,12.9l-1-0.9C284.5,30.4,285,27.2,285,21.2z"/>
		<path d="M305.1,27.3c-0.5-0.9-1.3-2.2-2.1-3.5v10.9h-1.2V24.2c-0.8,2.4-1.9,4.7-2.9,6.2l-0.8-0.8c1.4-1.9,2.9-5.2,3.6-8.3h-3.3
			v-1.1h3.4v-4.5h1.2v4.5h3v1.1h-3v1.1c1.1,1.4,2.2,3,2.9,4L305.1,27.3z M305,23.5c1.9-1.9,3.2-4.4,3.7-7.4l1.1,0.4
			c-0.6,3-2,5.7-3.9,7.6L305,23.5z M313.4,26.8c1.8,2.7,3.1,5.2,3.9,7.4l-1.2,0.5c-0.2-0.7-0.5-1.5-0.9-2.3c-2.9,0.4-7.3,1-9.7,1.3
			l-0.3-1.2l1.9-0.2c1.1-3.2,2.1-6.9,2.6-9.4l1.3,0.3c-0.6,2.5-1.6,5.9-2.6,8.9c2.1-0.2,4.5-0.5,6.4-0.7c-0.6-1.3-1.4-2.7-2.4-4.1
			L313.4,26.8z M312.6,16.4l1.1-0.4c0.7,3.1,2.3,5.6,3.9,7l-0.9,1C315,22.4,313.4,19.8,312.6,16.4z"/>
		<path d="M338.1,20.4v14.1h-1.2v-1.6h-13.7v1.6H322V20.4h1.2v11.4h6.1V15.9h1.2v15.8h6.4V20.4H338.1z"/>
		<path d="M352.4,19.7v2.6h6.9v8.3c0,1.3-0.5,1.6-1.9,1.6c-0.7,0-1.6,0-2.3,0l-0.2-1.1c0.6,0,1.5,0,2.2,0c0.7,0,1-0.1,1-0.6v-7.1
			h-5.7v11.3h-1.2V23.4h-5.5v9.1h-1.2V22.3h6.7v-2.6h-8.8v-1.1h8.8v-2.9h1.2v2.9h8.9v1.1H352.4z"/>
		<path d="M365.6,27.8l0.8,0.2c-0.2,1.6-0.6,3.6-1.1,4.8l-0.8-0.4C365.1,31.2,365.5,29.4,365.6,27.8z M370.9,34.5
			c-0.4,0-1.2,0-1.7,0l-0.1-1c0.5,0,1.2,0.1,1.7,0.1c0.6,0,0.9-0.1,1.2-3.6l-0.5,0.2c-0.2-0.9-0.6-1.8-1.2-2.8l0.5-0.2
			c0.5,0.9,0.9,1.7,1.2,2.5l0.2-3.4h-6.6v-9.9h7.7v1h-3.1v2h2.6v0.9h-2.6v2h2.6v0.9h-2.6v2.1h3.1C372.9,34.1,372.5,34.5,370.9,34.5z
			 M366.7,17.3v2h2.4v-2H366.7z M369.1,20.2h-2.4v2h2.4V20.2z M366.7,25.3h2.4v-2.1h-2.4V25.3z M367.7,27.8c0.3,1.5,0.4,2.9,0.4,4.1
			l-0.7,0c0-1.2-0.1-2.5-0.3-4.1L367.7,27.8z M369.6,31.2c-0.1-1-0.4-2.2-0.8-3.5l0.6-0.2c0.5,1.3,0.8,2.5,0.9,3.6L369.6,31.2z
			 M384,33.7l-0.9,0.9c-2.3-1.9-3.9-5.4-4.6-10.9h-2.6v1.4c0,3.6-0.5,6.9-2.1,9.5l-1-0.7c1.5-2.4,1.9-5.4,1.9-8.8v-8.9h8.2v7.5h-3.4
			C380.3,28.9,381.8,32.1,384,33.7z M375.9,22.7h5.9v-5.3h-5.9V22.7z"/>
	</g>
</g>
</svg>
