<?xml version="1.0" encoding="utf-8"?>
<!-- Generator: Adobe Illustrator 24.0.0, SVG Export Plug-In . SVG Version: 6.00 Build 0)  -->
<svg version="1.1" xmlns="http://www.w3.org/2000/svg" xmlns:xlink="http://www.w3.org/1999/xlink" x="0px" y="0px"
	 viewBox="0 0 70 40" style="enable-background:new 0 0 70 40;" xml:space="preserve">
<style type="text/css">
	.st0{fill:#181878;}
</style>
<g id="_x30_">
</g>
<g id="_x31_">
	<g>
		<g>
			<path class="st0" d="M44,0H33.5v7.2c0,0.8-0.6,1.4-1.4,1.4h-7.2v16.7c0,0.6,0.5,1.2,1.2,1.2h18c0.6,0,1.2-0.5,1.2-1.2V1.2
				C45.2,0.5,44.6,0,44,0z M41.6,22.5H28.4v-1.3h13.2V22.5z M41.6,17.4H28.4v-1.3h13.2V17.4z M41.6,12.3H28.4V11h13.2V12.3z
				 M41.6,7.2h-6.2V5.9h6.2V7.2z"/>
			<path class="st0" d="M32.1,6.4v-6l-7,7h6C31.9,7.3,32.1,7.1,32.1,6.4z"/>
		</g>
		<g>
			<path class="st0" d="M21.1,33.7c0,1.8-0.1,4.4-0.8,5.5c-0.4,0.7-1.1,0.8-1.7,0.9c-0.1-0.8-0.5-1.2-0.8-1.4l0-0.1
				c0.4,0.1,0.7,0.2,1.1,0.2c0.2,0,0.5,0,0.7-1c0.2-0.9,0.3-2.6,0.3-4.3h-0.3c-0.4,2.3-1.1,4.8-4.2,6.3l0-0.1
				c0.7-0.6,2.6-2.2,3.3-6.2h-0.3c-0.2,1-0.9,3.3-3.1,4.5l0-0.1c1.3-1.4,1.8-3.2,2.1-4.4h-0.3c-0.3,0.5-0.8,1.3-1.4,1.8l-0.1,0
				c0.3-0.7,0.5-1.2,0.6-1.6c0,0-0.1,0-0.1,0h-1.1v2.1c0.5-0.2,0.9-0.3,1.3-0.5l0.1,0.1c-0.2,0.2-0.5,0.4-1.4,1v1c0,0.1,0,2.2,0,2.3
				c0,0.2,0,0.7-0.7,0.7c-0.4,0-0.4-0.3-0.4-0.4c0-0.5,0-2.5,0.1-2.9c-0.6,0.3-0.8,0.4-1,0.5c0,0.1-0.1,0.3-0.2,0.3
				c-0.1,0-0.2-0.1-0.2-0.2l-0.6-1.2c0.5,0,0.9,0,2-0.3c0-0.4,0-1.3,0-2.1v-0.3h-0.7c-0.3,1.2-0.8,1.8-1,2.2l-0.1,0
				c0.3-1.1,0.3-3,0.3-3.2c0-0.4,0-0.7-0.1-1l1.2,0.4c0.1,0,0.2,0.1,0.2,0.2c0,0.1-0.1,0.2-0.3,0.3c0,0.4-0.1,0.7-0.2,1h0.6
				C14.2,32,14.2,31.7,14,31l1.3,0.3c0.1,0,0.2,0.1,0.2,0.1c0,0.1-0.2,0.2-0.3,0.3c0,0.1,0,0.1,0,0.2v1.4h0l0.3-0.6
				c0-0.1,0.1-0.1,0.1-0.1c0.1,0,0.1,0,0.2,0.1l0.5,0.6c0,0,0.1,0.1,0.1,0.1c0.2-0.7,0.4-1.5,0.4-2.3c0-0.1,0-0.2,0-0.2l1.3,0.5
				c0.1,0,0.2,0.1,0.2,0.2c0,0.1-0.3,0.2-0.4,0.2c-0.1,0.3-0.3,0.7-0.6,1.3h2.5l0.3-0.4c0.1-0.1,0.1-0.2,0.2-0.2
				c0.1,0,0.1,0,0.2,0.1l0.6,0.5c0.1,0.1,0.1,0.1,0.1,0.2C21.4,33.5,21.3,33.6,21.1,33.7z"/>
			<path class="st0" d="M26.9,32c-0.4,0.7-0.6,1.1-0.8,1.4l0.4,0.1c0.1,0,0.2,0.1,0.2,0.2c0,0.1,0,0.1-0.1,0.1c0,0-0.1,0.1-0.2,0.2
				c0,0.2,0,0.8,0,1.6c0,0.6,0,3.2,0,3.8c0,0.3,0,0.4-0.1,0.4c-0.1,0.1-0.4,0.3-0.6,0.3c-0.4,0-0.4-0.3-0.4-0.4
				c0-0.3,0.1-1.6,0.1-1.9c0-0.3,0-2,0-3.3c-0.7,0.9-1.1,1.2-1.4,1.4l-0.1-0.1c0.9-1.3,2-4,2-5l1.4,0.7c0,0,0.1,0.1,0.1,0.1
				C27.4,31.8,27.2,31.9,26.9,32z M33.1,36.4h-2.5c0,0.5,0,2.8,0,2.9c0,0.2,0,0.3-0.1,0.4c-0.1,0.2-0.3,0.3-0.6,0.3
				c-0.5,0-0.5-0.3-0.5-0.5c0-0.9,0-2.3,0-3.2H28c-0.6,0-0.8,0-1.1,0.1l-0.2-0.4c0.6,0.1,1.3,0.1,1.4,0.1h1.3c0-1.1,0-1.2,0-2.5
				h-1.3c-0.3,0.5-0.6,1.1-1.4,1.8l-0.1,0c0.5-0.9,1-3.3,1-3.4c0-0.1,0-0.4,0-0.5l1.3,0.6c0,0,0.1,0.1,0.1,0.2s-0.1,0.1-0.4,0.3
				c-0.3,0.5-0.4,0.8-0.5,0.9h1.2c0-0.4,0-1.3,0-1.6c0-0.3-0.1-0.7-0.2-0.9l1.4,0.3c0.1,0,0.2,0.1,0.2,0.1c0,0,0,0.1-0.1,0.2
				c0,0-0.3,0.2-0.3,0.2c0,0.3,0,1.5,0,1.7h0.5l0.5-0.7c0-0.1,0.1-0.1,0.1-0.1c0.1,0,0.1,0,0.2,0.1l0.9,0.7c0.1,0,0.1,0.1,0.1,0.2
				c0,0.1-0.1,0.1-0.1,0.1h-2.1c0,1.4,0,1.6,0,2.5h0.9l0.5-0.7c0.1-0.1,0.1-0.1,0.2-0.1c0.1,0,0.1,0.1,0.2,0.1l0.8,0.7
				c0.1,0.1,0.1,0.1,0.1,0.2C33.3,36.4,33.2,36.4,33.1,36.4z"/>
			<path class="st0" d="M44.4,39.6c-0.2,0.1-0.4,0.2-0.9,0.2c-1.1,0-1.1-0.1-1.1-1.5c0-0.3,0-1,0-1.7c-0.5,1-1.2,2.3-3,3.2l-0.1-0.1
				c0.3-0.3,1-0.9,1.6-1.9c-0.1,0.1-0.3,0.2-0.4,0.2c-0.2,0-0.3-0.1-0.4-0.2c0-0.1-0.1-0.5-0.1-0.6c-0.2,0.3-1,1.2-1.5,1.5
				c0,0.2,0,0.3-0.2,0.3c-0.1,0-0.1,0-0.1-0.1L37.7,38c0.3,0,0.3,0,0.8-0.2v-2c0,0.1-0.1,0.2-0.3,0.2c-0.3,0-0.3-0.2-0.4-0.6
				c0-0.2-0.1-0.4-0.2-0.5v0.8c0,0.3,0,3.8,0,3.9c0,0.3,0,0.6-0.6,0.6c-0.4,0-0.4-0.1-0.4-0.3c0-0.3,0.1-3.1,0.1-3.6
				c-0.3,0.6-0.7,1.1-1.2,1.6l-0.1,0c0.6-1.1,1.1-3,1.2-4.3c-0.5,0-0.7,0-0.9,0l-0.2-0.3c0.6,0,1.1,0,1.2,0c0-1.6-0.1-1.8-0.2-2.3
				l1.2,0.3c0.1,0,0.1,0.1,0.1,0.1c0,0.1-0.1,0.2-0.3,0.3v1.5h0l0.2-0.4c0-0.1,0.1-0.1,0.1-0.1c0.1,0,0.1,0,0.2,0.1l0.3,0.4
				c0,0,0,0,0,0.1v-0.9c0-0.3,0-0.5-0.1-1.1l0.9,0.4h0.6l0.2-0.2c0.1-0.1,0.1-0.1,0.1-0.1c0.1,0,0.1,0,0.1,0.1l0.5,0.4
				c0.5,0,0.9,0,1.4,0h0.9l0.3-0.5c0,0,0.1-0.1,0.2-0.1c0.1,0,0.1,0,0.2,0.1l0.5,0.5c0.1,0.1,0.1,0.1,0.1,0.2c0,0.1-0.1,0.1-0.1,0.1
				h-0.9c0,1-0.2,2-0.5,3h0.3l0.3-0.5c0,0,0.1-0.1,0.1-0.1c0.1,0,0.1,0.1,0.2,0.1l0.6,0.5c0,0,0.1,0.1,0.1,0.1
				c0,0.1-0.1,0.1-0.1,0.1H43l0,0.1l0.5,0.1c0.1,0,0.2,0,0.2,0.1c0,0.1-0.3,0.2-0.3,0.2c0,1.9,0,2.2,0,2.7c0,0.2,0,0.2,0.2,0.2
				c0.3,0,0.5-0.2,0.7-1.3h0.1c0,0.3,0.1,1.1,0.4,1.2c0.2,0.1,0.2,0.1,0.2,0.2C44.8,39.1,44.7,39.5,44.4,39.6z M38.4,33.5
				c0,0,0,0-0.1,0h-0.8v0.9c0.4,0.1,0.7,0.3,0.9,0.5C38.4,34.5,38.4,34,38.4,33.5z M39.9,31.9h-0.7v1.4h0.7V31.9z M39.9,33.6h-0.7
				v1.5h0.7V33.6z M41.9,35.3c-0.7,0-0.9,0-1.1,0.1l-0.1-0.2v0.2c0,0.4-0.4,0.5-0.5,0.5c-0.3,0-0.3-0.3-0.3-0.5h-0.7
				c0,0.3,0,1.9,0,2.1c0.2-0.1,0.5-0.2,0.8-0.4c-0.1-0.4-0.3-0.6-0.4-0.8l0-0.1c0.9,0.3,1.5,0.9,1.5,1.4c0,0.1,0,0.2-0.1,0.3
				c0.1-0.1,0.6-1,1-2.5H41.9z M41.2,32.1c-0.1,0-0.1,0-0.2,0l0,0c0,0-0.2,0.2-0.3,0.2c0,0.4,0,0.6,0,2.7c0.1,0,0.4,0,0.5,0V32.1z
				 M42,32.1v3h0.2c0.1-0.4,0.3-1.4,0.4-3H42z"/>
			<path class="st0" d="M56.1,36.5h-2.4l0.4,0.2c0,0,0.1,0.1,0.1,0.1c0,0.2-0.3,0.2-0.4,0.2c-0.2,0.3-0.4,0.6-0.8,1
				c0.6,0.1,1.2,0.4,1.6,0.6c0.4,0.2,0.7,0.4,0.7,0.8c0,0.3-0.3,0.6-0.6,0.6c-0.1,0-0.3,0-0.6-0.3c-0.5-0.3-0.9-0.7-1.7-1.1
				c-1.6,1.1-3.7,1.3-5,1.3V40c0.8-0.2,2.8-0.6,4.1-1.6c-0.1,0-0.6-0.2-1.2-0.3c-0.3,0.5-0.4,0.6-0.7,0.6c-0.3,0-0.6-0.2-0.6-0.3
				c0-0.1,0.1-0.2,0.2-0.3c0.3-0.5,0.5-0.8,0.9-1.4h-1.5c-0.6,0-0.8,0-1.1,0.1l-0.2-0.4c0.6,0.1,1.3,0.1,1.4,0.1h1.5
				c0.2-0.5,0.5-0.9,0.6-1.4h-1.5c0,0.2,0,0.6-0.7,0.6c-0.3,0-0.4-0.2-0.4-0.4c0-0.2,0-1,0-1.2c0-0.4,0-0.9-0.1-1.4l1.1,0.5h1v-1
				h-1.6c-0.6,0-0.8,0-1.1,0.1l-0.2-0.4c0.6,0.1,1.3,0.1,1.4,0.1h5.6l0.4-0.6c0-0.1,0.1-0.1,0.2-0.1c0.1,0,0.1,0,0.2,0.1l0.8,0.6
				c0,0,0.1,0.1,0.1,0.2C56.1,32,56,32,56,32h-2.8v1h1l0.3-0.4c0-0.1,0.1-0.1,0.2-0.1c0,0,0.1,0,0.2,0.1l0.7,0.5
				c0.1,0.1,0.1,0.1,0.1,0.2c0,0.1,0,0.1-0.3,0.3v0.6c0,0.1,0,0.5,0,0.7c0,0.5-0.5,0.5-0.6,0.5c-0.4,0-0.4-0.2-0.4-0.4h-2.7l0.5,0.2
				c0.1,0,0.2,0.1,0.2,0.2c0,0.1-0.2,0.2-0.4,0.2c-0.1,0.1-0.3,0.5-0.4,0.8h3.3l0.5-0.6c0-0.1,0.1-0.1,0.2-0.1c0.1,0,0.1,0,0.2,0.1
				l0.7,0.6c0.1,0,0.1,0.1,0.1,0.2C56.3,36.5,56.2,36.5,56.1,36.5z M50.3,33.2h-1v1.4h1V33.2z M51.2,36.5l-0.8,1.3
				c0.7,0,1.1,0.1,1.5,0.1c0.6-0.6,0.8-1.1,0.9-1.4H51.2z M52.2,32h-1v1h1V32z M52.2,33.2h-1v1.4h1V33.2z M54.2,33.2h-1v1.4h1V33.2z
				"/>
		</g>
	</g>
</g>
</svg>
