<?xml version="1.0" encoding="utf-8"?>
<!-- Generator: Adobe Illustrator 24.0.0, SVG Export Plug-In . SVG Version: 6.00 Build 0)  -->
<svg version="1.1" xmlns="http://www.w3.org/2000/svg" xmlns:xlink="http://www.w3.org/1999/xlink" x="0px" y="0px"
	 viewBox="0 0 70 40" style="enable-background:new 0 0 70 40;" xml:space="preserve">
<style type="text/css">
	.st0{fill:#181878;}
</style>
<g id="_x30_">
</g>
<g id="_x31_">
	<g>
		<path class="st0" d="M45.7,21.3c-1.1-0.9-4.5-2.6-5.4-2.8c-0.8-0.2-1.9,0.6-2.1,1.6c-0.3,1-0.8,0.9-0.8,0.9s-2-0.7-5.8-4.5
			c-3.7-3.7-4.5-5.7-4.5-5.7S27,10.4,28,10.1c1-0.3,1.8-1.3,1.6-2.2c-0.2-0.8-1.9-4.3-2.8-5.4c-0.9-1.1-2.6-0.5-3-0.3
			c-0.4,0.3-4.3,2.8-3.1,7.4c1.2,4.6,3.8,8.4,6.6,11.2c2.8,2.8,6.5,5.4,11.2,6.5c4.6,1.2,7.2-2.8,7.4-3.2
			C46.2,23.9,46.8,22.2,45.7,21.3z"/>
		<path class="st0" d="M35.5,9.8c0.5,0.3,1.3,0.7,2.3,1.7c0.9,0.9,1.4,1.8,1.7,2.3c0.3,0.5,0.5,0.6,0.6,0.6c0.3-0.1,0.3-0.1,0.4-0.7
			c0-0.5-0.2-1.8-1.6-3.3C37.4,9,36,8.8,35.6,8.8c-0.5,0-0.6,0.1-0.7,0.4C34.9,9.4,35,9.5,35.5,9.8z"/>
		<path class="st0" d="M36.3,4.4c-0.7,0-0.8,0.4-0.9,0.6c0,0.3,0.2,0.6,0.7,0.7c0.6,0.2,2.8,0.9,4.7,2.8c1.9,1.9,2.6,4.1,2.8,4.7
			c0.1,0.5,0.4,0.7,0.7,0.7c0.2,0,0.6-0.2,0.6-0.9c0-0.5-0.3-3.3-2.8-5.8C39.6,4.7,36.9,4.4,36.3,4.4z"/>
		<path class="st0" d="M45.4,3.9c-3.6-3.6-7.3-3.9-8-3.9c-0.8,0-1.1,0.3-1.1,0.7c0,0.3,0.3,0.6,0.8,0.7c0.7,0.2,3.5,0.6,6.8,3.9
			c3.3,3.3,3.7,6.1,3.9,6.8c0.1,0.5,0.4,0.8,0.7,0.8c0.4,0,0.7-0.3,0.7-1.1C49.2,11.2,48.9,7.4,45.4,3.9z"/>
		<g>
			<path class="st0" d="M10,39.1c-0.2,0-1.6,0-2-1.8H8c0.3,0.5,0.7,1,1.5,1c0.8,0,1.3-0.5,1.3-1.3c0-1-0.8-1.3-1.4-1.3
				c-0.8,0-1.6,0.3-2.3,0.7c0,0.3,0.1,1.9,0.1,2c0,0.8-0.4,1.2-0.6,1.2c-0.2,0-0.4-0.4-0.5-0.6c-0.2-0.4-0.4-0.7-0.8-0.9
				c-0.1,0.1-0.2,0.3-0.3,0.4c-0.1,0.2-0.2,0.3-0.4,0.3c-0.4,0-0.7-0.5-0.7-0.9c0-0.1,0-0.4,0.3-0.7c0,0.1,0.1,0.3,0.1,0.4
				c0,0,0.1,0.1,0.2,0.1c0.1,0,0.1,0,0.3-0.1c0.6-0.4,1.3-0.9,1.7-1.1v-1.7c-0.2,0.1-0.5,0.2-0.8,0.2c-0.5,0-1-0.3-1.1-1
				c0.3,0.2,0.4,0.3,0.8,0.3c0.2,0,0.5,0,1.2-0.2c0-0.4,0-1.5-0.1-1.7c-0.1-0.3-0.3-0.3-0.7-0.5c0.2-0.2,0.5-0.3,0.8-0.3
				c0.3,0,1.2,0.3,1.2,0.7c0,0.1-0.1,0.3-0.1,0.3c-0.2,0.5-0.2,0.5-0.3,1.2c0.2-0.1,0.3-0.1,0.4-0.3C7.9,33.1,8,33,8.2,33
				c0.3,0,0.6,0.2,0.6,0.4c0,0.3-0.2,0.4-0.8,0.6c-0.1,0.1-0.4,0.2-0.9,0.3c0,0.7,0,1.1,0,1.6c1.3-0.6,2.3-0.8,2.7-0.8
				c1,0,2.1,0.5,2.1,1.8C11.9,38.2,11.1,39.1,10,39.1z M6.4,36.9c-0.3,0.2-0.9,0.9-1.1,1.2c0.3,0.1,0.8,0.4,1,0.4
				c0.1,0,0.1,0,0.1-0.3C6.5,38,6.4,37.1,6.4,36.9z M11.7,34.6c-0.1,0-0.2,0-0.5-0.2c-0.1-0.1-0.4-0.1-0.4-0.1c-0.2,0-0.3,0-0.8,0.1
				v0c0.8-0.5,0.8-0.5,0.8-0.7c0-0.2-0.4-0.6-1.3-0.7c0.3-0.2,0.6-0.3,1-0.3c1,0,1.6,0.7,1.6,1.3C12.2,34.5,11.8,34.6,11.7,34.6z"/>
			<path class="st0" d="M17.3,31.6l0.3-0.4c0.1-0.1,0.1-0.1,0.2-0.1c0,0,0.1,0,0.1,0.1l0.6,0.6c0,0,0.1,0.1,0.1,0.1
				c0,0.1,0,0.1-0.3,0.3c0,0.4,0,2,0,2.4c0,0.4-0.4,0.5-0.7,0.5c-0.3,0-0.3-0.2-0.3-0.5h-1.5V36c0,0.6,0,3,0,3.5
				c0,0.2,0,0.3-0.1,0.4c-0.1,0.1-0.3,0.3-0.6,0.3c-0.1,0-0.4,0-0.4-0.4c0-0.1,0-0.8,0-0.9c0-0.6,0-1.5,0-3.2c0-3.6,0-4-0.1-4.6
				l1.2,0.5H17.3z M15.9,31.8v1.1h1.5v-1.1H15.9z M15.9,33.2v1.2h1.5v-1.2H15.9z M19.5,35.9l0.2-0.3c0-0.1,0.1-0.2,0.2-0.2
				s0.1,0,0.2,0.1l0.6,0.5c0.1,0,0.1,0.1,0.1,0.1c0,0.1-0.2,0.3-0.3,0.3c0,0.3,0,1.5,0,1.8c0,0.5-0.5,0.5-0.6,0.5
				c-0.4,0-0.4-0.2-0.4-0.5H18c0,0,0,0.4,0,0.5c-0.1,0.2-0.4,0.3-0.6,0.3c-0.3,0-0.3-0.2-0.3-0.4c0-0.2,0-1.3,0-1.5
				c0-0.9,0-1.2-0.1-1.6l1.2,0.4H19.5z M18,36.1v1.8h1.6v-1.8H18z M21.7,31.6l0.3-0.4c0.1-0.1,0.1-0.1,0.2-0.1c0,0,0.1,0,0.1,0.1
				l0.7,0.6c0,0,0.1,0.1,0.1,0.2c0,0.1,0,0.2-0.4,0.4c0,1.5,0,2.5,0,3.3c0,0.5,0,3.2,0,3.2c0,0.6,0,1.1-1.4,1.4
				c-0.1-0.4-0.1-0.8-0.9-1.3l0-0.1c0.3,0,0.6,0,0.9,0s0.3-0.1,0.3-0.3v-3.9h-1.6c0,0.3-0.3,0.5-0.6,0.5c-0.3,0-0.3-0.3-0.3-0.4
				c0-0.3,0-1.6,0-1.8c0-1.2,0-1.3-0.1-1.8l1.2,0.5H21.7z M20.2,31.8v1.1h1.6v-1.1H20.2z M20.2,33.2v1.2h1.6v-1.2H20.2z"/>
			<path class="st0" d="M28.6,37.4c0,0.1-0.1,0.2-0.1,0.3c0,0.1,0.1,0.6,0.1,0.7c0,0.3-0.2,0.5-0.5,0.5c-0.5,0-1.9-0.7-2-3.5
				c0-0.2,0-1.2-0.1-1.4c-0.1-0.7-0.2-0.9-0.4-1.4c0.7,0.1,1.6,0.5,1.6,1.3c0,0.1,0,0.2,0,0.3c-0.1,0.6-0.3,1.1-0.3,1.7
				c0,0.9,0.4,1.6,0.6,1.6c0.1,0,0.4-0.3,0.5-0.5c0.3-0.4,1.1-1.5,1.3-1.8l0.1,0C29.4,35.2,28.6,37.4,28.6,37.4z M33.2,37.2
				c-0.2,0-0.2-0.1-0.6-0.5c-0.3-0.3-1.1-0.4-1.3-0.5v-0.1c0.1,0,1-0.1,1.1-0.1c0.1,0,0.2-0.1,0.2-0.3c0-0.2-0.1-0.8-0.5-1.4
				c-0.3-0.6-0.8-1-1.1-1.2c1.3,0,2.8,1.5,2.8,3C33.8,36.8,33.5,37.2,33.2,37.2z"/>
			<path class="st0" d="M44.4,35.5c-1.7-0.8-3-2.3-3.5-3.6c-0.9,1.5-2.8,3.3-4.9,4l0-0.1c2.7-1.9,3.8-4.2,3.9-4.8l1.2,0.5
				c0.1,0,0.2,0.1,0.2,0.1c0,0.1-0.1,0.2-0.3,0.2c0.9,1.2,2.6,2.3,4.4,2.5v0.1C45.1,34.5,44.7,34.8,44.4,35.5z M43.4,37
				c0,0.2,0,0.8,0,1.2c0,0.4,0,1.1,0,1.1c0,0.2,0,0.3-0.1,0.4C43.1,40,42.8,40,42.7,40c-0.4,0-0.4-0.1-0.3-0.6H39
				c0,0.2,0,0.7-0.7,0.7c-0.4,0-0.4-0.2-0.4-0.4c0-0.1,0-0.8,0-0.9c0-0.3,0-0.8,0-1.3c0-1,0-1.4-0.1-1.7l1.3,0.6h3.1l0.3-0.4
				c0.1-0.1,0.1-0.1,0.2-0.1s0.1,0,0.2,0.1l0.7,0.5c0.1,0.1,0.1,0.1,0.1,0.2C43.8,36.8,43.7,36.8,43.4,37z M42.7,35.1h-3
				c-0.6,0-0.8,0-1.1,0.1l-0.2-0.4c0.6,0,1.3,0.1,1.4,0.1h1.5l0.4-0.6c0-0.1,0.1-0.1,0.1-0.1s0.1,0.1,0.2,0.1l0.7,0.6
				c0.1,0,0.1,0.1,0.1,0.2C42.8,35.1,42.7,35.1,42.7,35.1z M42.4,36.7H39v2.5h3.4V36.7z"/>
			<path class="st0" d="M51,38.8L51,38.8c2.3-0.5,3.5-1.8,3.5-3.1c0-1.2-1-1.5-1.4-1.5c-0.9,0-2,0.5-3,1.4c0,0.1,0,0.4,0,0.7
				c0,0.3,0.1,1.9,0.1,2c0,0.6-0.2,1.2-0.6,1.2c-0.3,0-0.3-0.3-0.4-0.5c0-0.4-0.2-0.9-0.4-1.3l0,0c0.3,0.2,0.4,0.3,0.5,0.3
				c0.1,0,0.1-0.1,0.1-0.2c0-0.3,0-1.4,0-1.6c-0.5,0.5-0.8,1.2-1.2,1.8c-0.3,0.5-0.4,0.5-0.5,0.5c-0.3,0-0.3-0.4-0.3-0.6
				c0-0.4,0.2-0.6,0.5-0.9c0.4-0.5,1.2-1.6,1.5-2.3c0-0.1,0-0.4,0-0.5c-0.2,0-1.1,0.7-1.3,0.7c-0.4,0-0.7-0.5-0.7-1
				c0-0.3,0.1-0.4,0.1-0.5c0.1,0.2,0.3,0.5,0.7,0.5c0.4,0,1-0.3,1.2-0.4c0-0.2,0.1-1,0.1-1.2c0-0.3-0.1-0.6-0.8-0.8
				c0.1-0.1,0.3-0.3,0.7-0.3c0.6,0,1.2,0.4,1.2,0.7c0,0.1-0.1,0.2-0.1,0.4c-0.2,0.4-0.3,0.5-0.3,0.8c0.2,0.1,0.7,0.2,0.7,0.4
				c0,0.2-0.3,0.5-0.4,0.7c-0.2,0.2-0.4,0.4-0.5,0.7c0,0,0,0.2,0,0.2c1.4-1.2,2.5-1.5,3.4-1.5c0.9,0,2.1,0.6,2.1,2.1
				C55.6,38,53.3,38.9,51,38.8z"/>
			<path class="st0" d="M66.5,34.5c-0.2,0-0.9,0-1,0c-0.2,0-0.6,0-1.1,0c-0.1,1.7-0.3,3-1.1,3c-0.2,0-0.3-0.1-0.4-0.3
				c-0.2-0.5-0.2-0.5-1-1.1l0-0.1c0.3,0.1,0.8,0.2,1.1,0.2c0.1,0,0.3,0,0.4-0.4c0.1-0.3,0.1-0.9,0.1-1.2c-1.3,0.2-2,0.4-2.3,0.5
				c0,0.2,0,0.5,0,1.2c0,1.5,0.1,2,1.3,2c1.1,0,1.4-0.1,2.2-0.2c0.1,0,0.2,0,0.3,0c0.4,0,0.8,0.4,0.8,0.7c0,0.2-0.1,0.3-0.3,0.3
				c-0.3,0.1-1.3,0.1-1.5,0.1c-0.5,0-2,0-2.7-0.5c-0.7-0.4-0.9-1.2-0.8-3.4c-0.4,0.2-0.9,0.3-1.3,0.5c-0.2,0.2-0.3,0.2-0.4,0.2
				c-0.4,0-0.9-0.5-0.9-1.2c0-0.2,0.1-0.4,0.1-0.5c0.2,0.3,0.4,0.5,0.8,0.5c0.2,0,0.4,0,1.7-0.3c0-1.5-0.1-1.6-0.8-1.8
				c0.1-0.1,0.3-0.3,0.7-0.3c0.4,0,1.1,0.3,1.1,0.7c0,0-0.1,0.3-0.1,0.4c0,0.1-0.1,0.3-0.1,0.8c0.9-0.2,1.1-0.2,2.3-0.5
				c0-0.4,0.1-1.7-0.2-2c-0.1-0.1-0.2-0.3-0.8-0.4c0.3-0.3,0.7-0.4,0.9-0.4c0.4,0,1.1,0.3,1.1,0.8c0,0.1-0.1,0.4-0.1,0.5
				c0,0.1-0.1,0.5-0.1,1.2c0.2,0,0.8-0.2,0.9-0.2c0.2-0.1,0.4-0.2,0.6-0.2c0.3,0,1.1,0.2,1.1,0.6C67.1,34.5,66.7,34.5,66.5,34.5z"/>
		</g>
	</g>
</g>
</svg>
