<?xml version="1.0" encoding="utf-8"?>
<!-- Generator: Adobe Illustrator 24.0.0, SVG Export Plug-In . SVG Version: 6.00 Build 0)  -->
<svg version="1.1" xmlns="http://www.w3.org/2000/svg" xmlns:xlink="http://www.w3.org/1999/xlink" x="0px" y="0px"
	 viewBox="0 0 70 40" style="enable-background:new 0 0 70 40;" xml:space="preserve">
<style type="text/css">
	.st0{fill:#181878;}
</style>
<g id="_x30_">
</g>
<g id="_x31_">
	<g>
		<g>
			<polygon class="st0" points="50.3,16.1 50.3,22.2 43.1,14.9 50.3,7.7 			"/>
			<path class="st0" d="M41.2,15l-2.9,2.9c-0.5,0.5-1.3,0.8-2,0.8c-0.8,0-1.5-0.3-2-0.8l-12-12c0.1-0.8,0.8-1.4,1.7-1.4h24.7
				c0.8,0,1.5,0.6,1.7,1.4L41.2,15z"/>
			<polygon class="st0" points="22.1,22.4 22.1,7.7 29.4,15 25.1,19.3 			"/>
			<path class="st0" d="M22.3,24.1l8-8l2.5,2.5c0.9,0.9,2.2,1.7,3.5,1.7c1.3,0,2.6-0.7,3.5-1.7l2.5-2.5l8,8.1
				c-0.2,0.7-0.9,1.1-1.6,1.1H23.9C23.2,25.2,22.5,24.7,22.3,24.1z"/>
		</g>
		<g>
			<g>
				<path class="st0" d="M21.4,40.2c-0.2,0-0.2,0-0.6-0.3c-0.7-0.6-1.3-0.9-1.9-1.2v-0.1c0.2,0,0.6,0,1.1,0
					c-0.1-0.1-0.1-0.1-0.1-0.3h-3.2l1,0.5c0.1,0,0.1,0.1,0.1,0.2c0,0.2-0.2,0.1-0.5,0.1c-1,0.5-2,0.7-3.4,0.9l0-0.1
					c0.9-0.3,2.3-0.9,2.7-1.6h-0.3c0,0.4-0.6,0.5-0.7,0.5c-0.3,0-0.3-0.2-0.3-0.4c0-0.2,0.1-1.5,0.1-1.8c0-0.1,0-1.3,0-1.6
					c-0.1,0.1-0.2,0.4-0.6,0.4c-0.2,0-0.4-0.1-0.5-0.4c0-0.1,0-0.6,0-0.7c0-0.4,0-0.5-0.5-0.9l0-0.1c0.1,0,0.2,0,0.3,0
					c0.3,0,0.5,0,1.1-0.6c0.2-0.2,1.2-1.2,1.4-1.4l0.1,0c-0.2,0.3-0.3,0.6-1.3,2c-0.2,0.3-0.2,0.4-0.2,0.5c0,0.1,0.1,0.4,0.1,0.5
					l1,0.4h3.4l0.2-0.2c0.1-0.1,0.1-0.1,0.2-0.1c0,0,0.1,0,0.2,0.1l0.6,0.4c0.1,0.1,0.2,0.1,0.2,0.2c0,0-0.1,0.1-0.3,0.3
					c0,0.4,0,2.1,0,2.5c0,0.5-0.4,0.5-0.6,0.6c1,0.1,1.6,0.5,1.6,1C21.9,39.8,21.8,40.2,21.4,40.2z M15.2,32.6
					c-0.3,0-0.3-0.1-0.6-0.6c-0.2-0.4-0.4-0.6-0.7-0.8l0-0.1c1.1,0,1.7,0.3,1.7,0.9C15.7,32.4,15.4,32.6,15.2,32.6z M21.8,35.2
					c-0.8-0.3-1.9-0.8-2.4-2.4c-0.5,1.2-1.6,1.9-2.9,2l0-0.1c1.3-0.5,1.9-1.6,2.1-2.5h-0.5c-0.2,0.2-1.1,1.2-1.9,1.5L16,33.8
					c0.6-0.7,1.4-2.1,1.6-3l1.2,0.5c0.1,0,0.2,0.1,0.2,0.2c0,0.1-0.1,0.2-0.5,0.2c-0.1,0.1-0.1,0.2-0.4,0.4h2.5l0.3-0.3
					c0-0.1,0.1-0.1,0.1-0.1c0.1,0,0.1,0,0.2,0.1l0.8,0.8c0,0,0.1,0.1,0.1,0.2c0,0.2-0.3,0.2-0.4,0.2c-0.1,0-0.2,0-0.3,0
					c-0.3,0.2-1,0.4-1.2,0.5l0,0c0.3-0.5,0.3-0.6,0.4-1h-1.2c0,0.1,0,0.1,0,0.2c0.5,0.7,1.3,1.4,3.2,1.6v0.1
					C22.2,34.5,21.9,34.7,21.8,35.2z M19.9,35.2h-3.6V36h3.6V35.2z M19.9,36.2h-3.6V37h3.6V36.2z M19.9,37.3h-3.6v0.8h3.6V37.3z"/>
				<path class="st0" d="M29.8,34.7h-1.5l0,0.5c1.1,0.2,1.4,0.7,1.4,1c0,0.3-0.2,0.5-0.5,0.5c-0.3,0-0.3-0.1-0.5-0.6
					c-0.1-0.2-0.2-0.5-0.4-0.7c0,1.5,0,1.8,0,2.6c0,0.2,0,1.1,0,1.3c0,0.3-0.1,0.7-0.7,0.7c-0.3,0-0.4-0.1-0.4-0.4
					c0-0.1,0-0.7,0-0.9c0-1.2,0-1.4,0.1-2.5c-0.4,0.6-1.3,1.5-2.1,2l-0.1-0.1c0.9-1,1.7-2.8,2-3.6h-0.5c-0.6,0-0.8,0-1.1,0.1
					l-0.2-0.4c0.6,0,1.3,0.1,1.4,0.1h0.6v-1.9c0-0.6,0-1.1-0.2-1.6l1.2,0.3c0.2,0,0.2,0.1,0.2,0.2c0,0.1,0,0.2-0.3,0.3
					c0,0.4,0,2.3,0,2.7h0.3l0.4-0.6c0-0.1,0.1-0.1,0.2-0.1c0.1,0,0.1,0,0.2,0.1l0.6,0.6c0.1,0.1,0.1,0.1,0.1,0.1
					C29.9,34.7,29.8,34.7,29.8,34.7z M26.5,33.9c-0.4,0-0.4-0.2-0.5-0.6c-0.2-0.9-0.3-1-0.5-1.2l0-0.1c0.9,0.3,1.5,0.8,1.5,1.3
					C27.1,33.6,26.9,33.9,26.5,33.9z M29.8,32.6c-0.4,0.5-0.8,0.9-1.4,1.3l-0.1,0c0.1-0.3,0.6-1.4,0.5-2.2l1.1,0.5
					c0.1,0,0.1,0.1,0.1,0.2C30.1,32.5,30.1,32.5,29.8,32.6z M34.4,36.3l-1.5,0.3c0,0.3,0,2,0,2.2c0,0.1,0,0.7,0,0.8
					c0,0.4-0.5,0.5-0.7,0.5c-0.4,0-0.4-0.2-0.4-0.4c0-0.5,0-2.4,0-2.8l-1.8,0.4c-0.6,0.1-0.8,0.2-1,0.3l-0.2-0.3
					c0.4-0.1,0.7-0.1,1.4-0.3l1.7-0.4c0-2.1,0-3.4,0-3.9c0-1-0.1-1.3-0.2-1.6l1.4,0.3c0.1,0,0.2,0.1,0.2,0.2c0,0.1,0,0.1-0.3,0.3
					c0,0.3,0,0.5,0,1.5c0,0.5,0,2.4,0,3.1l0.3-0.1l0.3-0.7c0.1-0.1,0.1-0.2,0.2-0.2c0.1,0,0.1,0,0.2,0.1l0.6,0.5
					c0.1,0.1,0.1,0.1,0.1,0.2C34.5,36.2,34.5,36.2,34.4,36.3z M31,35.8c-0.4,0-0.5-0.4-0.5-0.6c-0.1-0.6-0.3-0.8-0.5-1l0-0.1
					c1,0.1,1.5,0.6,1.5,1.1C31.5,35.5,31.2,35.8,31,35.8z M31.1,33.5c-0.3,0-0.3-0.1-0.5-0.6c0-0.2-0.2-0.6-0.6-1l0-0.1
					c0.9,0.1,1.5,0.5,1.5,1C31.7,33.4,31.3,33.5,31.1,33.5z"/>
				<path class="st0" d="M40.3,33.1h-2.6c-0.4,0-0.5,0-0.8,0l-0.2-0.3c0.3,0,0.7,0,1.1,0h1.3l0.3-0.5c0-0.1,0.1-0.1,0.2-0.1
					c0.1,0,0.1,0.1,0.2,0.1l0.5,0.5c0.1,0,0.1,0.1,0.1,0.2C40.4,33.1,40.4,33.1,40.3,33.1z M40,37.2c0,0.3,0,1.6,0,1.8
					c0,0.2,0,0.6-0.5,0.6c-0.4,0-0.4-0.3-0.4-0.5h-0.9c0,0.6,0,0.9-0.5,0.9c-0.4,0-0.5-0.2-0.5-0.4s0-1.1,0-1.3c0-0.4,0-0.7,0-1.4
					c0-0.3,0-0.4-0.1-0.7l1.1,0.5H39l0.3-0.3c0.1-0.1,0.1-0.1,0.2-0.1c0,0,0.1,0,0.2,0.1l0.5,0.4c0.1,0.1,0.2,0.1,0.2,0.2
					C40.3,36.9,40.1,37.1,40,37.2z M39.9,35.6h-1.8c-0.4,0-0.6,0-0.8,0l-0.2-0.3c0.5,0,1,0,1.1,0h0.5l0.3-0.5c0-0.1,0.1-0.1,0.2-0.1
					c0.1,0,0.1,0.1,0.2,0.1l0.5,0.5c0.1,0.1,0.1,0.1,0.1,0.2C40.1,35.6,40,35.6,39.9,35.6z M40,34.4h-1.8c-0.4,0-0.5,0-0.7,0
					l-0.2-0.3c0.3,0,0.7,0,1.1,0h0.5l0.3-0.5c0.1-0.1,0.1-0.1,0.2-0.1c0,0,0.1,0,0.2,0.1l0.5,0.5c0.1,0.1,0.1,0.1,0.1,0.2
					C40.1,34.4,40,34.4,40,34.4z M40,31.9h-1.7c-0.4,0-0.6,0-0.8,0l-0.2-0.3c0.5,0,1,0,1.1,0h0.4l0.3-0.4c0.1-0.1,0.1-0.1,0.2-0.1
					c0.1,0,0.1,0,0.2,0.1l0.5,0.5c0,0,0.1,0.1,0.1,0.1C40.1,31.8,40.1,31.9,40,31.9z M39.1,36.9h-0.9v1.9h0.9V36.9z M45.7,34.4h-4.2
					c-0.6,0-0.8,0-1.1,0.1l-0.2-0.4c0.6,0,1.3,0.1,1.4,0.1h0.6v-0.9h-0.3c-0.6,0-0.8,0-1.1,0.1L40.8,33c0.6,0,1.2,0.1,1.6,0.1
					c0-0.1,0-0.7,0-0.8h-0.6c-0.6,0-0.8,0-1.1,0.1L40.5,32C41.1,32,41.8,32,42,32h0.4c0-0.6-0.1-0.7-0.2-1.2l1.3,0.3
					c0.1,0,0.2,0.1,0.2,0.2c0,0.1-0.2,0.3-0.3,0.3V32h0.9l0.4-0.6c0-0.1,0.1-0.1,0.2-0.1c0,0,0.1,0,0.2,0.1l0.6,0.6
					c0.1,0.1,0.1,0.1,0.1,0.2c0,0.1-0.1,0.1-0.2,0.1h-2.2v0.8H44l0.3-0.4c0.1-0.1,0.1-0.1,0.2-0.1c0,0,0.1,0.1,0.2,0.1l0.5,0.4
					c0,0,0.1,0.1,0.1,0.1c0,0.1-0.1,0.1-0.2,0.1h-1.7v0.9h1.1l0.4-0.5c0.1-0.1,0.1-0.1,0.2-0.1c0.1,0,0.1,0,0.2,0.1l0.6,0.6
					c0,0,0.1,0.1,0.1,0.2C45.9,34.4,45.8,34.4,45.7,34.4z M45.1,35.9c0,0.5,0,2.5,0,2.9c0,0.5-0.1,0.8-0.5,1.1
					c-0.4,0.3-0.7,0.3-0.9,0.3c-0.1-0.8-0.4-1-0.9-1.3l0-0.1c0.3,0,0.5,0.1,0.9,0.1c0.1,0,0.3,0,0.3-0.2c0-0.1,0-0.6,0-0.9h-2.3
					c0,0.3,0,1.5,0,1.7c0,0.3-0.1,0.5-0.6,0.5c-0.4,0-0.5-0.3-0.5-0.4c0-0.1,0-0.5,0-0.6c0-0.3,0.1-2.1,0.1-2.9c0-0.3,0-0.8-0.1-1.3
					l1.3,0.4h2l0.3-0.4c0-0.1,0.1-0.1,0.2-0.1c0.1,0,0.1,0,0.2,0.1l0.6,0.4c0.1,0.1,0.1,0.1,0.1,0.2C45.4,35.6,45.3,35.7,45.1,35.9z
					 M44.1,35.6h-2.3v0.9h2.3V35.6z M44.1,36.7h-2.3v0.9h2.3V36.7z"/>
				<path class="st0" d="M49.8,38.7c0,0.3,0,0.4-0.1,0.4c-0.1,0-0.2-0.1-0.2-0.2l-0.9-1.2c0.9-0.1,2.8-1.2,3.6-1.7l0.1,0.1
					C51.6,37.1,50.3,38.3,49.8,38.7z M56.5,39.2c-0.9-0.6-2.2-1.6-3-4.9c0,0.2,0,1.2,0,1.4c0,0.4,0,2.5,0,3c0,0.5,0,0.8-0.4,1.1
					c-0.5,0.4-0.9,0.4-1.2,0.4c-0.1-0.9-0.6-1.2-1-1.3l0-0.1c0.1,0,1.1,0.1,1.2,0.1c0.2,0,0.2,0,0.2-1.2c0-0.2,0-1.1,0-2.2
					c0-0.3,0-1.8,0-2.2h-2.5c-0.7,0-0.9,0-1.1,0.1l-0.2-0.4c0.5,0,0.9,0.1,1.4,0.1h2.3c0-1.1,0-1.5-0.2-2.1l1.4,0.3
					c0.1,0,0.2,0.1,0.2,0.2c0,0.2-0.2,0.3-0.3,0.3c0,0.1,0,0.2,0,0.3c0,0.1,0,0.8,0,1h2.3l0.4-0.7c0,0,0.1-0.1,0.2-0.1
					c0,0,0.1,0,0.2,0.1l0.8,0.7c0,0,0.1,0.1,0.1,0.2c0,0.1-0.1,0.1-0.1,0.1h-3.8c0,0.2,0.3,1.3,0.9,2.4c0.8-1.1,0.9-1.5,1.1-1.9
					l1.1,0.8c0.1,0.1,0.1,0.1,0.1,0.2c0,0.1,0,0.1-0.4,0.2c-0.3,0.2-1.3,0.7-1.7,0.9c0.5,0.8,1.3,1.7,3.1,2.3v0.1
					C56.9,38.4,56.6,39,56.5,39.2z M50.9,36.1c-0.3,0-0.4-0.2-0.6-0.6c-0.2-0.5-0.4-1-0.8-1.3l0-0.1c0.4,0.1,2,0.3,2,1.4
					C51.4,35.8,51.2,36.1,50.9,36.1z M55.2,32.8c-0.3,0-0.4-0.2-0.6-0.6c-0.3-0.6-0.4-0.7-0.7-0.9l0-0.1c0.7,0.1,1.8,0.3,1.8,1
					C55.7,32.5,55.5,32.8,55.2,32.8z"/>
			</g>
		</g>
	</g>
</g>
</svg>
