<?xml version="1.0" encoding="utf-8"?>
<!-- Generator: Adobe Illustrator 24.0.0, SVG Export Plug-In . SVG Version: 6.00 Build 0)  -->
<svg version="1.1" id="レイヤー_1" xmlns="http://www.w3.org/2000/svg" xmlns:xlink="http://www.w3.org/1999/xlink" x="0px"
	 y="0px" viewBox="0 0 70 40" style="enable-background:new 0 0 70 40;" xml:space="preserve">
<style type="text/css">
	.st0{fill:#FFFFFF;}
</style>
<g id="_x30_">
</g>
<g id="_x31_">
	<g>
		<g>
			<g>
				<path class="st0" d="M31.1,6.1V1c0-0.3-0.1-0.5-0.3-0.7C30.6,0.1,30.4,0,30.1,0h-1c-0.3,0-0.5,0.1-0.7,0.3C28.1,0.5,28,0.7,28,1
					v5.1c0,0.3,0.1,0.5,0.3,0.7C28.5,7,28.8,7.1,29,7.1h1c0.3,0,0.5-0.1,0.7-0.3C31,6.6,31.1,6.4,31.1,6.1z"/>
				<path class="st0" d="M42.9,6.1V1c0-0.3-0.1-0.5-0.3-0.7C42.5,0.1,42.2,0,41.9,0h-1c-0.3,0-0.5,0.1-0.7,0.3S39.9,0.7,39.9,1v5.1
					c0,0.3,0.1,0.5,0.3,0.7s0.4,0.3,0.7,0.3h1c0.3,0,0.5-0.1,0.7-0.3C42.8,6.6,42.9,6.4,42.9,6.1z"/>
			</g>
			<g>
				<g>
					<rect x="26.1" y="12.7" class="st0" width="3.6" height="3.6"/>
					<rect x="31.2" y="12.7" class="st0" width="3.6" height="3.6"/>
					<rect x="36.2" y="12.7" class="st0" width="3.6" height="3.6"/>
					<rect x="41.3" y="12.7" class="st0" width="3.6" height="3.6"/>
				</g>
				<g>
					<rect x="26.1" y="17.8" class="st0" width="3.6" height="3.6"/>
					<rect x="31.2" y="17.8" class="st0" width="3.6" height="3.6"/>
					<rect x="36.2" y="17.8" class="st0" width="3.6" height="3.6"/>
					<rect x="41.3" y="17.8" class="st0" width="3.6" height="3.6"/>
				</g>
			</g>
			<path class="st0" d="M48.5,3c-0.4-0.4-0.9-0.6-1.5-0.6h-3v3.7c0,0.6-0.2,1.1-0.6,1.5C43,8,42.5,8.2,41.9,8.2h-1
				c-0.6,0-1.1-0.2-1.5-0.6s-0.6-0.9-0.6-1.5V2.4h-6.6v3.7c0,0.6-0.2,1.1-0.6,1.5c-0.4,0.4-0.9,0.6-1.5,0.6h-1
				c-0.6,0-1.1-0.2-1.5-0.6S27,6.7,27,6.1V2.4h-3c-0.6,0-1.1,0.2-1.5,0.6s-0.6,0.9-0.6,1.5v20c0,0.6,0.2,1.1,0.6,1.5
				s0.9,0.6,1.5,0.6h23.1c0.6,0,1.1-0.2,1.5-0.6s0.6-0.9,0.6-1.5v-20C49.1,3.9,48.9,3.4,48.5,3z M47.3,24.5L47.3,24.5
				c0,0.1,0,0.1-0.1,0.2c0,0-0.1,0.1-0.2,0.1H23.9h-0.1c0,0,0,0-0.1,0c0,0-0.1-0.1-0.1-0.2V11l0,0h23.6v13.5H47.3z"/>
		</g>
		<g>
			<g>
				<path class="st0" d="M21,39.4c-1.3-0.6-2.5-2.1-3-3.2c0,1.1,0,1.4,0,2.2c0,0.2,0,1,0,1.1c0,0.6-0.3,0.7-0.6,0.7
					c-0.5,0-0.5-0.3-0.5-0.6c0-0.2,0-0.4,0-0.6c0.1-0.7,0.1-1.4,0.1-2.2v-0.2c-1,1.4-2.6,2.5-3.9,2.9v-0.1c1.6-1.1,3.1-3.2,3.3-3.6
					h-1.9c-0.6,0-0.8,0-1.1,0.1l-0.2-0.4c0.6,0.1,1.3,0.1,1.4,0.1H17c0-1.6,0-1.7,0-2.8h-2.1c-0.6,0-0.8,0-1.1,0.1l-0.2-0.4
					c0.6,0.1,1.3,0.1,1.4,0.1h2c0-1.1,0-1.2-0.2-1.6l1.4,0.3c0.1,0,0.2,0,0.2,0.1s-0.2,0.2-0.3,0.3c0,0.1,0,0.7,0,0.9h1.7l0.4-0.6
					c0.1-0.1,0.1-0.1,0.2-0.1s0.1,0.1,0.2,0.1l0.8,0.7c0.1,0,0.1,0.1,0.1,0.1c0,0.1-0.1,0.1-0.2,0.1H18c0,0.9,0,1.8,0,2.8h0.4
					c0.4-0.5,0.9-2,1-2.5l1.2,0.6c0.1,0,0.1,0.1,0.1,0.1c0,0.1,0,0.1-0.5,0.3c-0.9,1-1.4,1.4-1.6,1.5h1.7l0.5-0.6l0.1-0.1
					c0,0,0.1,0,0.2,0.1l0.8,0.7c0.1,0,0.1,0.1,0.1,0.1c0,0.1-0.1,0.1-0.2,0.1H18c0.9,1.1,2.5,2.2,4,2.4v0.1
					C21.6,38.4,21.2,38.9,21,39.4z M15.6,35.3c-0.4,0-0.4-0.2-0.6-0.8c0-0.2-0.2-0.8-0.6-1.3l0,0c0.4,0.1,1.7,0.6,1.7,1.5
					C16.1,34.9,15.9,35.3,15.6,35.3z"/>
				<path class="st0" d="M28,33.8h-1.2c0,0.4,0,2.3,0,2.7c0.6-0.2,0.8-0.3,1.1-0.4v0.1c-0.8,0.8-2.2,1.7-2.6,1.9
					c0,0.2-0.1,0.3-0.2,0.3S25,38.3,25,38.2l-0.6-1.1c0.5,0,0.6,0,1.4-0.2c0-0.5,0-2.6,0-3c-0.3,0-0.6,0-1,0.1l-0.2-0.4
					c0.2,0,0.5,0,1.2,0.1c0-1.5,0-1.8-0.1-2c0-0.2-0.1-0.3-0.1-0.5l1.3,0.3c0.1,0,0.2,0.1,0.2,0.2c0,0.2-0.2,0.3-0.3,0.3
					c0,0.1,0,0.2,0,0.9v0.8h0.1l0.4-0.6c0-0.1,0.1-0.1,0.1-0.1s0.1,0,0.2,0.1l0.5,0.6c0.1,0.1,0.1,0.1,0.1,0.1
					C28.1,33.8,28,33.8,28,33.8z M33.6,35.4h-4c-0.2,0.4-0.4,0.7-0.6,0.9h3l0.3-0.4c0.1-0.1,0.1-0.1,0.1-0.1s0.1,0,0.2,0.1l0.6,0.4
					c0.1,0,0.1,0.1,0.1,0.2c0,0.1-0.1,0.2-0.4,0.3c-0.2,2.6-0.5,3.2-2,3.3c0-0.7-0.4-1-0.7-1.2v-0.1c0.5,0.1,0.9,0.1,1,0.1
					c0.2,0,0.3,0,0.4-0.5c0.2-0.6,0.2-1.3,0.3-1.9h-0.4c-0.4,1.3-1.6,2.9-3.5,3.5l0,0c1.6-1.3,2.3-2.9,2.5-3.5h-0.4
					c-0.7,1.4-2.2,2.8-3.8,3.2v-0.1c1.1-0.7,2.2-2,2.7-3.2h-0.4c-0.6,0.7-1.3,1.2-2,1.6v-0.1c0.6-0.6,1.3-1.5,1.8-2.7
					c-0.6,0-0.8,0-1.2,0.1L27,34.9c0.6,0,1.3,0.1,1.4,0.1H32l0.4-0.7c0-0.1,0.1-0.1,0.2-0.1c0.1,0,0.1,0,0.2,0.1l0.7,0.7
					c0.1,0.1,0.1,0.1,0.1,0.1C33.8,35.4,33.7,35.4,33.6,35.4z M32.1,32c0,0.3,0,1.9,0,2.2c0,0.2,0,0.2-0.1,0.3s-0.3,0.3-0.6,0.3
					c-0.4,0-0.4-0.2-0.3-0.4h-1.6c0,0.3-0.2,0.5-0.7,0.5c-0.3,0-0.3-0.1-0.3-0.3c0-0.1,0-1.7,0-2c0-0.9-0.1-1.3-0.1-1.6l1.1,0.5h1.6
					l0.3-0.3c0.1-0.1,0.1-0.1,0.2-0.1c0,0,0.1,0,0.2,0.1l0.6,0.4c0.1,0,0.1,0.1,0.1,0.2C32.4,31.9,32.3,32,32.1,32z M31.2,31.8h-1.6
					v1h1.6V31.8z M31.2,33h-1.6v1.1h1.6V33z"/>
				<path class="st0" d="M44.6,35.5c-0.3,0-0.4,0-0.5,0.1c-1.3,0.8-1.5,0.9-2.2,1.2v-0.1c0.5-0.5,0.8-1.1,1.2-1.8h-1.9v3.7
					c0,0.4,0,1.3-1.6,1.5c-0.1-0.6-0.3-1.1-1.3-1.5v-0.1c0.3,0,1.2,0.1,1.4,0.1c0.4,0,0.4-0.2,0.4-0.5V35h-2.7c-0.7,0-0.9,0-1.1,0.1
					l-0.2-0.4c0.5,0,0.9,0.1,1.4,0.1h3.1c-0.1-0.1-0.1-0.1-0.4-0.5c-0.3-0.6-0.8-1.1-1.3-1.5v-0.1c0.8,0,1.4,0.3,2,0.6
					c0.3-0.4,0.7-0.7,1.1-1.2h-3.7c-0.7,0-0.9,0-1.1,0.1L37,31.8c0.5,0,1,0.1,1.4,0.1H42l0.5-0.4c0,0,0.1-0.1,0.2-0.1
					c0.1,0,0.2,0.1,0.2,0.1l1,0.8c0.1,0,0.1,0.1,0.1,0.2c0,0.2-0.2,0.2-0.4,0.2c-0.5,0-0.6,0-0.7,0.1c-0.3,0.2-0.8,0.5-1.7,0.8
					c0.1,0.1,0.3,0.3,0.3,0.6c0,0.2-0.1,0.5-0.4,0.6h2l0.5-0.5c0.1-0.1,0.1-0.1,0.2-0.1c0.1,0,0.1,0,0.2,0.1l0.9,0.9
					c0,0,0.1,0.1,0.1,0.2C45.1,35.5,44.8,35.5,44.6,35.5z"/>
				<path class="st0" d="M56.3,33.9c0,0.4-0.1,2.1-0.1,2.5c-0.1,2.5-0.7,3.5-2.3,3.6c-0.2-0.5-0.2-0.9-1-1.4v-0.1
					c0.7,0.1,0.9,0.2,1.2,0.2s0.8,0,0.9-1.2c0.1-0.8,0.1-3,0.2-4h-2.3c-0.5,0.8-0.9,1.2-1.1,1.4c0.1,0.1,0.4,0.4,0.4,0.8
					c0,0.3-0.3,0.5-0.5,0.5c-0.3,0-0.4-0.2-0.5-0.4c0-0.1-0.1-0.3-0.1-0.4c-0.1,0-0.6,0.2-0.7,0.2c0,0.5,0,2.2,0,2.5
					c0,0.2,0,1.1,0,1.3c0,0.3,0,0.7-0.7,0.7c-0.3,0-0.4-0.1-0.4-0.3c0-0.6,0-3.3,0-3.9c-0.8,0.2-1,0.3-1.2,0.3
					c0,0.1-0.1,0.3-0.2,0.3c-0.1,0-0.1-0.1-0.2-0.2l-0.3-1c0.3,0,0.6,0,0.9,0c0.2,0,0.5,0,0.7,0c0.6-1,1.3-2.4,1.4-3l1.1,0.5
					c0.1,0,0.2,0.1,0.2,0.2c0,0.1-0.1,0.2-0.4,0.2c-0.5,0.7-1.3,1.6-1.8,2.1c0.2,0,1.1-0.1,1.3-0.1c-0.1-0.1-0.2-0.4-0.5-0.6v-0.1
					c0.2,0,0.7,0.2,1.1,0.5c0.3-0.6,0.6-1.3,0.8-2.3c0.1-0.6,0.2-1,0.2-1.6l1.3,0.5c0.1,0,0.1,0.1,0.1,0.2s-0.1,0.2-0.4,0.3
					c-0.1,0.3-0.3,0.7-0.6,1.3h2l0.4-0.4c0.1-0.1,0.1-0.1,0.2-0.1c0.1,0,0.1,0,0.1,0.1l0.7,0.5c0,0,0.1,0.1,0.1,0.2
					C56.7,33.7,56.4,33.8,56.3,33.9z M49.3,37.2c-0.3,0.9-0.7,1.5-1.4,2.3h-0.1c0.5-1.5,0.6-2.7,0.6-3l1,0.4l0.2,0.1
					C49.6,37.1,49.4,37.2,49.3,37.2z M50.5,31.8c-0.3,0.4-0.7,0.7-1.3,1.3c0.2,0.1,0.6,0.4,0.6,0.8c0,0.4-0.3,0.6-0.5,0.6
					c-0.3,0-0.4-0.1-0.6-0.6c-0.2-0.5-0.4-0.8-0.8-1.1v-0.1c0.3,0.1,0.7,0.1,1,0.3c0.4-0.9,0.5-1.5,0.5-2.1l1.2,0.6
					c0.1,0,0.1,0.1,0.1,0.1C50.9,31.7,50.7,31.8,50.5,31.8z M51.6,38.5c-0.3,0-0.4-0.2-0.5-0.9c-0.1-0.4-0.2-0.7-0.5-1v-0.1
					c0.5,0.2,1.5,0.6,1.5,1.3C52.2,38.3,51.9,38.5,51.6,38.5z M53.6,37.1c-0.4,0-0.4-0.2-0.5-0.6c-0.2-0.9-0.4-1.2-0.5-1.3v-0.1
					c0.8,0.3,1.6,0.8,1.6,1.4C54.2,36.9,53.8,37.1,53.6,37.1z"/>
			</g>
		</g>
	</g>
</g>
</svg>
