<svg xmlns="http://www.w3.org/2000/svg" viewBox="0 0 463.95 46.6"><defs><style>.cls-1{fill:#3b3a38;}.cls-2{fill:#35393d;}.cls-3{fill:#fff;}</style></defs><title>アセット 21</title><g id="レイヤー_2" data-name="レイヤー 2"><g id="テキスト"><path class="cls-1" d="M104.91,46.09c-4.14,0-7.62-2.88-9.84-6.48-2.52-4.14-3.66-11.52-3.66-17.11C91.41,9.72,96.87,0,104.91,0c6.18,0,13.5,6.66,13.5,23C118.41,37.75,112.23,46.09,104.91,46.09ZM98.19,10a54.3,54.3,0,0,0-1.38,13c0,13.39,3.18,21,8.1,21,4.14,0,6-5.52,6.66-7.8A55.58,55.58,0,0,0,113,23c0-13.68-3.3-21-8.1-21C100.65,2,98.79,7.92,98.19,10Z"/><path class="cls-1" d="M123.15,43h3.3c3.12,0,4.2-1.2,4.2-3.66V6.9c0-1.86-1.74-2.16-2.88-2.16h-4.56V2.88h1.08A23.17,23.17,0,0,0,134.08.36c.42-.24.6-.36.84-.36.54,0,.66.36.66.84V39.37c0,2.58,1.26,3.66,4.2,3.66h3.3V45H123.15Z"/><path class="cls-1" d="M172.66,45H149.08V43.33c1.2-3.78,4-8,8.82-13.44,8.82-10.21,11.82-13.63,11.82-19.63,0-4.5-2.88-8.22-8-8.22C157.54,2,155,4.56,155,6.72a3.31,3.31,0,0,0,.6,1.86c.78,1.2,1.26,1.86,1.26,3a3.33,3.33,0,0,1-3.24,3.36c-2.1,0-3.42-2-3.42-4.2,0-4.38,4.26-10.74,12.9-10.74,7.44,0,12,4.68,12,11.16,0,6.06-3.48,9.36-8.88,14-2,1.69-10,8.47-13,15.07h8.28c8.4,0,10.38-3.24,12.18-8.22l1.8.66Z"/><path class="cls-1" d="M198.53,46.09c-4.14,0-7.63-2.88-9.85-6.48C186.16,35.47,185,28.09,185,22.5,185,9.72,190.48,0,198.53,0,204.71,0,212,6.66,212,23,212,37.75,205.85,46.09,198.53,46.09ZM191.81,10a53.73,53.73,0,0,0-1.39,13c0,13.39,3.19,21,8.11,21,4.14,0,6-5.52,6.66-7.8A55.58,55.58,0,0,0,206.63,23c0-13.68-3.3-21-8.1-21C194.27,2,192.4,7.92,191.81,10Z"/><path class="cls-1" d="M231.35,28h-12.9V24.1h12.9Z"/><path class="cls-1" d="M241.31,43h3.3c3.12,0,4.2-1.2,4.2-3.66V6.9c0-1.86-1.74-2.16-2.88-2.16h-4.56V2.88h1.08A23.11,23.11,0,0,0,252.23.36c.42-.24.6-.36.84-.36.54,0,.66.36.66.84V39.37C253.73,42,255,43,257.94,43h3.3V45H241.31Z"/><path class="cls-1" d="M300.66,1.14V4.32C291.12,19,287.76,27.37,287,40.75c-.12,1.56-.3,5.34-3.36,5.34a3.17,3.17,0,0,1-3.06-3.3c0-4.26,4.2-16.87,16.86-36.91H287.16c-8.7,0-10,4-11.34,7.86l-1.8-.42,2.46-12.18Z"/><path class="cls-1" d="M333.43,45H309.84V43.33c1.2-3.78,4-8,8.82-13.44,8.83-10.21,11.83-13.63,11.83-19.63,0-4.5-2.88-8.22-8-8.22-4.2,0-6.73,2.52-6.73,4.68a3.31,3.31,0,0,0,.6,1.86c.78,1.2,1.27,1.86,1.27,3a3.34,3.34,0,0,1-3.25,3.36c-2.1,0-3.42-2-3.42-4.2C311,6.36,315.24,0,323.89,0c7.44,0,12,4.68,12,11.16,0,6.06-3.48,9.36-8.88,14-2,1.69-10,8.47-13,15.07h8.29c8.4,0,10.38-3.24,12.18-8.22l1.8.66Z"/><path class="cls-1" d="M358.51,28h-12.9V24.1h12.9Z"/><path class="cls-1" d="M368.47,43h3.3c3.13,0,4.21-1.2,4.21-3.66V6.9c0-1.86-1.75-2.16-2.89-2.16h-4.56V2.88h1.08A23.17,23.17,0,0,0,379.4.36c.42-.24.6-.36.84-.36.54,0,.66.36.66.84V39.37c0,2.58,1.26,3.66,4.2,3.66h3.3V45H368.47Z"/><path class="cls-1" d="M406,5.88,405.44,21c2.58-2.28,4.86-4.14,9.3-4.14,8.64,0,12.78,7.14,12.78,13.75,0,8.7-6.9,15.48-14.82,15.48-6.84,0-11.34-5.1-11.34-8.82a3.41,3.41,0,0,1,3.48-3.72A3,3,0,0,1,408,36.67a6.12,6.12,0,0,1-.3,1.8,8.92,8.92,0,0,0-.18,1.68c0,2.58,2.7,3.9,5.1,3.9,4.86,0,9.42-4.62,9.42-12.66,0-7.63-4-11.83-8.4-11.83-2.4,0-6.06,1.32-9.36,5.23l-.9-.49.9-23.16h20.88l-1.2,4.74Z"/><path class="cls-1" d="M450.45,46.09c-4.14,0-7.62-2.88-9.84-6.48-2.53-4.14-3.67-11.52-3.67-17.11,0-12.78,5.47-22.5,13.51-22.5C456.63,0,464,6.66,464,23,464,37.75,457.77,46.09,450.45,46.09ZM443.73,10a54.3,54.3,0,0,0-1.38,13c0,13.39,3.18,21,8.1,21,4.14,0,6-5.52,6.66-7.8A55.58,55.58,0,0,0,458.55,23c0-13.68-3.3-21-8.1-21C446.19,2,444.33,7.92,443.73,10Z"/><rect class="cls-2" y="3.27" width="65.57" height="42.8"/><path class="cls-2" d="M67.54,42.5a4.1,4.1,0,1,0,4.1-4.1,4.1,4.1,0,0,0-4.1,4.1m.47,0a3.63,3.63,0,1,1,3.63,3.62A3.63,3.63,0,0,1,68,42.5Z"/><path class="cls-2" d="M73.63,45.15h-.79l-1.59-2.46h-.69v2.46h-.63V39.74h1.53a1.85,1.85,0,0,1,1.22.37,1.28,1.28,0,0,1,.44,1,1.34,1.34,0,0,1-.32.89,1.69,1.69,0,0,1-.9.52l1.73,2.59m-3.07-3h.79a1.21,1.21,0,0,0,.81-.28.84.84,0,0,0,.31-.68c0-.6-.37-.9-1.1-.9h-.81Z"/><path class="cls-3" d="M16.48,36.46A8.12,8.12,0,0,1,8.41,28c0-4.4,4.36-7.92,8.07-10,3.7,2.1,8.06,5.62,8.06,10a8.12,8.12,0,0,1-8.06,8.42m24.7-8.52c0-4.4,4.36-7.92,8.06-10,3.71,2.1,8.06,5.62,8.06,10a8.07,8.07,0,1,1-16.12,0m24.38-18A37,37,0,0,0,49,13.67,35.36,35.36,0,0,0,32.78,9.93a35.32,35.32,0,0,0-16.21,3.74A37,37,0,0,0,0,9.93v3.74A33.12,33.12,0,0,1,12.47,16c-4.05,2.71-8.06,6.81-8.06,12A12.25,12.25,0,0,0,16.57,40.12,12,12,0,0,0,28.44,28c0-5.19-3.72-9.29-7.77-12a32.12,32.12,0,0,1,24.22,0c-4,2.71-7.78,6.81-7.78,12A12,12,0,0,0,49,40.12,12.17,12.17,0,0,0,61.05,28c0-5.19-3.91-9.29-8-12a33.24,33.24,0,0,1,12.48-2.37Z"/></g></g></svg>