<?xml version="1.0" encoding="utf-8"?>
<!-- Generator: Adobe Illustrator 24.0.1, SVG Export Plug-In . SVG Version: 6.00 Build 0)  -->
<svg version="1.1" id="レイヤー_1" xmlns="http://www.w3.org/2000/svg" xmlns:xlink="http://www.w3.org/1999/xlink" x="0px"
	 y="0px" viewBox="0 0 447.6 55.2" style="enable-background:new 0 0 447.6 55.2;" xml:space="preserve">
<style type="text/css">
	.st0{fill:#3E4144;}
	.st1{fill:#FFFFFF;}
	.st2{fill:#252627;}
</style>
<g>
	<g>
		<g>
			<g>
				<g>
					<rect x="1.8" class="st0" width="83.6" height="50"/>
				</g>
			</g>
		</g>
		<g>
			<g>
				<g>
					<path class="st0" d="M87.9,50c0,2.9,2.3,5.2,5.2,5.2c2.9,0,5.2-2.3,5.2-5.2c0-2.9-2.3-5.2-5.2-5.2C90.2,44.8,87.9,47.1,87.9,50
						 M88.5,50c0-2.5,2.1-4.6,4.6-4.6c2.5,0,4.6,2.1,4.6,4.6c0,2.5-2.1,4.6-4.6,4.6C90.5,54.6,88.5,52.5,88.5,50z"/>
				</g>
			</g>
		</g>
		<path d="M95.6,53.4h-1l-2-3.1h-0.9v3.1h-0.8v-6.9h2c0.7,0,1.2,0.2,1.6,0.5c0.4,0.3,0.6,0.8,0.6,1.3c0,0.4-0.1,0.8-0.4,1.1
			c-0.3,0.3-0.7,0.5-1.1,0.7L95.6,53.4 M91.7,49.5h1c0.4,0,0.8-0.1,1-0.3c0.3-0.2,0.4-0.5,0.4-0.9c0-0.8-0.5-1.2-1.4-1.2h-1V49.5z"
			/>
	</g>
	<g>
		<g>
			<g>
				<g>
					<g>
						<g>
							<g>
								<path class="st1" d="M22.8,42.3c-4.6,0-10.3-3.5-10.3-10.7c0-5.6,5.6-10.1,10.3-12.8c4.7,2.7,10.3,7.2,10.3,12.8
									C33.1,38.8,27.4,42.3,22.8,42.3 M54.3,31.4c0-5.6,5.6-10.1,10.3-12.8c4.7,2.7,10.3,7.2,10.3,12.8c0,7.2-5.7,10.7-10.3,10.7
									C60,42.2,54.3,38.7,54.3,31.4 M85.4,8.5c-8.5,0-16,2.1-21.1,4.8c-5.1-2.7-12.2-4.8-20.7-4.8c-8.5,0-15.5,2.1-20.7,4.8
									c-5.1-2.7-12.6-4.8-21.1-4.8v4.8c5,0,11.1,0.9,15.9,3C12.5,19.7,7.4,25,7.4,31.6c0,8.7,7.4,15.4,15.5,15.4
									c8.1,0,15.1-6.7,15.1-15.4c0-6.6-4.7-11.8-9.9-15.3c4.8-2.1,10.4-3,15.4-3c5,0,10.7,0.9,15.4,3c-5.2,3.5-9.9,8.7-9.9,15.3
									c0,8.7,7.1,15.4,15.1,15.4c8.1,0,15.4-6.7,15.4-15.4c0-6.6-5-11.8-10.2-15.3c4.8-2.1,10.9-3,15.9-3V8.5z"/>
							</g>
						</g>
					</g>
				</g>
			</g>
		</g>
	</g>
</g>
<g>
	<path class="st2" d="M118.2,48.6c-8.6,0-13.8-11-13.8-23.5c0-12.3,5-23.5,13.8-23.5c8.6,0,13.8,11,13.8,23.5
		C132,37.6,126.8,48.6,118.2,48.6z M118.2,3.3c-4.7,0-9.3,5.8-9.3,21.8c0,16.3,4.7,21.8,9.3,21.8c4.3,0,9.3-5,9.3-21.8
		C127.5,8.4,122.5,3.3,118.2,3.3z"/>
	<path class="st2" d="M139.6,47.5v-2h2.1c4,0,6-1.8,6-6V11.9c0-4-1.4-5.8-6.1-5.8h-2.1V4.5h1c3.7,0,8.2-1.7,9.4-2.3
		c0.4-0.2,0.9-0.6,1.3-0.6c0.3,0,0.4,0.3,0.4,0.6v37.3c0,3.5,1.4,6,5.4,6h2.8v2H139.6z"/>
	<path class="st2" d="M191.4,47.5H167v-1.7c3.6-7.6,8.3-12.7,13.9-18.3c3.9-3.9,8.3-8.8,8.3-15.6c0-3.2-1.1-8.5-8.1-8.5
		c-5.3,0-7.9,2.9-7.9,4.8c0,0.6,0.3,1.4,0.6,1.8c0.7,1.7,0.7,2.3,0.7,2.8c0,2.1-1.3,3.1-3,3.1c-2.1,0-2.8-1.5-2.8-3.4
		c0-5.6,5.2-11,13.3-11c7.3,0,12,4.4,12,11.3c0,4.1-1.5,6.6-4.5,10.1c-1.5,1.7-9,8.3-10.5,9.7c-0.8,0.8-5.3,5.4-8.2,10.7H183
		c7.2,0,9.1-5.3,10.2-8.3l1.2,0.3L191.4,47.5z"/>
	<path class="st2" d="M212,48.6c-8.6,0-13.8-11-13.8-23.5c0-12.3,5-23.5,13.8-23.5c8.6,0,13.8,11,13.8,23.5
		C225.8,37.6,220.6,48.6,212,48.6z M212,3.3c-4.7,0-9.3,5.8-9.3,21.8c0,16.3,4.7,21.8,9.3,21.8c4.3,0,9.3-5,9.3-21.8
		C221.2,8.4,216.3,3.3,212,3.3z"/>
	<path class="st2" d="M229.4,34.7v-3.4h12.9v3.4H229.4z"/>
	<path class="st2" d="M255.9,48.6c-4.5,0-7.3-2.4-7.3-5.3c0-2.1,1.2-2.9,2.8-2.9c2.8,0,3.2,2.5,3.2,3.2c0,1.5,0.1,3.2,2.5,3.2
		c2,0,3.9-1.1,5-2.3c5.3-5.8,5.8-14.5,6.1-21.1c-2.9,4.1-5.5,8-11.1,8c-6.6,0-11-6.2-11-13.9c0-9.1,6.1-15.8,12.9-15.8
		c7.2,0,14.2,7.7,14.2,21.3C273.3,34.4,267.3,48.6,255.9,48.6z M265.4,7.8c-2.1-3.6-3.8-4.1-6.3-4.1c-6.7,0-8.3,8.6-8.3,13.8
		c0,3.3,0.6,11,7.3,11c6.3,0,9.1-7.2,10.1-9.7C267.7,13.5,267.1,10.6,265.4,7.8z"/>
	<path class="st2" d="M297.8,34.7v6.4c0,2.8,1.9,4.4,4.3,4.4h1v2h-14.4v-2c1.3,0,5.3,0,5.3-4.5v-6.3h-17.2v-2.1l19.3-31h1.7v31.1
		h7.3v2H297.8z M294,8.9l-14.8,23.8H294V8.9z"/>
	<path class="st2" d="M322.8,48.6c-7.2,0-14.2-7.8-14.2-21.3c0-11.5,5.9-25.7,17.3-25.7c4.5,0,7.3,2.3,7.3,5.3
		c0,2.5-1.7,2.9-2.8,2.9c-3.1,0-3.2-2.8-3.2-3.2c-0.1-1.6-0.1-3.2-2.5-3.2c-2,0-3.9,1.1-5,2.3c-5.3,5.8-5.8,14.4-6.1,21.1
		c2.9-4,5.5-7.9,11.1-7.9c6.6,0,11,6.1,11,13.8C335.8,42,329.7,48.6,322.8,48.6z M323.8,21.8c-6.3,0-9.1,7.2-10.1,9.7
		c0.6,5.2,1.2,8.1,2.8,11c2.1,3.6,3.8,4.1,6.2,4.1c6.7,0,8.3-8.6,8.3-13.8C331.1,29.5,330.4,21.8,323.8,21.8z"/>
	<path class="st2" d="M339.6,34.7v-3.4h12.9v3.4H339.6z"/>
	<path class="st2" d="M383.4,35.7c0,7-6.1,12.9-14.6,12.9c-7.5,0-12.3-4.7-12.3-8.9c0-2,1-3.6,3-3.6c2,0,2.9,1.8,2.9,3.3
		c0,0.7-0.6,2.5-0.6,2.9c0,1.5,2.2,4.2,6.6,4.2c5.5,0,9.9-4.4,9.9-11.1c0-6.3-3.7-10.8-9.9-10.8c-0.3,0-2,0.2-2.3,0.2
		c-0.4,0-1.7,0-1.7-1.3c0-0.9,0.7-1.1,1.6-1.1c0.3,0,2,0.2,2.3,0.2c3.4,0,9.1-2.9,9.1-9.9c0-5.9-4.1-8.9-8.2-8.9
		c-3.7,0-5.8,2.3-5.8,4.2c0,0.3,0.2,1.8,0.2,2.2c0,1.4-0.7,3.6-2.9,3.6c-1.8,0-2.5-1.7-2.5-3.2c0-4.5,5.3-8.8,11.5-8.8
		c6.9,0,12.4,4.4,12.4,10.5c0,4.4-3.5,9.6-10.7,11.3C380.7,24.7,383.4,31.5,383.4,35.7z"/>
	<path class="st2" d="M401.1,44.5c0,1.2-0.1,4.1-3.3,4.1c-1.4,0-3-0.5-3-3.9c0-7.5,9.5-24.4,17.2-38.1h-14.1c-5.5,0-7.2,4.5-8.7,8.8
		l-1.3-0.2l2.6-12.6h24.6v2.1C407.3,18,401.2,29.5,401.1,44.5z"/>
	<path class="st2" d="M432.5,48.6c-8.6,0-13.8-11-13.8-23.5c0-12.3,5-23.5,13.8-23.5c8.6,0,13.8,11,13.8,23.5
		C446.3,37.6,441.1,48.6,432.5,48.6z M432.5,3.3c-4.7,0-9.3,5.8-9.3,21.8c0,16.3,4.7,21.8,9.3,21.8c4.3,0,9.3-5,9.3-21.8
		C441.8,8.4,436.8,3.3,432.5,3.3z"/>
</g>
</svg>
