<?xml version="1.0" encoding="utf-8"?>
<!-- Generator: Adobe Illustrator 25.2.1, SVG Export Plug-In . SVG Version: 6.00 Build 0)  -->
<svg version="1.1" id="レイヤー_1" xmlns="http://www.w3.org/2000/svg" xmlns:xlink="http://www.w3.org/1999/xlink" x="0px"
	 y="0px" viewBox="0 0 389.7 38.9" style="enable-background:new 0 0 389.7 38.9;" xml:space="preserve">
<style type="text/css">
	.st0{fill:#FFFFFF;}
</style>
<g>
	<g>
		<g>
			<g>
				<path class="st0" d="M64,31.2c-8.4,0-14.5-4.2-14.5-11.9c0-7.7,6.1-12.1,14.5-12.1c1.6,0,3.2,0.2,4.2,0.3c1.5,0.3,2,0.4,2.1-0.1
					l0.2-0.4h0.9v6.5h-0.9L70,11.7c-0.5-1.9-3.2-3-6.2-3c-6.4,0-8.6,5.3-8.6,10c0,5.6,3.1,10.9,9.7,10.9c2.8,0,5.2-0.9,6.1-2.8
					l0.9-1.7l0.9,0.2l-1.1,4.8C70,30.7,67,31.2,64,31.2z"/>
				<path class="st0" d="M80.6,30.7v-0.6l1.4-0.3c1.6-0.4,1.8-0.6,1.8-3.5V12.2c0-2.8-0.3-3.1-1.8-3.5l-1.4-0.3V7.8h11.8v0.6L91,8.8
					c-1.6,0.4-1.8,0.6-1.8,3.5v14.1c0,2.8,0.3,3.1,1.8,3.5l1.4,0.3v0.6H80.6z"/>
				<path class="st0" d="M100.7,30.7v-0.6l1.4-0.3c1.6-0.4,1.8-0.6,1.8-3.5V12.2c0-2.8-0.3-3.1-1.8-3.5l-1.4-0.3V7.8h18.9v4.6h-0.8
					l-0.5-1.5c-0.4-1.3-1.2-1.6-5.6-1.6h-3.5v8.5h3.5c3.6,0,4.1-0.1,4.5-1.3l0.4-1.3h0.7v6.8h-0.7l-0.5-1.4
					c-0.4-1.2-0.9-1.3-4.5-1.3h-3.5v6.3c0,3.2,0.5,3.5,2.1,3.5h2.3c4,0,5.1-0.5,5.9-1.9l0.9-1.6l0.8,0.2l-1.2,4.9H100.7z"/>
				<path class="st0" d="M128.9,30.7v-0.6l1.4-0.3c1.6-0.4,1.8-0.6,1.8-3.5V12.2c0-2.8-0.3-3.1-1.8-3.5l-1.4-0.3V7.8h12.6v0.6
					l-2.1,0.4c-1.6,0.3-1.9,0.6-1.9,3.4v13.5c0,3.2,0.5,3.5,2.1,3.5h1.9c4,0,5.3-0.5,5.9-1.9l1-2.3l1,0.2l-1.3,5.6H128.9z"/>
				<path class="st0" d="M156,30.7v-0.6l1.4-0.3c1.6-0.4,1.8-0.6,1.8-3.5V12.2c0-2.8-0.3-3.1-1.8-3.5L156,8.4V7.8h11.8v0.6l-1.4,0.3
					c-1.6,0.4-1.8,0.6-1.8,3.5v14.1c0,2.8,0.3,3.1,1.8,3.5l1.4,0.3v0.6H156z"/>
				<path class="st0" d="M189.9,30.7v-0.6l1.6-0.3c1.5-0.3,1.8-0.7,0.7-3.5l-1.4-3.5h-9.4l-1.1,2.5c-1.4,3.3-1.3,4.1,0.4,4.4
					l1.5,0.3v0.6h-8.5v-0.6l0.9-0.3c1.2-0.4,1.5-0.8,2.9-3.9l7.4-15.9c0.5-1.1,0.5-1.4,0-2.3l0.1-0.2h4.8l8.1,18.8
					c1.1,2.7,1.5,3.1,2.7,3.5l0.9,0.3v0.6H189.9z M187.5,14.7c-0.5-1.3-1.1-2.7-1.2-3.3h-0.1c-0.2,0.6-0.8,2.1-1.4,3.5l-2.8,6.4h8.1
					L187.5,14.7z"/>
			</g>
		</g>
		<path class="st0" d="M19.4,0C8.7,0,0,8.7,0,19.4c0,10.7,8.7,19.4,19.4,19.4c10.7,0,19.4-8.7,19.4-19.4C38.9,8.7,30.2,0,19.4,0z
			 M30.2,31.6c-2.6,0.3-5.3,0.1-7.8-0.6c1.2-0.9,2.3-1.9,3.1-3.2c2.8,0.3,5.6,0.1,8.2-0.7C32.9,28.7,31.7,30.3,30.2,31.6z
			 M21.3,35.6C21.3,35.6,21.3,35.6,21.3,35.6c-0.3,0-0.6,0.1-0.8,0.1c-0.1,0-0.1,0-0.2,0c-0.2,0-0.4,0-0.6,0c-0.1,0-0.2,0-0.3,0
			c-2.3,0-4.6-0.5-6.6-1.4c0,0-0.1,0-0.1,0c-0.1,0-0.2-0.1-0.3-0.1c0.2,0,1.5,0,3.2-0.2c1.3-0.3,2.6-0.7,3.8-1.2
			c1.2,0.5,2.5,0.9,3.8,1.2c1.8,0.3,3.2,0.2,3.2,0.2c-0.1,0.1-0.3,0.1-0.4,0.2c0,0,0,0,0,0C24.6,34.9,23,35.4,21.3,35.6z M5.1,27
			c2.6,0.8,5.4,1,8.2,0.7c0.8,1.2,1.8,2.2,3.1,3.2c-2.5,0.7-5.1,0.9-7.7,0.6C7.2,30.3,6,28.8,5.1,27z M3.2,19.4c0-1.5,0.2-3,0.6-4.4
			c2.6-1.1,5.4-1.5,8.2-1.4c-0.6,1.9-0.5,3.9,0.3,5.8c-0.7,1.9-0.8,3.9-0.3,5.8c-2.8,0.2-5.7-0.3-8.2-1.4C3.4,22.4,3.2,21,3.2,19.4z
			 M8.7,7.3c2.6-0.3,5.2-0.1,7.7,0.6c-1.3,0.9-2.4,2-3.1,3.2c-2.7-0.3-5.5-0.1-8.2,0.7C6,10.1,7.2,8.6,8.7,7.3z M12.7,4.7
			c0,0,0.1,0,0.1-0.1c0,0,0,0,0,0c0.4-0.2,0.8-0.3,1.2-0.5c0,0,0.1,0,0.1,0c0.2-0.1,0.4-0.1,0.7-0.2c0.1,0,0.2-0.1,0.3-0.1
			c0.2,0,0.3-0.1,0.5-0.1c0.1,0,0.3-0.1,0.4-0.1c0.1,0,0.3-0.1,0.4-0.1c0.2,0,0.3-0.1,0.5-0.1c0.1,0,0.2,0,0.3,0
			c0.2,0,0.3,0,0.5-0.1c0.1,0,0.2,0,0.3,0c0.2,0,0.4,0,0.6,0c0.1,0,0.2,0,0.2,0c0.2,0,0.4,0,0.6,0c0.2,0,0.3,0,0.5,0
			c0.1,0,0.2,0,0.4,0c0.2,0,0.4,0,0.6,0c0.1,0,0.2,0,0.3,0c0.2,0,0.4,0.1,0.6,0.1c0.1,0,0.1,0,0.2,0c0.2,0,0.5,0.1,0.7,0.1
			c0,0,0.1,0,0.1,0c0.2,0,0.5,0.1,0.7,0.2c0,0,0.1,0,0.1,0c0.2,0.1,0.4,0.1,0.6,0.2c0.1,0,0.2,0.1,0.3,0.1c0.1,0,0.3,0.1,0.4,0.1
			c0.4,0.1,0.8,0.3,1.2,0.5c0,0,0,0,0,0c0.1,0.1,0.3,0.1,0.4,0.2c0,0-1.4-0.1-3.2,0.2c-1.3,0.3-2.6,0.7-3.8,1.2
			c-1.2-0.5-2.5-0.9-3.8-1.2c-1.7-0.3-3-0.3-3.2-0.2C12.5,4.8,12.6,4.7,12.7,4.7z M33.8,11.8c-2.7-0.8-5.5-1-8.2-0.7
			c-0.8-1.2-1.9-2.3-3.1-3.2c2.5-0.7,5.2-1,7.8-0.6C31.7,8.6,32.9,10.1,33.8,11.8z M24.6,16.2C24.6,16.2,24.5,16.3,24.6,16.2
			c-0.6-0.6-1.3-1.2-2.1-1.8c0.5-0.2,1.1-0.3,1.7-0.4C24.4,14.7,24.5,15.4,24.6,16.2z M24.6,22.7c0,0.8-0.2,1.5-0.4,2.2
			c-0.6-0.1-1.1-0.2-1.7-0.4C23.2,23.9,23.9,23.3,24.6,22.7C24.5,22.6,24.6,22.6,24.6,22.7z M19.9,29.5c-0.2,0.1-0.3,0.2-0.5,0.2
			c-0.1-0.1-0.3-0.1-0.4-0.2c-1.2-0.7-2.1-1.4-2.8-2.2c1.1-0.3,2.2-0.7,3.3-1.1c1.1,0.5,2.1,0.8,3.2,1.1
			C21.9,28.1,20.9,28.9,19.9,29.5z M14.3,22.6c0.6,0.6,1.3,1.3,2.1,1.8c-0.5,0.2-1.1,0.3-1.7,0.4C14.4,24.1,14.3,23.4,14.3,22.6z
			 M14.7,14c0.6,0.1,1.1,0.2,1.7,0.4c-0.8,0.6-1.5,1.2-2.1,1.8C14.3,15.5,14.4,14.7,14.7,14z M19,9.4c0.1-0.1,0.3-0.2,0.4-0.2
			c0.2,0.1,0.3,0.2,0.5,0.2c1,0.6,2,1.3,2.8,2.2c-1.1,0.3-2.2,0.7-3.2,1.1c-1.1-0.5-2.1-0.8-3.3-1.1C16.9,10.8,17.8,10.1,19,9.4z
			 M19.9,15.9c1.5,0.9,2.9,2.1,3.7,3.5c-0.9,1.5-2.2,2.7-3.7,3.5c-0.2,0.1-0.3,0.2-0.5,0.2c-0.1-0.1-0.3-0.1-0.4-0.2
			c-1.7-1-3-2.2-3.8-3.6c0.8-1.3,2-2.6,3.8-3.6c0.1-0.1,0.3-0.2,0.4-0.2C19.6,15.7,19.7,15.8,19.9,15.9z M26.8,25.2
			c0.2-0.8,0.4-1.6,0.4-2.5c0-1.1-0.2-2.2-0.6-3.2c0.4-1,0.6-2.1,0.6-3.2c0-0.9-0.1-1.7-0.4-2.5c2.8-0.2,5.7,0.3,8.3,1.4
			c0.4,1.4,0.6,2.9,0.6,4.4c0,1.5-0.2,3-0.6,4.4C32.5,24.9,29.6,25.3,26.8,25.2z"/>
	</g>
</g>
<g>
	<path class="st0" d="M222,16.4c0.2-0.2,0.2-0.3,0.4-0.3c0.3,0,2.1,0.8,3.4,1.4c1.2,0.6,1.7,1,1.7,1.1c0,0.2-0.2,0.6-0.4,1
		c-0.2,0.3-0.4,0.4-0.5,0.4c0,0-0.1,0-0.2-0.1c-1.6-1.1-2.9-1.7-4.2-2.2c-0.5-0.2-0.5-0.2-0.6-0.4C221.5,17.3,221.8,16.8,222,16.4z
		 M238.6,17.2c0,0.1,0,0.2,0,0.3c0,0.3,0,0.4-0.4,0.9c-0.8,1-2.4,2.6-3.4,3.5c-2.5,2.2-6.2,4.5-9.6,5.7c-0.7,0.3-1,0.4-1.3,0.7
		c-0.1,0.1-0.2,0.1-0.2,0.1c-0.3,0-0.7-0.8-1.2-2c1.5-0.2,3.2-0.8,5.2-1.8c2.6-1.3,5.1-3,7.1-5.1c1.3-1.3,2.1-2.3,3.3-4
		C238.2,16.3,238.3,16.5,238.6,17.2z M229.3,15.1c-0.2,0.3-0.4,0.5-0.5,0.5c0,0-0.1,0-0.2-0.1c-0.3-0.3-0.8-0.7-1.6-1.2
		c-0.9-0.7-1.4-1-2.8-1.6c-0.2-0.1-0.3-0.2-0.3-0.3c0-0.1,0.1-0.3,0.5-0.7c0.3-0.3,0.3-0.4,0.4-0.4c0.4,0,1.9,0.8,3.2,1.7
		c1.3,0.8,1.7,1.2,1.7,1.4C229.8,14.4,229.6,14.7,229.3,15.1z"/>
	<path class="st0" d="M249.1,14.8c-4.4,0-5.3,0-5.9,0.1c0,0,0,0-0.1,0c-0.3,0-0.4-0.4-0.4-1.8c0.8,0.1,1.5,0.1,2.9,0.1h7.4
		c1.5,0,2.8,0,3.7-0.1c0.1,0,0.1,0,0.2,0c0.3,0,0.3,0.1,0.3,0.9c0,0.6,0,0.7-0.4,0.7c0,0-0.2,0-0.3,0c-0.3,0-1.5,0-2.9,0h-2.9v9.4
		c7.1,0,7.1,0,7.9-0.1c0.2,0,0.4,0,0.6,0c0.3,0,0.3,0.1,0.3,1.1c0,0.6,0,0.6-0.3,0.6c-0.1,0-0.4,0-0.7,0c-0.7,0-3.8-0.1-8.8-0.1
		c-3.8,0-7.8,0.1-8.7,0.2c0,0-0.1,0-0.1,0c-0.3,0-0.4-0.4-0.4-1.8c1.3,0.1,2.6,0.1,4.8,0.1c0.1,0,2.1,0,2.6,0c0.3,0,0.3,0,1.1,0
		V14.8z"/>
	<path class="st0" d="M263.8,13.6c0-1.4,0-2.1-0.2-3.1c1.6,0.1,2.1,0.2,2.1,0.5c0,0.1,0,0.1-0.1,0.3c-0.1,0.3-0.2,0.9-0.2,2.2v3.8
		c0,0.7,0,2.1,0,2.3c0,0.2,0,0.4,0,0.5c0,0.3-0.1,0.4-0.4,0.4c-0.3,0-0.6,0-0.8,0c0,0,0,0-0.1,0c0,0,0,0-0.1,0c0,0-0.1,0-0.1,0
		c-0.3,0-0.4-0.1-0.4-0.5c0-0.1,0-0.3,0-0.7c0-0.8,0.1-1.7,0.1-2.1V13.6z M274.8,11c0,0.1,0,0.1-0.1,0.3c-0.1,0.3-0.2,0.8-0.2,1.8
		c0,0.2,0,0.6,0,1.1c0,0.5,0,0.9,0,1.1c0,3.8-0.2,5.5-0.9,7.3c-0.8,2.2-2.6,4.1-4.9,5.4c-0.6,0.3-0.9,0.5-1.1,0.5
		c-0.2,0-0.2,0-0.4-0.4c-0.3-0.3-0.5-0.5-0.9-0.7c1.6-0.8,2.4-1.2,3.2-1.9c1.8-1.5,2.8-3.6,3.1-6.4c0.1-1.1,0.2-2.1,0.2-4.3
		c0-2.1-0.1-3.4-0.2-4.4C274.4,10.5,274.8,10.6,274.8,11z"/>
	<path class="st0" d="M283.8,13.5c-1.5,0-2.4,0.1-3.2,0.2c-0.1,0-0.2,0-0.3,0c-0.2,0-0.3-0.1-0.4-0.4c-0.1-0.4-0.2-0.9-0.2-1.5
		c1.6,0.2,2.5,0.2,6.1,0.2c0.7,0,5.6,0,8.6,0c0.6,0,0.9,0,1.2-0.1c0.1,0,0.2,0,0.3,0c0.3,0,0.5,0.2,0.8,0.7c0.3,0.4,0.6,0.9,0.6,1.1
		c0,0.2-0.1,0.3-0.3,0.4c-0.5,0.3-0.5,0.3-1.5,1.6c-1.3,1.6-3.7,3.8-4.1,3.8c-0.1,0-0.2,0-0.2-0.1c-0.4-0.4-0.6-0.5-1.3-0.8
		c2.3-1.5,3.6-2.8,5.2-5L283.8,13.5z M288.4,15.8c0.4,0.1,0.6,0.2,0.6,0.4c0,0.1,0,0.1-0.1,0.5c-0.1,0.3-0.2,0.5-0.2,1.2
		c-0.1,1-0.4,2.8-0.7,3.5c-0.8,2.8-2.4,5-4.7,6.5c-0.7,0.4-1.3,0.8-1.5,0.8c-0.1,0-0.2,0-0.5-0.4c-0.2-0.2-0.4-0.3-0.9-0.6
		c2.4-1.2,3.7-2.2,4.8-3.9c1-1.7,1.7-4.3,1.7-6.5c0-0.8,0-1.2,0-1.6C287.5,15.6,287.9,15.7,288.4,15.8z"/>
	<path class="st0" d="M305.3,15.1c0.9,2.2,1.5,3.2,2.8,4.8c-0.3,0.4-0.5,0.7-0.8,1.2c-1-1.5-1.5-2.5-2.2-4.3c0,1.3,0.1,2.7,0.1,3.7
		v6.7c0,1.2,0,2,0.1,2.6h-1.7c0.1-0.7,0.1-1.4,0.1-2.6v-6.2c0-1,0-2.2,0.1-3.6c-0.8,3.1-1.7,5.1-3.2,7c-0.2-0.5-0.5-0.9-0.9-1.3
		c1.1-1.3,1.9-2.7,2.6-4.4c0.5-1.1,0.9-2.6,1.1-3.4h-1.4c-0.7,0-1.2,0-1.6,0.1v-1.4c0.3,0.1,0.9,0.1,1.6,0.1h1.6v-2.2
		c0-1.3,0-1.8-0.1-2.3h1.6c-0.1,0.6-0.1,1.2-0.1,2.3v2.2h1.3c0.6,0,1,0,1.5-0.1v1.4c-0.4,0-0.9-0.1-1.5-0.1H305.3z M307.4,27
		c0.3,0,0.4,0,0.6,0c0.4,0,0.9,0,1.5-0.1c1.6-4.2,2.8-7.9,3.3-10.7l1.6,0.4c-1.3,4.4-2.2,7.2-3.4,10.2c3.7-0.4,3.7-0.4,6.5-1
		c-0.7-1.5-1.1-2.1-2.4-4.3l1.2-0.6c2,3.2,2.7,4.5,4,7.4l-1.4,0.7c-0.4-1-0.5-1.2-0.8-2c-4.1,0.8-5.1,0.9-9,1.4
		c-0.7,0.1-0.9,0.1-1.3,0.2L307.4,27z M312.6,10.6c-1,3.4-2.3,6.3-3.8,8.5c-0.4-0.4-0.7-0.7-1.2-1c1.7-2.1,3-4.8,3.6-8L312.6,10.6z
		 M316.3,10c0.5,1.6,1,2.9,1.9,4.5c0.8,1.4,1.5,2.3,2.5,3.4c-0.4,0.3-0.8,0.7-1.2,1.1c-1.9-2.3-3.2-4.8-4.6-8.5L316.3,10z"/>
	<path class="st0" d="M332,11.6c0-0.9,0-1.4-0.2-2.1h1.9c-0.1,0.6-0.2,1.2-0.2,2.1v14.5h6.6V15.8c0-1,0-1.5-0.1-2.1h1.8
		c-0.1,0.7-0.1,1.4-0.1,2.1V27c0,0.9,0,1.6,0.2,2.4h-1.7v-1.9h-14.4v1.9h-1.6c0.1-0.9,0.1-1.4,0.1-2.3V15.9c0-0.8,0-1.5-0.1-2.2h1.8
		c-0.1,0.7-0.1,1.2-0.1,2.2v10.2h6.2V11.6z"/>
	<path class="st0" d="M354.8,11.2c0-0.7-0.1-1.5-0.2-1.9h1.8c-0.1,0.6-0.2,1.1-0.2,1.9v1.4h7c1.1,0,1.8,0,2.6-0.2V14
		c-0.6-0.1-1.2-0.1-2.5-0.1h-15c-1.1,0-1.8,0-2.5,0.1v-1.6c0.8,0.1,1.5,0.2,2.5,0.2h6.4V11.2z M354.8,16.2c0-0.7,0-1.2-0.1-1.8h1.7
		c-0.1,0.4-0.1,1-0.1,1.8V17h5.3c0.9,0,1.5,0,2.1-0.1c-0.1,0.6-0.1,1.1-0.1,1.8v6.5c0,1.5-0.5,1.8-2.3,1.8c-0.9,0-1.4,0-2.3-0.1
		c-0.1-0.6-0.2-1-0.4-1.5c1.1,0.2,1.9,0.3,2.6,0.3s0.9-0.1,0.9-0.7v-6.7h-5.9v8.9c0,1,0,1.7,0.2,2.5h-1.8c0.1-0.8,0.2-1.6,0.2-2.4
		v-8.9h-5.4V25c0,1,0,1.8,0.1,2.4h-1.8c0.1-0.7,0.1-1.4,0.1-2.4v-6.3c0-0.7,0-1.2-0.1-1.8c0.7,0.1,1.2,0.1,2.2,0.1h4.8V16.2z"/>
	<path class="st0" d="M371.3,22.3c-0.3,3-0.5,4.2-1.3,6l-1.1-0.5c0.8-1.9,1.1-2.9,1.3-5.7L371.3,22.3z M375.2,20h1.1
		c1.1,0,1.7,0,2.1-0.1c0,0.3,0,0.4,0,0.9c-0.1,3-0.5,6.2-0.9,7.4c-0.3,1-0.9,1.3-2.1,1.3c-0.4,0-0.9,0-1.7-0.1c0-0.1,0-0.1,0-0.1
		v-0.1c0-0.3-0.1-0.8-0.2-1.2c0.9,0.2,1.5,0.3,2,0.3c0.7,0,0.9-0.3,1.2-1.9c0.2-1.1,0.4-2.9,0.4-5.1h-4.8c-0.9,0-1.5,0-2,0.1
		c0-0.5,0.1-1.1,0.1-2.3v-6.2c0-1.5,0-1.9-0.1-2.6c0.6,0.1,1.2,0.1,2.5,0.1h3.5c1,0,1.5,0,2.3-0.1v1.4c-0.7-0.1-1.2-0.1-2.1-0.1
		h-1.2v2.1h0.9c0.9,0,1.4,0,1.9-0.1v1.3c-0.6-0.1-1.1-0.1-1.9-0.1h-0.9v2h0.9c0.9,0,1.4,0,1.9-0.1v1.3c-0.5-0.1-1.1-0.1-1.9-0.1
		h-0.9V20z M374,11.4h-2.5v2.1h2.5V11.4z M374,14.6h-2.5v2h2.5V14.6z M371.5,17.7V20h2.5v-2.3H371.5z M372.7,22.2
		c0.3,2.3,0.4,2.9,0.4,4.9l-1.1,0.2c0-0.4,0-0.7,0-0.9c0-1.6,0-2.6-0.2-4L372.7,22.2z M374.2,22.2c0.4,1.4,0.6,2.4,0.8,4l-1,0.3
		c-0.2-1.9-0.3-2.8-0.7-4.1L374.2,22.2z M375.6,21.9c0.4,1.1,0.6,1.6,0.9,3l-0.9,0.4c-0.3-1.5-0.4-2-0.8-3.1L375.6,21.9z
		 M385.2,18.2c0.3,2.6,0.7,4.2,1.5,6c0.8,1.8,1.6,2.9,3,4.3c-0.4,0.4-0.8,0.7-1.1,1.3c-1.6-1.8-2.5-3.3-3.3-5.4
		c-0.7-2-1.1-3.4-1.4-6.1h-2.6c-0.2,5.6-0.7,8.4-2.3,11.4c-0.4-0.4-0.7-0.5-1.3-0.8c0.7-1.1,1.1-2.2,1.4-3.5
		c0.6-2.4,0.8-6.1,0.8-11.8c0-1.9,0-2.6-0.1-3.2c0.7,0.1,1.3,0.1,2.5,0.1h3.7c1.2,0,1.8,0,2.4-0.1c-0.1,0.5-0.1,1.1-0.1,2.5v3.1
		c0,1.3,0,1.9,0.1,2.4c-0.4-0.1-1.1-0.1-2.2-0.1H385.2z M387.1,16.9v-5.3h-5.7v1.1c0,1.1,0,1.1,0,4.1H387.1z"/>
</g>
</svg>
