<svg xmlns="http://www.w3.org/2000/svg" viewBox="0 0 185.88 45.37"><defs><style>.cls-1{fill:#fff;}</style></defs><g id="レイヤー_2" data-name="レイヤー 2"><g id="テキスト"><path class="cls-1" d="M61.48,7A53.52,53.52,0,0,1,55,15.62c-3,3.07-5.11,4.1-8.66,5.81l-.15-.26a49,49,0,0,0,9-8.33A25.89,25.89,0,0,0,59.37,5.7H56.26a27.07,27.07,0,0,0-4.77.44L50.6,4.52c1.93.18,4.26.29,6.18.29h2.74l1-.89A.74.74,0,0,1,61,3.7a.56.56,0,0,1,.48.26l1.49,1.67a.75.75,0,0,1,.25.48C63.18,6.51,62.81,6.66,61.48,7ZM77.58,34.3C76.21,35,75.47,35,72,35c-5,0-6,0-6.66-1.4a3.91,3.91,0,0,1-.26-1.74c0-1.08,0-5.77,0-6.74H60.78c-.59,6.11-3.15,9.22-12,11l-.15-.37c7.51-2.92,9.55-5.37,10.06-10.66H55a29.86,29.86,0,0,0-4.74.41L49.38,24c2.78.22,5.48.3,6.15.3h3.25c0-.19,0-.45,0-.63V19a25.7,25.7,0,0,0-3.7.41l-.85-1.59c2.77.22,5.44.26,6.14.26h6.7L68,16.84c.11-.15.37-.45.56-.45a2.06,2.06,0,0,1,.74.37L70.92,18c.18.15.4.3.4.6S71,19,70.73,19H67.07v5.33H72l1.41-1.71c.22-.26.37-.44.55-.44s.52.26.67.37l2,1.7c.22.19.37.37.37.56,0,.37-.33.4-.59.4H67.07c0,1.08-.07,6.22,0,6.74.18,1.07,1,1.22,4.55,1.22,3.74,0,4.22,0,5.25-6.22l.3,0c.15,1.18.4,4.22,1.29,4.81.45.33.52.37.52.52A2.79,2.79,0,0,1,77.58,34.3ZM54.12,12.62c-.48,0-.59-.19-1.37-1.33a9.48,9.48,0,0,0-2.63-2.7l.15-.26c2.11.22,4.92,1.37,4.92,3A1.29,1.29,0,0,1,54.12,12.62Zm11,6.33H60.85v5.33h4.26ZM78,19.58c-2.59-.89-10.88-6-14-15l.3-.15a41.87,41.87,0,0,0,2.55,3.82C69.36,5,69.88,4.33,70.18,2.74l2.4,1.85c.34.26.37.37.37.52,0,.44-.29.44-1.48.48-2.07,1.55-2.88,2.11-4.4,3.07a21.5,21.5,0,0,0,2.59,2.92,22.22,22.22,0,0,0,3.11-3.1,5.08,5.08,0,0,0,.89-1.71L76.14,8.7a.72.72,0,0,1,.37.59c0,.37-.34.44-.6.44a5.7,5.7,0,0,1-1.07-.11C72,11,71,11.47,70,11.88a19.87,19.87,0,0,0,11.7,5v.29A5.31,5.31,0,0,0,78,19.58Z"/><path class="cls-1" d="M93.56,6.11a44.77,44.77,0,0,1-2.33,5.51l.81.52a.74.74,0,0,1,.45.59c0,.26-.41.67-.82,1.07,0,.67-.14,7.29-.14,9.37,0,1.81,0,2.73.29,9.84,0,1.51,0,1.7,0,1.88A1.7,1.7,0,0,1,90,36.56a.65.65,0,0,1-.74-.74c0-.07,0-.37,0-.44.14-4.56.4-11.14.4-15.58,0-2.41-.07-4.15-.11-5.26-.55.89-3.88,6.26-6.33,8.22l-.14-.22A75.44,75.44,0,0,0,91.3,5.4,14.72,14.72,0,0,0,91.67,3l3.19,1.63c.18.11.44.26.44.55S94.86,5.74,93.56,6.11Zm23,5.66H98.93a30.36,30.36,0,0,0-4.78.41l-.89-1.6c2.78.23,5.48.3,6.18.3h12.7l1.29-1.37c.22-.26.33-.48.56-.48s.44.22.7.41l2,1.37a.74.74,0,0,1,.37.55C117.09,11.77,116.69,11.77,116.54,11.77Zm-3.81,9.14H101.89a31.48,31.48,0,0,0-4.74.4l-.89-1.59c2.78.23,5.48.3,6.14.3h6.52l1-1.26c.26-.33.37-.48.56-.48a2,2,0,0,1,.7.41l1.7,1.26a.82.82,0,0,1,.37.55C113.28,20.83,113,20.91,112.73,20.91ZM113,6.77h-11.1a30.94,30.94,0,0,0-4.77.45L96.3,5.63c2.77.22,5.44.25,6.14.25H109L110,4.59c.29-.37.4-.48.59-.48a1.76,1.76,0,0,1,.7.37l1.89,1.37a.74.74,0,0,1,.37.55C113.58,6.74,113.25,6.77,113,6.77Zm-.48,9.48H102.07a30.34,30.34,0,0,0-4.77.44l-.89-1.59c2.78.22,5.48.26,6.18.26h6.1l.89-1.26c.26-.33.41-.52.59-.52s.45.19.74.41l1.82,1.29a.91.91,0,0,1,.37.6C113.1,16.21,112.8,16.25,112.54,16.25Zm.6,10.43c0,.85,0,2.33.11,5.44,0,.78.14,2,.14,2.77,0,1.3-1.51,1.34-1.59,1.34-.77,0-.77-.19-.74-2.52H99.22c0,.19,0,.67,0,.81,0,.75-1.11,1.3-1.67,1.3s-.66-.44-.66-.81c0-.86.18-4.63.18-5.41a47.68,47.68,0,0,0-.22-5.69l2.48,1.29h11.29l.92-.81c.3-.26.45-.41.63-.41a1.37,1.37,0,0,1,.7.37l1.11.89c.15.15.34.29.34.48C114.36,26.09,113.58,26.5,113.14,26.68Zm-2-.59H99.19v6.73H111.1Z"/><path class="cls-1" d="M130.89,36.56c6.29-4.18,7-8,7.4-10.36a4.18,4.18,0,0,1-2.18.78c-1.74,0-4.37-2.52-4.37-5.74a4.64,4.64,0,0,1,4.41-4.74,5.14,5.14,0,0,1,2.22.6c0-.6,0-.82,0-1.08V12.66a40.41,40.41,0,0,0-12.51,2.66,12.21,12.21,0,0,1-1.44.56c-.7,0-2.89-1.85-2.89-3.48a2.67,2.67,0,0,1,.12-.82c1.07,1.41,1.81,1.78,2.73,1.78a14.93,14.93,0,0,0,2-.3c1.7-.29,8.4-1.33,12-1.62,0-1-.11-5-.52-5.7a4.45,4.45,0,0,0-2.44-1.82,3.61,3.61,0,0,1,1.74-.59,6.5,6.5,0,0,1,2.74,1.11,1.13,1.13,0,0,1,.59,1,9.08,9.08,0,0,1-.22,1.11,40.62,40.62,0,0,0-.37,4.77c1.4-.11,7.66-.33,8.92-.44.26,0,1.55-.15,1.66-.15,1.44,0,2.63,1,2.63,1.63s-.48.7-.89.7a1.64,1.64,0,0,1-.63-.11,34.09,34.09,0,0,0-6.84-.59c-1.63,0-3.3.07-4.93.19-.07,1.62-.07,3-.07,3.58s0,1.3,0,2.26a9.6,9.6,0,0,1,1.18,5,13.71,13.71,0,0,1-5.14,10.8A17.09,17.09,0,0,1,131,36.78Zm2-15.43c0,2.18,1.81,4,3.37,4,2,0,2-2.74,2-3.14,0-3-1-4.07-2.85-4.07A3.1,3.1,0,0,0,132.93,21.13Z"/><path class="cls-1" d="M168.45,7.59a45.07,45.07,0,0,0,6.77-1.52,12.58,12.58,0,0,1,1.92-.48A3,3,0,0,1,179.59,8c0,.44-.08.48-.85,1a6.91,6.91,0,0,0-1.63,1.52c-1.08,1.33-5.85,7.22-6.81,8.44-.48.63-1,1.33-1.93,2.59a17.79,17.79,0,0,1,9.44-3c5.37,0,8.07,3.15,8.07,7,0,4.92-4.48,8.4-10.25,8.4-3.19,0-7.11-1.22-7.11-4,0-2.48,2.37-3,3.78-3,3,0,4.77,2,5.73,5.06a6.73,6.73,0,0,0,5.63-6.66c0-3.77-2.74-5.77-6.33-5.77-7,0-12.36,6.7-12.73,7.33-.92,1.55-1.37,2.29-2.18,2.29-.48,0-.82-.37-.82-1.22a2.67,2.67,0,0,1,1.19-2.37C168.56,20,176.22,9.44,176.22,7.88a.45.45,0,0,0-.52-.51,20.58,20.58,0,0,0-5.59,1.88,5.19,5.19,0,0,1-1.44.74,3.81,3.81,0,0,1-3-3.29A.84.84,0,0,1,166,6,2.43,2.43,0,0,0,168.45,7.59Zm3.18,20.68a1.63,1.63,0,0,0-1.81,1.52c0,1.89,4,2.7,5,2.7a3.29,3.29,0,0,0,1.26-.22A5.22,5.22,0,0,0,171.63,28.27Z"/><path class="cls-1" d="M3.11,1.92C0,3.94-.62,10.26.56,15.42A46.32,46.32,0,0,0,6.71,29.88,48.3,48.3,0,0,0,17.4,41.39c4.23,3.18,10.25,5.19,13.36,3.17a15.66,15.66,0,0,0,4-4.32l-1.68-2.58-4.6-7.1c-.34-.53-2.49,0-3.58.57A10.52,10.52,0,0,0,22.1,34.2c-1,.59-1.85,0-3.61-.81-2.17-1-4.61-4.1-6.55-6.91-1.78-2.91-3.61-6.4-3.64-8.79,0-1.94-.21-3,.74-3.64a10.35,10.35,0,0,0,4-1.32c1-.75,2.33-2.51,2-3l-4.6-7.1L8.69,0A15.76,15.76,0,0,0,3.11,1.92Z"/></g></g></svg>