<svg id="レイヤー_1" data-name="レイヤー 1" xmlns="http://www.w3.org/2000/svg" width="90.26mm" height="17.42mm" viewBox="0 0 255.84 49.39">
  <defs>
    <style>
      .cls-1 {
        fill: #0b308e;
      }
    </style>
  </defs>
  <g>
    <path class="cls-1" d="M81.37,39.64c-10.69,0-18.47-5.34-18.47-15.16S70.63,9.15,81.27,9.15a37.72,37.72,0,0,1,5.39.43c1.93.35,2.53.48,2.73-.08L89.58,9h1.09v8.27H89.53l-.59-2.41c-.59-2.37-4.06-3.79-7.82-3.79-8.12,0-11,6.71-11,12.74,0,7.15,3.91,13.87,12.38,13.87,3.51,0,6.58-1.21,7.77-3.53l1.14-2.2,1.08.26-1.43,6.07a33,33,0,0,1-9.7,1.38"/>
    <path class="cls-1" d="M102.45,39v-.73l1.83-.43c2-.48,2.33-.78,2.33-4.4V15.53c0-3.58-.35-3.92-2.33-4.4l-1.83-.43V10h15v.73l-1.83.43c-2,.48-2.33.82-2.33,4.4V33.48c0,3.62.35,3.92,2.33,4.4l1.83.43V39h-15"/>
    <path class="cls-1" d="M128,39v-.73l1.83-.43c2-.48,2.33-.78,2.33-4.4V15.53c0-3.58-.35-3.92-2.33-4.4L128,10.7V10h24v5.9h-1l-.59-1.94c-.5-1.59-1.59-2-7.13-2h-4.41V22.72h4.46c4.55,0,5.24-.13,5.74-1.64l.54-1.59h.9v8.65h-.9L149,26.33c-.5-1.5-1.14-1.63-5.69-1.63h-4.46v8c0,4.05.6,4.44,2.73,4.44h2.92c5.09,0,6.53-.65,7.52-2.45l1.09-2,1,.22L152.64,39H128"/>
    <path class="cls-1" d="M163.73,39v-.73l1.83-.43c2-.48,2.33-.78,2.33-4.4V15.53c0-3.58-.35-3.92-2.33-4.4l-1.83-.43V10h16v.73l-2.68.48c-2.07.34-2.47.77-2.47,4.35V32.66c0,4.05.59,4.44,2.72,4.44h2.48c5.1,0,6.68-.6,7.47-2.45l1.29-2.89,1.24.22L188.13,39h-24.4"/>
    <path class="cls-1" d="M198.23,39v-.73l1.83-.43c2-.48,2.33-.78,2.33-4.4V15.53c0-3.58-.35-3.92-2.33-4.4l-1.83-.43V10h15v.73l-1.84.43c-2,.48-2.32.82-2.32,4.4V33.48c0,3.62.34,3.92,2.32,4.4l1.84.43V39h-15"/>
    <path class="cls-1" d="M241.24,39v-.73l2.08-.43c1.88-.39,2.23-1,.84-4.4l-1.78-4.43h-12l-1.34,3.18c-1.83,4.18-1.63,5.17.45,5.65l1.93.43V39H220.6v-.73l1.14-.39c1.53-.52,1.93-1.08,3.71-4.91l9.41-20.2c.64-1.42.64-1.76,0-3l.1-.26h6l10.25,23.9c1.44,3.45,1.93,3.92,3.47,4.44l1.13.39V39h-14.6m-3-20.37a30.5,30.5,0,0,1-1.48-4.18h-.15c-.25.82-1,2.72-1.78,4.39L231.29,27h10.3Z"/>
    <path class="cls-1" d="M24.7,0A24.7,24.7,0,1,0,49.39,24.69,24.73,24.73,0,0,0,24.7,0M38.4,40.1a24.52,24.52,0,0,1-9.87-.81,16,16,0,0,0,3.95-4,27.48,27.48,0,0,0,10.44-.9A20.55,20.55,0,0,1,38.4,40.1ZM27.07,45.19H27l-.94.08-.24,0-.77,0h-.37a19.89,19.89,0,0,1-8.38-1.8l-.11-.05-.37-.19a21.76,21.76,0,0,0,4-.3,26.91,26.91,0,0,0,4.85-1.57A26.38,26.38,0,0,0,29.47,43a21.62,21.62,0,0,0,4.1.31l-.53.24h.06A20.42,20.42,0,0,1,27.07,45.19ZM6.48,34.37a27.42,27.42,0,0,0,10.35.88,15.48,15.48,0,0,0,4,4,24.54,24.54,0,0,1-9.8.82A20.65,20.65,0,0,1,6.48,34.37ZM4.06,24.69a20.6,20.6,0,0,1,.77-5.58,24,24,0,0,1,10.48-1.73,11.12,11.12,0,0,0,.32,7.31A11.16,11.16,0,0,0,15.31,32,24,24,0,0,1,4.83,30.28,20.62,20.62,0,0,1,4.06,24.69ZM11,9.28a24.54,24.54,0,0,1,9.8.82,15.48,15.48,0,0,0-4,4A27.49,27.49,0,0,0,6.47,15,20.87,20.87,0,0,1,11,9.28Zm5.13-3.34.17-.08h0c.5-.23,1-.43,1.53-.62l.16,0q.4-.15.84-.27l.35-.1.65-.17.49-.11.52-.11.59-.1.43-.07.67-.08.36,0,.73,0h.31l.75,0,.64,0h.46l.71,0,.37,0,.82.11.21,0c.3,0,.59.1.89.16l.12,0c.3.06.6.13.89.21l.14,0,.8.23.37.12.51.17c.51.18,1,.39,1.5.61h-.05c.17.08.35.15.52.24a21.64,21.64,0,0,0-4.06.3A26.81,26.81,0,0,0,24.67,8a26,26,0,0,0-4.81-1.56A21.56,21.56,0,0,0,15.8,6.1ZM42.92,15a27.48,27.48,0,0,0-10.44-.9,16,16,0,0,0-3.95-4,24.52,24.52,0,0,1,9.87-.81A20.55,20.55,0,0,1,42.92,15ZM31.19,20.58v.12a16.59,16.59,0,0,0-2.66-2.37c.7-.21,1.41-.38,2.12-.52A7.59,7.59,0,0,1,31.19,20.58Zm0,8.23a7.59,7.59,0,0,1-.54,2.77c-.71-.14-1.42-.31-2.12-.52a16.59,16.59,0,0,0,2.66-2.37Zm-5.92,8.61-.6.31c-.19-.09-.38-.18-.57-.29a13.92,13.92,0,0,1-3.57-2.84,26.94,26.94,0,0,0,4.14-1.41,27.19,27.19,0,0,0,4.1,1.41A14,14,0,0,1,25.27,37.42Zm-7.08-8.66a15.89,15.89,0,0,0,2.61,2.3c-.69.2-1.39.38-2.1.52A7.72,7.72,0,0,1,18.19,28.76Zm.51-11c.71.14,1.41.32,2.1.52a15.89,15.89,0,0,0-2.61,2.3A7.68,7.68,0,0,1,18.7,17.81ZM24.1,12c.19-.11.38-.2.57-.29l.6.31a14,14,0,0,1,3.5,2.82,26.12,26.12,0,0,0-4.1,1.41,26.94,26.94,0,0,0-4.14-1.41A13.71,13.71,0,0,1,24.1,12Zm1.17,8.25A13,13,0,0,1,30,24.7a13.07,13.07,0,0,1-4.73,4.49l-.6.31c-.19-.1-.38-.18-.57-.29a12.68,12.68,0,0,1-4.78-4.51,12.55,12.55,0,0,1,4.78-4.52c.19-.11.38-.2.57-.29ZM34,32a10.66,10.66,0,0,0,.5-3.2,11,11,0,0,0-.82-4.12,10.88,10.88,0,0,0,.82-4.11,10.66,10.66,0,0,0-.5-3.2,23.91,23.91,0,0,1,10.52,1.76,20.42,20.42,0,0,1,0,11.11A23.91,23.91,0,0,1,34,32Z"/>
  </g>
</svg>
