<svg xmlns="http://www.w3.org/2000/svg" xmlns:xlink="http://www.w3.org/1999/xlink" viewBox="0 0 233.6 118.02"><defs><style>.cls-1{fill:#181878;}.cls-2{fill:url(#linear-gradient);}</style><linearGradient id="linear-gradient" x1="66.72" y1="25.02" x2="233.6" y2="25.02" gradientUnits="userSpaceOnUse"><stop offset="0.45" stop-color="#80b3dc"/><stop offset="0.8" stop-color="#181878"/></linearGradient></defs><g id="レイヤー_2" data-name="レイヤー 2"><g id="テキスト"><path class="cls-1" d="M20.86,110c-.29,0-.43-.1-1-.53a8.43,8.43,0,0,0-3.33-1.9,10.61,10.61,0,0,1,2.16-.25c2.27,0,3,1,3,1.73A.86.86,0,0,1,20.86,110Zm1.4-4.09a1.17,1.17,0,0,1-.8-.4c-1.7-1.52-2.29-1.94-3.26-2.22a8.54,8.54,0,0,1,1.52-.16c1.88,0,3.35.77,3.35,1.81C23.07,105.32,22.88,105.93,22.26,105.93Zm-.16,9.24a5.16,5.16,0,0,0-1.38,1.16.54.54,0,0,1-.41.19,3.08,3.08,0,0,1-2.06-2.78,2.11,2.11,0,0,1,.09-.55,2.62,2.62,0,0,0,1.38,1c1.3,0,7.4-4.81,9.81-8l.12,0C28.71,109.09,25.79,112.56,22.1,115.17Z"/><path class="cls-1" d="M45.53,114.16c-.21,0-1.17-.24-1.37-.28a24,24,0,0,0-3.77-.26,30.35,30.35,0,0,0-6.39.67c-.12,0-1.17.44-1.27.44a2.42,2.42,0,0,1-1.55-3.21,2.18,2.18,0,0,0,2.22,1.34c.87,0,2.93-.18,4.18-.28a38.34,38.34,0,0,0-.08-4.85c-.08-.46-.23-.56-.52-.67a9.31,9.31,0,0,0-1.72.32,1.69,1.69,0,0,1-.39.05c-.64,0-1.65-1.34-1.54-2.11a3.09,3.09,0,0,0,2.06.61,28.38,28.38,0,0,0,5.56-.58,2.29,2.29,0,0,1,.78-.23c.41,0,1.53.41,1.53,1.06,0,.18-.14.62-.84.62H39.85c-.42,0-.71,0-1,0,.65.44.72.49.72.71s-.25.84-.26,1c-.06.35-.07.74-.13,1.46s-.09,1.64-.14,2.47c.57,0,3.09-.14,3.58-.19.23,0,1.16-.28,1.35-.28.66,0,2.06.77,2.06,1.62A.54.54,0,0,1,45.53,114.16Z"/><path class="cls-1" d="M51,105.33a6,6,0,0,0-.23,1.87c0,.46.05,2.47.05,2.89s0,1.53-.76,1.53c-.53,0-1.13-.77-1.13-1.67,0-.18.1-.88.12-1,0-.39.09-1.15.09-2,0-2,0-2.24-1.63-2.66a2.39,2.39,0,0,1,1.29-.48c.69,0,2.29.51,2.29,1.13A2.47,2.47,0,0,1,51,105.33Zm6.22-.14c0,.34-.12,3.58-.15,4.25-.13,2.94-.94,4.58-2.4,6a6.65,6.65,0,0,1-3.38,1.87l-.09-.11c4.16-2.73,4.16-7.17,4.16-10.46,0-2.72-.05-3-1.73-3.3a2.27,2.27,0,0,1,1.5-.58c.89,0,2.4.56,2.4,1.11C57.48,104.17,57.19,105,57.17,105.19Z"/><path class="cls-1" d="M73.72,106.44a1.41,1.41,0,0,0-.51.23c-2.29,1.39-2.49,1.52-3.8,2.19-.87,3.42-1.65,6.43-5.28,8.25l-.07-.13c2.78-2.68,3.51-7.84,3.51-8.33,0-.64-.22-.8-1.21-1.1a1.79,1.79,0,0,1,1.14-.33c.56,0,1.89.26,2,.92,1-1.13,2-2.19,2-2.56,0-.14-.09-.16-.2-.16a45,45,0,0,0-6.84,1.15,6.25,6.25,0,0,1-1,.4c-.37,0-1.69-.86-1.69-1.85A2.71,2.71,0,0,1,62,104c.55.93.94,1.16,1.65,1.16,1.22,0,8.19-.76,8.28-.81a3.55,3.55,0,0,1,.85-.42,6.15,6.15,0,0,1,1.4,1c.18.17.67.61.67.95S74.8,106.21,73.72,106.44Z"/><path class="cls-1" d="M87.6,106.9c-.39.16-.39.16-1.12,1.52-2.31,4.24-5.09,7.24-9.81,8.42l0-.12a19.32,19.32,0,0,0,6-5.31c-.27-.07-.41-.16-.75-.61a6.67,6.67,0,0,0-1.9-2,11.5,11.5,0,0,1-3.17,2.27l-.07-.1c2.29-2.35,4.42-6.17,4.42-6.79s-.66-.75-1.12-.9a1.76,1.76,0,0,1,1.1-.35c.87,0,2.21.79,2.21,1.41,0,.23-.07.3-.39.64a3.62,3.62,0,0,0-.48.63,12.8,12.8,0,0,0,3-.35,6.82,6.82,0,0,1,1-.53,4.91,4.91,0,0,1,1.59,1.73C88.07,106.71,88,106.74,87.6,106.9Zm-4.69-.21c-.23,0-.39-.11-.83-.37a21.44,21.44,0,0,1-1.79,2.22c.85,0,2.93.28,3.23,1.66a16.14,16.14,0,0,0,2-3.93C85.2,106.32,83.06,106.69,82.91,106.69Z"/><path class="cls-1" d="M103.09,106.14c-.33.25-.35.34-.53,1.13-.6,2.87-1.2,4.88-2.87,6.68A11.18,11.18,0,0,1,94.83,117l-.07-.09c3.56-2.64,5.64-5.6,6.12-11.37-1.86.16-4,.34-5.59.6l-.49,0a1.78,1.78,0,0,1-.71-.3c0,.16.07,2.81.09,3.19s0,.83,0,.85c0,.25,0,1-.71,1-.51,0-1-.65-1-1.55,0-.26.07-1.41.07-1.66,0-2.41-.25-2.92-1.19-3.33a1.53,1.53,0,0,1,.91-.32,3.45,3.45,0,0,1,1.57.57,1.35,1.35,0,0,0,.75.17c.71,0,5.62-.31,6.06-.42a2,2,0,0,0,.76-.49c.15-.12.22-.18.31-.18s1.93,1.29,1.93,1.76C103.61,105.74,103.52,105.83,103.09,106.14Z"/><path class="cls-1" d="M119.08,110.6c-.3,0-.75,0-.82,0-1-.07-3.38-.07-4.66-.07a33,33,0,0,0-5,.4,2.38,2.38,0,0,1-.63.14c-.61,0-1.69-1.35-1.69-2.25a3.29,3.29,0,0,1,.37-1.17c.59,1.38.91,1.45,2.89,1.45,1.1,0,7.31-.07,7.73-.21a3.89,3.89,0,0,1,.71-.18c.71,0,2.2.3,2.2,1.22C120.21,110.34,119.75,110.6,119.08,110.6Z"/><path class="cls-1" d="M135.46,117.65c-4-2.09-5-5.87-5.53-9.07-.89,7.31-6.54,8.68-8.65,9.2l-.08-.15c5.08-2.2,6.51-6.29,6.81-10.29h-4a8.47,8.47,0,0,0-1.92.13l-.28-.66c.83.07,1.67.11,2.52.11h3.74c0-.32.07-.81.07-1.55a16.41,16.41,0,0,0-.35-3.42l2.69.67c.28.07.34.14.34.25s-.22.35-.61.6c0,.49-.14,2.9-.15,3.45h4.2l1-1.27c.08-.12.17-.21.26-.21a.9.9,0,0,1,.36.19l1.52,1.25c.07.06.18.15.18.27s-.16.19-.27.19h-7.16c1.22,5,3.92,7.28,7.71,8.32v.14A3.15,3.15,0,0,0,135.46,117.65Z"/><path class="cls-1" d="M144.6,104.45a25.34,25.34,0,0,1-2.16,3.24c.71.6,2.48,2.12,2.48,4.23a2.46,2.46,0,0,1-2.32,2.49,2.09,2.09,0,0,0-1.06-2c0,.79,0,3.82,0,4.44s-.55,1-1.26,1c-.55,0-.67-.25-.67-.57s.09-1.46.1-1.74c.08-2.22.11-6.17.11-8.46,0-3.81-.11-4.26-.3-5l2.2,1h1.13l.66-.63a.4.4,0,0,1,.25-.14.31.31,0,0,1,.23.12l1.2,1.17a.55.55,0,0,1,.2.37C145.42,104.24,144.83,104.4,144.6,104.45Zm-2.46,3.24a20,20,0,0,0,.85-4.17h-1.45c0,1.39,0,4.25,0,8.62v0a5.57,5.57,0,0,0,.65,0c.45,0,1.05,0,1.05-1.06A6.72,6.72,0,0,0,142.14,107.69Zm11.2,10a11.83,11.83,0,0,1-3-3,12.59,12.59,0,0,1-5.3,3.07l-.09-.15a13.29,13.29,0,0,0,4.63-4.19,14.76,14.76,0,0,1-1.31-5.66h-.45c0,6-2.46,8.37-4.75,9.87l-.09-.1c3-3.3,3-7.83,3-10.54a25.17,25.17,0,0,0-.29-4.76l2.42,1h3.7l.9-1.13c.15-.18.22-.23.29-.23s.18.07.34.2l1.33,1.14a.4.4,0,0,1,.17.27c0,.15-.14.17-.26.17h-6.72c0,.58,0,3.12,0,3.65h3.6l.64-.81c.07-.11.14-.16.23-.16a.36.36,0,0,1,.27.14l1.32,1.16c.22.18.24.25.24.32s-.11.28-.66.55a16.44,16.44,0,0,1-2.15,4.92,9.23,9.23,0,0,0,4.12,2.32V116A3.05,3.05,0,0,0,153.34,117.71Zm-4.73-9.93a11.27,11.27,0,0,0,1.61,4.36,16.36,16.36,0,0,0,1.26-4.36Z"/><path class="cls-1" d="M172.8,115.59a3.31,3.31,0,0,0-1.92,2c-2.35-1.06-5.21-3.88-5.93-8.67h-.13c-.28,1.93-1,6.76-8.17,8.6v-.16c5.49-2.84,6-6.61,6.29-8.44h-3.07a11.09,11.09,0,0,0-1.91.1l-.28-.63c1.08.09,2.32.1,2.51.1H163a37,37,0,0,0,.27-4.46h-4.17a10.14,10.14,0,0,0-1.91.13l-.28-.65c1.08.1,2.32.1,2.51.1h9.67l.9-1.22q.17-.21.27-.21a.68.68,0,0,1,.33.18l1.51,1.22a.36.36,0,0,1,.18.28c0,.16-.16.17-.27.17h-6.82a31.76,31.76,0,0,1-.31,4.46h3.55l.8-1.23c.14-.21.21-.25.28-.25s.16,0,.32.18l1.56,1.27c.11.09.18.16.18.26s-.14.2-.27.2h-6a10.51,10.51,0,0,0,7.55,6.55Z"/><path class="cls-1" d="M175.74,109.19c-.59,0-.75-.37-1.12-1.25a4.57,4.57,0,0,0-1-1.51l0-.13a6.92,6.92,0,0,1,1.83.48,1.85,1.85,0,0,1,1.15,1.44A1,1,0,0,1,175.74,109.19Zm13.93-2.06h-5.24V109h2.69l.37-.53c.08-.1.25-.31.38-.31a.92.92,0,0,1,.35.19l.94.67c.14.1.25.18.25.33s-.14.29-.59.57c0,.93.07,5.78.07,5.88,0,.5,0,2-2.35,2.24a3.11,3.11,0,0,0-1.55-2.29v-.12a14.48,14.48,0,0,0,1.72.09c.5,0,.5-.11.5-1.11V109.4h-2.78v4.53h.76a25.65,25.65,0,0,0-.07-3.7l1.42.3c.26.06.33.11.33.2s-.23.3-.39.38c0,.57.06,3.28,0,3.48a.81.81,0,0,1-.78.58c-.53,0-.53-.34-.51-.81H182.3c0,.56,0,1.27-.82,1.27-.33,0-.51-.15-.51-.53,0-.74.05-1.94.05-2.7a14.66,14.66,0,0,0-.12-2.22l1.47.32c.27,0,.35.09.35.23s-.1.17-.42.42v2.78H183V109.4h-2.73c0,1.15,0,6.14,0,7.16,0,.86,0,1-.17,1.13a1.3,1.3,0,0,1-.85.3c-.66,0-.7-.36-.7-.62,0-.07,0-.16,0-.25.09-1.56.11-4.46.11-6.39a20,20,0,0,0-.11-2.59l1.95.84H183v-1.85h-3.09a10.44,10.44,0,0,0-1.91.12h0c-.18.82-1.47,6.09-1.47,6.57s.62,2.52.62,2.94a1.14,1.14,0,0,1-1.1,1.17,1,1,0,0,1-1-1.06c0-.27.09-1.45.09-1.67a1.92,1.92,0,0,0-1.16-2V113a1.16,1.16,0,0,0,1.08-.26,46.73,46.73,0,0,0,2.84-5.71h0l-.21-.46c1.08.11,2.34.11,2.53.11h.66c0-.67,0-1.43,0-2.12a10,10,0,0,0-2.07.13l-.29-.66a23,23,0,0,0,2.34.11,8.65,8.65,0,0,0-.25-2.36l2.06.44c.32.07.41.09.41.23s-.3.33-.55.53v1.16h2.2a13.36,13.36,0,0,0-.27-2.38l2,.42c.35.07.4.16.4.27s-.3.37-.48.49v1.2h.55l.57-1a.52.52,0,0,1,.29-.21.54.54,0,0,1,.31.2l1.1,1a.43.43,0,0,1,.16.29c0,.16-.14.17-.26.17h-2.72c0,.11,0,1.78,0,2.12h.92l.64-1c.05-.07.14-.21.26-.21a.64.64,0,0,1,.32.19l1.26,1a.43.43,0,0,1,.16.28C189.94,107.11,189.8,107.13,189.67,107.13Zm-12.87-1.88c-.53,0-.62-.2-1-1a6,6,0,0,0-1.15-1.64v-.14a6.4,6.4,0,0,1,1.77.32c1.08.42,1.37,1.09,1.37,1.41A1,1,0,0,1,176.8,105.25Zm7.93-.66h-2.2c0,.58,0,1.55,0,2.12h2.2C184.75,106.11,184.73,104.61,184.73,104.59Z"/><path class="cls-1" d="M200.74,110.06c0,.53-.77.68-1.09.68s-.47-.28-.47-.52,0-1.8,0-2.1a9.53,9.53,0,0,1-1.44,1,.86.86,0,0,1-.85.76c-.42,0-.48-.13-.94-1.13a3.53,3.53,0,0,0-.51-.86c0,1.41,0,7.7,0,9,0,.3,0,1.11-1.19,1.11-.47,0-.63-.21-.63-.58s.1-1.4.12-1.63c.05-1.35.05-1.83.09-6a12.59,12.59,0,0,1-2.87,3.55l-.11-.11a18.75,18.75,0,0,0,2-4.21,20.16,20.16,0,0,0,.74-2.79,10.13,10.13,0,0,0-1.95.13l-.28-.65c1.15.1,2.41.1,2.53.1a14.67,14.67,0,0,0-.33-4.05l2.21.49c.09,0,.32.09.32.25s-.18.26-.62.58c0,.53,0,2.19,0,2.71l.59-.84c0-.07.14-.21.27-.21s.28.14.32.17l.94.87a.41.41,0,0,1,.15.28c0,.16-.14.17-.26.17h-2v1.17a3.24,3.24,0,0,1,2.16,1.13,14.18,14.18,0,0,0,2-3.07,10.85,10.85,0,0,0-2,.12l-.28-.65c1,.11,2.43.11,2.46.11a7.68,7.68,0,0,0,.39-1.17c-.53,0-1.06.06-1.93.06-.44,0-.73,0-1.12,0v-.13c2-.35,5.06-1.18,6.24-2.09l2,1.3a.24.24,0,0,1,.13.2c0,.15-.16.21-.32.21a3.19,3.19,0,0,1-.59-.09,23,23,0,0,1-2.43.4,6.3,6.3,0,0,1-.51,1.33h3.07l.72-1c.11-.14.18-.21.27-.21a.67.67,0,0,1,.34.17l1.22,1a.42.42,0,0,1,.18.27c0,.17-.14.19-.27.19h-4.24a8.41,8.41,0,0,0,5,2.15v.16a2.53,2.53,0,0,0-1.47,1.62,6,6,0,0,1-1.86-1.2,1.39,1.39,0,0,1-.23.12c0,.25,0,1.31,0,1.52a.74.74,0,0,1-.2.58,1.19,1.19,0,0,1-.74.27c-.46,0-.61-.13-.59-.6Zm1.64,2.62.34-.49c.06-.07.14-.16.23-.16a.71.71,0,0,1,.34.14l.8.6c.07,0,.16.12.16.21s-.11.23-.41.46v1.69c0,.51-.13.64-.6.74l1.11.09c.52,0,.52,0,.52-1.53,0-.39,0-2.38,0-2.84h-6c0,.44,0,.85,0,1.5,0,.47,0,2.89,0,3.42a2.17,2.17,0,0,1-.09.88,1.14,1.14,0,0,1-.94.49c-.65,0-.65-.37-.65-.53,0-.56.09-3.19.09-4.14a17.22,17.22,0,0,0-.15-2.82l1.81.78h5.78l.57-.69s.12-.14.21-.14.2.09.32.17l1.08.83a.4.4,0,0,1,.16.27c0,.16-.23.31-.63.6,0,.58,0,3.4,0,4a1.26,1.26,0,0,1-.55,1.25,2.75,2.75,0,0,1-1.51.5,3,3,0,0,0-1.36-2v-.07h-.18c-.35,0-.42-.14-.42-.48a2.62,2.62,0,0,1,0-.28H201v.21c0,.34,0,.83-.83.83-.57,0-.57-.3-.57-.9,0-.21,0-1.3,0-1.55a12.7,12.7,0,0,0-.13-1.64l1.51.58Zm.47-5.28.56-.53a7,7,0,0,1-.81-1.43h-1.19a8,8,0,0,1-1.19,1.71l.57.25Zm.05,2.23v-1.81h-2.16v1.81Zm-1.9,3.48v1.62h1.49v-1.62Z"/><path class="cls-2" d="M233.33,8.77C224.47,23.53,209.32,36,187,36.93c-32.22,1.29-52-13.9-75.76-15.56-14.61-1-26,2.1-34.53,6.28l.47,1c7.8-3.45,17.53-5.22,34.78-4,31.78,2.27,47.83,16.62,75.32,16.62C213.47,41.27,228,21,233.6,9.41Z"/><path class="cls-1" d="M169.58,49.93c3.63-1,4.65-3.48,6.19-6.74l13.6-30.88h.35l14,33.21c1.28,2.63,2.11,4.2,4.53,4.2v.71H195.14v-.71c1.35-.27,1.23-2.17.7-3.61l-8.66-20.95h-.45l-9,20.9c-1,2.15-.14,3.66.62,4v.36h-8.73Z"/><path class="cls-1" d="M110.67,45.64a4.45,4.45,0,0,1-4.47,2.74H96.37v-16h6.95a3.49,3.49,0,0,1,2.76,1.73c.06.14.29.09.26-.12-.1-.63-.09-2.4-.09-3.2a24.49,24.49,0,0,1,.09-2.77c0-.2-.2-.26-.26-.11a3.22,3.22,0,0,1-3,1.93H96.37V14.94h6.17c2.59,0,2.68.82,3.11,1.41.26.35.41.13.38-.14-.34-2.75-.59-3.73-2.49-3.73s-10.13.15-12.56.17h-.64a22.54,22.54,0,0,1-3.44-.07c-.34-.05-.43.33-.19.43a3.18,3.18,0,0,1,2.08,3.3V46.44c0,3.12-.88,3.27-2.1,3.87-.34.17-.31.51.26.45a28.2,28.2,0,0,1,3.44-.11h7.09c2.43,0,8.39.18,10.29.18s2.38-1.59,3.28-5.06C111.12,45.52,110.85,45.24,110.67,45.64Z"/><path class="cls-1" d="M73.58,50.37A4.15,4.15,0,0,1,71.68,47V16.35a4.14,4.14,0,0,1,1.9-3.41c.36-.19.12-.53-.16-.46a37.68,37.68,0,0,1-5.59.37c-1.32,0-4.55-.1-5.62-.27-.34-.05-.43.33-.19.43a3.19,3.19,0,0,1,2.08,3.3V47A3.19,3.19,0,0,1,62,50.3c-.24.1-.15.47.19.42,1.07-.17,4.3-.26,5.62-.26a39.26,39.26,0,0,1,5.59.36C73.7,50.89,73.94,50.55,73.58,50.37Z"/><path class="cls-1" d="M161.71,50.37a4.18,4.18,0,0,1-1.9-3.41V16.35a4.16,4.16,0,0,1,1.9-3.41c.37-.19.12-.53-.16-.46a37.48,37.48,0,0,1-5.59.37c-1.31,0-4.54-.1-5.61-.27-.34-.05-.44.33-.19.43a3.19,3.19,0,0,1,2.08,3.3V47a3.19,3.19,0,0,1-2.08,3.3c-.25.1-.15.47.19.42,1.07-.17,4.3-.26,5.61-.26a39,39,0,0,1,5.59.36C161.83,50.89,162.08,50.55,161.71,50.37Z"/><path class="cls-1" d="M142.62,45.64a4.45,4.45,0,0,1-4.47,2.74h-9.83v-32a4.14,4.14,0,0,1,1.9-3.41c.36-.19.12-.53-.17-.46a37.43,37.43,0,0,1-5.58.37c-1.32,0-4.55-.1-5.62-.27-.34-.05-.43.33-.19.43a3.19,3.19,0,0,1,2.08,3.3V46.44c0,3.12-.89,3.27-2.11,3.87-.33.17-.31.51.27.45a28.1,28.1,0,0,1,3.43-.11h7.09c2.44,0,8.4.18,10.29.18s2.39-1.59,3.29-5.06C143.07,45.52,142.8,45.24,142.62,45.64Z"/><path class="cls-1" d="M58.48,37.38c-4.76,6-15.68,14.09-28.25,14.09C12.16,51.47,0,39.88,0,25.6,0,10,13.44,0,30.23,0c10.12,0,16.6,4.62,19,4.5l-.33,10.34-1-.11c-1.75-5-9.09-12-18.74-11.24-8.6.65-15.67,10.44-15.78,22.07-.12,13,7.19,21.82,17.86,21.82,11.43,0,19.52-4.14,26.66-11.1Z"/><path class="cls-1" d="M53.34,68v22.2H49.43V68H42V64.29H60.8V68Z"/><path class="cls-1" d="M64.21,77.11a12.69,12.69,0,0,1,4-9.39A13.21,13.21,0,0,1,77.8,63.8,13.54,13.54,0,0,1,91.25,77.26a12.77,12.77,0,0,1-4,9.47,13.68,13.68,0,0,1-18.67.43A12.7,12.7,0,0,1,64.21,77.11Zm3.94,0a9.59,9.59,0,0,0,16.37,7,10,10,0,0,0,0-13.86,9.63,9.63,0,0,0-13.62,0A9.29,9.29,0,0,0,68.15,77.15Z"/><path class="cls-1" d="M98.12,64.29l6.74,17.29,7-18.55,6.73,18.55,7.16-17.29H130L118.47,91.8l-6.66-18.33-6.93,18.35-11-27.53Z"/><path class="cls-1" d="M150.27,68H139.9v6.21H150v3.67H139.9v8.65h10.37v3.67H136V64.29h14.28Z"/><path class="cls-1" d="M167.59,79.14l8,11h-4.78l-7.38-10.59h-.71V90.16h-3.9V64.29h4.57q5.13,0,7.41,1.93a7.08,7.08,0,0,1,2.51,5.66,7.32,7.32,0,0,1-1.57,4.72A7,7,0,0,1,167.59,79.14Zm-4.86-3H164q5.55,0,5.55-4.24,0-4-5.4-4h-1.39Z"/></g></g></svg>