<?xml version="1.0" encoding="utf-8"?>
<!-- Generator: Adobe Illustrator 24.3.0, SVG Export Plug-In . SVG Version: 6.00 Build 0)  -->
<svg version="1.1" id="_200_main_copy_pc" xmlns="http://www.w3.org/2000/svg" xmlns:xlink="http://www.w3.org/1999/xlink" x="0px"
	 y="0px" viewBox="0 0 1189.4 269.6" style="enable-background:new 0 0 1189.4 269.6;" xml:space="preserve">
<style type="text/css">
	.st0{fill:#FFFFFF;}
</style>
<g>
	<path class="st0" d="M253,50.3c0,8.1,0.5,45,0.5,49.9c0,2.7-1.6,4.2-5.2,4.2c-2.2,0-3.4-1.3-3.4-3.5c0-5.1,1-37.9,1.1-47.5
		c-4.5,8.2-10.4,16.2-17.4,22.3c-3,2.3-5.6,0.1-3.1-3c8.9-11.4,16.1-24.9,19.3-38.6h-15.2c-1.5,0-2.5-0.5-2.5-2.3
		c0-1.7,1-2.3,2.5-2.3h16.2c-0.1-10.6-0.6-22.1-1.5-27.9c-0.1-1,0.5-1.6,1.5-1.6c7.3,0,13.2,0.7,13.2,3.5c0,2-2.3,3.3-5.8,4
		c-0.1,4.1-0.1,13.1-0.2,22.1h3.5c2.3-3.7,5.1-7.7,6.7-7.7c2.3,0,8.9,7.1,8.9,9.7c0,1.9-2.4,2.7-4.9,2.7H253V50.3L253,50.3z
		 M265.5,67.3c-2.9-0.2-3.9-3.1-5.4-6.7c-1-2.4-2.4-5-3.8-7.3c-1.3-2.2,0-4.4,3-3.3c5.9,2.4,11.7,7,11.4,12.3
		C270.6,65.4,268.6,67.4,265.5,67.3z M329.6,93.8c0.1,4-2.1,5.9-5.1,5.9c-2.5,0-3.5-1.4-4.7-4.3c-0.8-2-1.6-4.8-2.9-7.8
		c-12.2,3.7-27.4,6.3-44.5,7.8c-0.5,2.7-1.6,5-3.5,4.8c-2.3-0.1-4.3-5.6-5-11.6c0-1,0.5-1.6,1.4-1.5c5.5-0.1,10.6-0.2,15.4-0.5
		c4.8-12.7,8.7-28.4,9.8-39.1c0-0.9,1-1.5,2-1.3c5.5,1.3,11.6,3.7,11.6,6.3c-0.1,1.6-2.6,2.3-4.8,2.6c-2.4,7.8-7.5,20.9-12.8,31.2
		c10.9-0.7,20.2-1.7,28.2-2.9c-1.9-3.5-4-6.4-6.4-9.5c-1.4-1.7,0.5-4.2,2.9-2.9C324.5,77.9,329.6,88.6,329.6,93.8z M265.5,49
		c7.5-8.8,13.6-18.3,15.7-27.6c0.1-1.3,1-1.9,2.1-1.6c3.9,0.8,10.8,4.1,10.8,6.4c0.1,1.9-1.8,2.6-5.2,2.2
		c-4,6.9-10.6,16.8-20.4,23.3C265.9,53.7,263.8,51.6,265.5,49z M301.7,7.7c1.6-2.1,3.5-4.1,4.6-4.1c2.4,0,8.1,5.4,8.1,7.4
		c0,1.4-1.5,2.6-4.1,3.3c3.2,13,9.7,20.5,21.5,27c2.3,1.3,2.1,2.8-0.5,3.8c-1.7,0.6-3.3,2-4.4,3.3c-1.4,1.7-2.6,1.6-5-0.3
		c-9.6-7.4-16.1-21.9-17.7-35.7h-22.5c-1.5,0-2.5-0.5-2.5-2.3c0-1.7,1-2.3,2.5-2.3L301.7,7.7L301.7,7.7z"/>
	<path class="st0" d="M432.7,85.9c0.2-7.7,0.5-16.2,0.5-19.8c0-3.8,0.2-28.3-1.1-37c-0.1-1.2,0.5-1.7,1.5-1.7
		c6.7,0,14.1,0.6,14.1,3.7c0,2.1-2.5,3.4-6.2,4.1c-0.2,5.8-0.1,26.3-0.1,29.8c0,6,0.3,30.8,0.3,34.6c0,2.7-2.1,3.8-5.8,3.8
		c-2.3,0-3.5-1.2-3.5-3.5c0-1.4,0.1-4.9,0.2-9.3h-70.7l0.1,9.2c0,2.7-2.1,4-5.8,4c-2.3,0-3.5-1.3-3.5-3.4c0-4.2,0.8-27.5,0.8-34
		c0-4,0.2-28.3-1.1-37.2c-0.1-1.2,0.5-1.7,1.5-1.7c6.7,0,14.1,0.6,14.1,3.7c0,2.1-2.5,3.4-6.2,4.1c-0.2,5.8-0.1,26.4-0.1,29.9
		s0.1,12.7,0.2,20.8h30.9c0.3-17.3,0.8-71.4-0.6-82.1c-0.1-1.2,0.6-1.7,1.7-1.7c2.1,0,14.1,0.3,14.1,3.6c0,2.7-2.6,3.7-6.4,4.5V86
		L432.7,85.9L432.7,85.9z"/>
	<path class="st0" d="M555.5,58c0,22.3-17.6,33.9-41,33.9c-4,0-4.2-3.6-0.7-4.3c19.7-4,32.5-12.4,32.5-31.5
		c0-12.4-6.2-22.8-17.7-27.7c-0.3,4.4-1.5,9.5-3.2,14.3c-6.6,18.6-25.7,41.8-39.3,41.8c-6,0-12-8.5-13-22.2
		c-1.1-14.7,4.4-25.5,12-32.3c6.7-6.1,17.1-10.4,27.9-10.4C540.2,19.5,555.5,37,555.5,58z M522.2,26.2c-3-0.6-6.2-0.9-9.6-0.9
		c-9.8,0-17.6,3.3-23.1,8.6c-6,5.8-9.7,14.1-9,25.6c0.6,9,3.6,14.4,7,14.4c10.9,0,27.4-22.7,32.7-38.3
		C521.3,32.5,522,29.1,522.2,26.2z"/>
	<path class="st0" d="M663.7,27.2c1.8-2.6,4.3-5.5,5.7-5.5c2.6,0,9.9,5.6,9.9,8.1c0,1.6-2.4,2.8-4.7,3.7
		c-0.3,10.2,0.1,30.7,0.1,35.7c0,3.6-1.9,4.4-5.2,4.4c-2.7,0-3.6-2.1-3.6-4v-5.5h-31.5c0.2,13.8,0.5,32.7,0.5,36.1
		c0,2.7-2.2,4.2-5.9,4.2c-2.3,0-3.8-1.3-3.8-3.5c0-3.8,0.6-22.8,0.8-36.8h-30.1v8.7c0,2.6-1.8,3.7-5.5,3.7c-2.1,0-3.3-1.2-3.3-3.3
		c0.1-7.1,0.9-38.7-0.3-49.4c-0.2-1.3,0.8-1.9,1.8-1.5c2.2,0.6,6.6,2.6,9.3,4.7h28.2c-0.2-9.4-0.6-19.1-1.4-24.4
		c-0.1-1.2,0.5-1.9,1.6-1.9c7.6,0,14.2,0.7,14.2,3.6c0,2-2.4,3.5-5.9,4.2c-0.1,3.5-0.2,10.8-0.2,18.5h29.3L663.7,27.2L663.7,27.2z
		 M626.1,59.6c0.1-3,0.1-5.6,0.1-7.4c0-2.3,0-10.8-0.1-20.4h-26.6c-0.8,0.6-2.1,0.9-3.5,1.2c-0.2,3.7-0.2,15.5-0.2,18v8.6H626.1z
		 M666,59.6c0-9.2,0.1-22,0.1-27.8h-31.8c0,8.7,0,16.9,0,19.1l0.1,8.7C634.4,59.6,666,59.6,666,59.6z"/>
	<path class="st0" d="M715.1,43.3c4,17.2-3,32-11.9,32c-2.7,0-5.2-1.6-5.2-5.2c0-5.2,4.9-6.5,8.1-10.9c3.8-5.2,3.9-10.8,3.8-15.1
		C709.8,40.2,714.4,40.4,715.1,43.3z M731,26.8c7.9,0,13.1,1.3,13.1,4c0,2.2-2.4,3.4-5.9,4c-0.2,5.8-0.3,47.1-0.3,50.7
		c0,5.6,0.9,7.6,17.1,7.6c15,0,17.6-2.3,18.7-5.6c1-2.9,1.9-7.4,2.4-9.7c0.6-2.8,4.2-2.4,4.3,0.2c0.1,2,0.2,5.7,0.3,8.6
		c0.2,4,2.6,4.7,2.6,7.2c0,2.8-5,7.8-28.2,7.8c-23.4,0-25.9-3.4-25.9-14.1c0-4.7,0.6-48.7-0.7-58.3C728.3,27.5,729.1,26.8,731,26.8z
		 M741,1.4c7.9,1.3,19.2,7,20.7,14.5c0.9,3.8-0.7,7-4.4,7.8c-3.9,0.9-6.2-3.1-9.8-7.9c-2.9-4.2-5.9-7.1-8.8-10
		C736.7,3.8,737.5,0.9,741,1.4z M784.6,40.3c7.3,3.6,17.3,13.3,17,21.1c-0.1,4.1-2.5,6.7-6.2,6.5c-4.1-0.1-5.2-5-7.6-11.1
		c-2.2-5.4-4.2-9.2-6.5-13C779.9,41.3,781.4,38.7,784.6,40.3z"/>
	<path class="st0" d="M829.9,37c3.1,0.3,6.5-0.5,10.9-2.2c7.1-2.8,20.1-8,32.1-12.6c8.7-3.3,17.9-5.6,26-5.6c4.4,0,9.8,2,9.8,5.4
		c0,2.6-1.5,4.2-5.5,4.2c-4.7,0-9.5-1-14.6,0.9C877.1,31.6,868,48.6,868,63.5c0,17.7,12.3,21.5,27.4,19.7c4.8-0.6,7.2,0.9,7.1,3.7
		c-0.1,4.1-4,5.6-9.6,6.1c-19.3,1.5-32.3-8.4-32.3-27c0-13.7,5.7-24.5,14.4-35.4c2.1-2.6,1-3.1-1.5-2.4c-8.6,2.3-20.3,9.2-28.8,13.8
		c-3.4,1.9-8.6,5.2-12.4,5.1c-7.1-0.2-13.3-5.8-13.3-12.4c0-1.6,1-2.3,2.6-1.4S827,36.7,829.9,37z M907.4,56c0,2.7-1.9,4.1-3.9,4.1
		c-2.6,0-3.4-2-6-5.1c-1.9-2.3-4.6-4.8-6.8-7c-1.4-1.4-0.6-3.3,1.4-3.1C899.4,45.4,907.4,50.5,907.4,56z M917,45.1
		c0,2.4-1.5,4.1-3.8,4.1c-1.7,0-2.9-0.9-5-3.4c-2.5-2.8-5.9-5.4-8.4-7.2c-1.8-1.4-1-3.4,1.1-3.4C908.3,35.3,917,39.1,917,45.1z"/>
	<path class="st0" d="M962.2,91.6c3.1,6.1,0.9,11.9-4.1,11.9c-2.5,0-4.2-1.7-5.6-4.7c-1.6-3.3-3.4-6.3-5.6-9c-2.1-2.4-5.2-5.5-8.2-8
		c-1.9-1.7-1.3-3.5,1.5-3.3C949.8,79.4,958.4,84.4,962.2,91.6z"/>
	<path class="st0" d="M53.8,199.9c2-3.5,4.6-7,6-7c2.2,0,8.1,6.7,8.1,9.2c0,1.7-2.1,2.4-4.3,2.4h-21c-3.3,4.4-7,8.6-10.9,12.7h14.6
		c1.5-2.1,3.4-4.3,4.6-4.3c2.2,0,8.8,5,8.8,7.6c0,1.5-1.9,2.6-3.9,3.4c-0.2,9.3,0.2,32.9,0.2,37.7c0,3.6-1.8,4.5-4.9,4.5
		c-2.6,0-3.4-2.1-3.4-4v-3H26.2v5.4c0,2.6-1.7,3.7-5.1,3.7c-1.9,0-3.1-1.2-3.1-3.1c0.1-6.4,0.5-22.8,0.3-36.1
		c-4.6,3.5-9.5,6.6-14.7,9.7c-3.2,1.6-5-1.6-2.1-3.6c5.9-4.2,11.4-8.6,16.5-13.4c-0.1-2.4-0.2-4.7-0.5-6.5c-0.1-0.8,0.7-1.6,1.6-1.5
		c1,0.1,3.2,0.8,5.4,1.7c3.3-3.4,6.5-7,9.3-10.8H5.1c-1.5,0-2.5-0.5-2.5-2.3c0-1.7,1-2.3,2.5-2.3h20.4c0.1-4.4,0.1-9.7,0.1-14.8
		H10.1c-1.5,0-2.5-0.5-2.5-2.3c0-1.7,1-2.3,2.5-2.3h15.4c0-6.4-0.2-12.2-0.7-15.5c-0.1-1,0.6-1.6,1.6-1.6c1.9,0,12.4,0.3,12.4,3.3
		c0,2.3-2.2,3.1-5.4,4v9.9H37c2.1-3.1,4.3-6.4,5.7-6.5c1.4,0.1,4.4,2.9,6.3,5.6c1.7-3.6,3.2-7.3,4.6-11.3c0.5-1.3,1.3-1.6,2.3-1.3
		c4.6,1.4,10.3,5.4,10,7.6c-0.1,1.7-3,2.2-6.2,1.6c-4,8.1-8.4,16.1-13.8,23.7h7.9C53.8,200.1,53.8,199.9,53.8,199.9z M28.7,221.9
		c-0.7,0.2-1.6,0.5-2.4,0.6c-0.1,2.4-0.2,8.3-0.2,12.9h21.8c0.1-5.6,0.1-10.6,0-13.5H28.7z M47.8,254.5l0.1-14.4H26.1v1.6l0.1,12.8
		L47.8,254.5L47.8,254.5z M37.5,199.9c3.3-4.7,6.3-9.5,8.9-14.8H33.5v14.8H37.5z M94.4,170.4c1.8-2.3,3.8-4.3,5.1-4.3
		c2.1,0,9.3,6.3,9.3,9.3c0,1.7-2.1,2.7-5.1,3.7c-4.6,8.6-11.7,19.7-14.4,24.2c-0.9,1.6-0.7,2.1,0.6,3.4c8.2,8.1,15.3,14.1,15.3,29.9
		c0,10-3.3,18.7-13.7,18.7c-1.9,0-3-0.8-3.8-2.1c-1.6-2.2-3.1-3.4-5.6-4.2c-2.8-0.9-2.5-4.1,0.1-4.1c1.5,0,4.8,0.3,8.2,0.3
		c5.6,0,6.5-4.2,6.5-13.4c0-7.9-4.4-15.4-12.3-22.9c-2.3-2.1-2.3-3.4-0.6-6.6c3.3-6.2,9.2-20.4,10.7-27.3H78.1
		c-0.6,8-0.6,35.3-0.6,39.9c0,4.2,0.2,44.2,0.2,49c0,2.7-1.7,4.2-5.4,4.2c-2.3,0-3.2-1.3-3.2-3.5c0-14.7,1.5-80-0.5-97.7
		c-0.1-0.7,0.6-1.6,1.6-1.6c1.5,0.1,9,2.7,11.6,5.1L94.4,170.4L94.4,170.4z"/>
	<path class="st0" d="M207.7,179.4c2.5-3.8,5.8-8.4,7.6-8.4c2.4,0,10.8,7.3,10.8,10.2c0,1.7-2.1,2.8-6.4,2.8h-95.3
		c-1.5,0-2.5-0.5-2.5-2.3c0-1.7,1-2.3,2.5-2.3h45.2c0.1-5.1,0-11.3-0.3-14.9c-0.1-1.2,0.6-1.7,1.6-1.7c1.9,0,13,0.3,13,3.5
		c0,2.4-2.5,3.4-6,4.2v9h29.8L207.7,179.4L207.7,179.4z M201.6,204.1c1.7-2.3,4.2-5,5-5c2.7,0,10,6.2,10,8.4c0,1.5-2.2,2.7-4.6,3.6
		c-0.2,9.4-0.1,24.5-0.2,37.2c0,7-5.8,9.9-10.7,9.9s-2.4-4.3-10-6.6c-2.4-0.9-1.9-3.8,0.2-3.8c0.9,0,6.3,0.7,8.4,0.7
		c2.9,0,3.9-1,4.1-3.7c0.2-4.8,0.2-13,0.2-19.3v-16.6h-26c0,7.9,0,15.9,0,17.9c0,5.7,0.2,34,0.2,38c0,2.6-1.9,3.7-5.5,3.7
		c-2.2,0-3.5-1.2-3.5-3.3c0-4,0.9-31.3,0.9-38c0-2.2,0.1-10-0.1-18.4h-22.2c-0.6,0.1-1.1,0.2-1.7,0.3c-0.3,4.4-0.3,18.3-0.3,21.1
		l0.1,25.7c0,2.6-1.8,3.8-5.5,3.8c-2.2,0-3.3-1.2-3.3-3.3c0.1-9.7,0.9-42.7-0.3-55.1c-0.1-0.8,0.7-1.6,1.6-1.5
		c1.7,0.1,7.5,2.2,10.5,4.3H170c-0.1-6.2-0.5-12.1-1-15.7c-0.2-1.2,0.5-1.7,1.5-1.7c4.9,0,12.8,0.6,12.8,3.3c0,1.6-1.8,2.9-5,3.5
		c-0.1,2.1-0.1,6.2-0.1,10.7h23.4L201.6,204.1L201.6,204.1z"/>
	<path class="st0" d="M263,196.1c-0.1,3.7-0.2,7.6-0.3,11.6c-0.6,17.9-2.4,41-19.5,56.1c-2.7,2.6-5.7,0.3-3.5-2.8
		c10.4-14.8,14.5-29.4,14.7-56.5c0.1-10.7-0.1-23.7-1-35.6c-0.1-1.9,0.7-2.4,2.2-2.2c1.8,0.3,6.2,2.3,8.9,4.2h56.7
		c1.8-2.4,4.1-5.1,5.5-5.1c2.4,0,9.5,5.2,9.5,7.8c0,1.6-1.9,2.7-4.1,3.5c-0.2,7.1,0.1,17.8,0.1,21.4c0,3.6-1.9,4.4-5.2,4.4
		c-2.7,0-3.6-2.1-3.6-4v-2.8H263z M323.2,191.4c0-5.2,0.1-12,0.1-15.9h-59.9l-0.5,0.1c0.1,5.5,0.1,10.6,0.1,15.8L323.2,191.4
		L323.2,191.4z M323.8,213.3c2.4-3.6,5.4-7.7,7.1-7.7c2.3,0,9.9,7,9.9,9.7c0,1.7-2.1,2.7-5.8,2.7h-32v15.9h14.1
		c1.8-2.4,4.1-5.1,5.5-5.1c2.4,0,9.6,5.5,9.6,8.1c0,1.9-2.4,2.8-4.8,3.7c-0.1,7.2,0.1,19.3,0.1,22.9s-1.8,4.4-4.9,4.4
		c-2.7,0-3.5-2.1-3.5-4v-3h-39.2v3.7c0,2.4-1.8,3.6-5.1,3.6c-2.1,0-3.1-1.2-3.1-3.1c0-7.1,0.6-23.9-0.5-33.6
		c-0.1-0.9,0.7-1.6,1.6-1.5c1.9,0.2,6.6,2,9.3,3.8h13.1c0.1-4.8,0.1-10.5,0.1-15.9h-28.2c-1.5,0-2.5-0.5-2.5-2.3
		c0-1.7,1-2.3,2.5-2.3h28c-0.1-5.8-0.3-10.9-0.7-13.8c-0.1-1,0.6-1.6,1.6-1.6c1.9,0,12.9,0.3,12.9,3.4c0,2.4-2.5,3.4-6,4.2v7.9
		L323.8,213.3L323.8,213.3z M319.1,256.4c0-5.9,0.1-13.6,0.1-17.8h-37.6c-0.6,0.1-1.1,0.2-1.7,0.3c-0.1,2.6-0.1,9.8-0.1,11.8v5.7
		H319.1z"/>
	<path class="st0" d="M381,200.3c-0.3,5.9-0.5,25.2-0.5,28.9c0,3.3,0.2,31.5,0.2,35.3c0,2.6-1.7,4-5.4,4c-2.2,0-3.2-1.3-3.2-3.4
		c0-7.3,0.7-40.8,0.2-59.1c-3.9,5.5-8.3,10.9-13.5,15.8c-2.4,2.4-5.1,0.2-3.1-2.7c12.5-16.6,22.6-35.9,25.8-54.1
		c0.2-1.3,0.7-1.9,2.1-1.7c4.1,0.8,11.7,4.4,11.7,7c0.1,2-2.2,2.6-5.6,2.1c-2.4,6.4-5.6,13.6-9.6,21.1c2.5,1.2,5.2,2.8,5.2,4.2
		C385.5,199.1,383.6,199.9,381,200.3z M445.9,256.7c2.5-3.8,5.8-8.4,7.6-8.4c2.4,0,10.4,7.3,10.4,10.2c0,1.7-2.3,2.8-6,2.8h-71.4
		c-1.5,0-2.5-0.5-2.5-2.3c0-1.7,1-2.3,2.5-2.3h32.7l0.1-31.3H395c-1.5,0-2.5-0.5-2.5-2.3c0-1.7,1-2.3,2.5-2.3h24.3V194h-28.6
		c-1.5,0-2.5-0.5-2.5-2.3c0-1.7,1-2.3,2.5-2.3h53.7c2.4-3.5,5.4-7.6,7.1-7.6c2.3,0,9.9,6.9,9.9,9.7c0,1.6-1.9,2.6-5.8,2.6h-25.1v0.1
		c0,1.3-1,2.2-3.2,2.8v23.8h13.6c2.4-3.6,5.5-7.9,7.2-7.9c2.3,0,10.1,7.1,10.3,9.9c0,1.7-2.2,2.7-6,2.7h-25v31.3L445.9,256.7
		L445.9,256.7z M412.2,168.9c-2.1-2.1-1.1-4.9,2.3-4.2c8.2,1.7,16.1,6.2,17.2,12.3c0.7,3.4-0.8,6.2-4,6.7c-3.3,0.7-5.2-2.4-8.3-6.6
		C417.1,174.2,414.7,171.4,412.2,168.9z"/>
	<path class="st0" d="M568.7,221.7c0,22.3-17.6,33.9-41,33.9c-4,0-4.2-3.6-0.7-4.3c19.7-4,32.5-12.4,32.5-31.5
		c0-12.4-6.2-22.8-17.7-27.7c-0.3,4.4-1.5,9.5-3.2,14.3c-6.6,18.6-25.7,41.8-39.3,41.8c-6,0-12-8.5-13-22.2
		c-1.1-14.7,4.4-25.5,12-32.3c6.7-6.1,17.1-10.4,27.9-10.4C553.4,183.2,568.7,200.7,568.7,221.7z M535.4,189.9
		c-3-0.6-6.2-0.9-9.6-0.9c-9.8,0-17.6,3.3-23.1,8.6c-6,5.8-9.7,14.1-9,25.6c0.6,9,3.6,14.4,7,14.4c10.9,0,27.4-22.7,32.7-38.3
		C534.5,196.2,535.2,192.8,535.4,189.9z"/>
	<path class="st0" d="M679,242.4c2.5-4,5.7-8.4,7.5-8.4c2.4,0,10.1,7.4,10.1,10.2c0,1.7-2.2,2.8-5.8,2.8H595c-1.5,0-2.5-0.5-2.5-2.3
		c0-1.7,1-2.3,2.5-2.3H679L679,242.4z M632.6,256.9c-0.3,1.9-3.4,1.7-6.5,0.9c-8.2,4.8-18.4,8.6-29.9,10.4c-2.6,0.3-3.8-2.3-1-3.6
		c11.4-4.4,18.4-8,26.1-15.1c0.9-0.8,1.4-0.9,2.6-0.5C628,251.1,632.9,254.7,632.6,256.9z M601,178.6c-1.5,0-2.5-0.5-2.5-2.3
		c0-1.7,1-2.3,2.5-2.3h38.9c-0.1-4.2-0.3-7.9-0.6-10.2c-0.1-1.2,0.6-1.7,1.6-1.7c1.9,0,13.1,0.3,13.1,3.5c0,2.4-2.5,3.4-6,4.2v4.3
		h25.5c2.4-3.5,5.2-7.4,7-7.4c2.2,0,10.3,6.7,10.3,9.5c0,1.6-1.8,2.6-6.2,2.6H648v9.2h14.7c1.8-2.4,4.1-5.2,5.5-5.2
		c2.4,0,9.3,5.4,9.3,8c0,1.7-2.3,2.8-4.7,3.7c-0.2,10.1,0.2,34.8,0.2,39.8c0,3.6-1.8,4.5-4.9,4.5c-2.6,0-3.4-2.1-3.4-4v-1.5h-41.6
		v2.7c0,2.6-1.7,3.7-5,3.7c-2,0-3.2-1.2-3.2-3.1c0.1-9.2,0.9-39.3-0.3-51.3c-0.1-0.8,0.7-1.6,1.6-1.5c1.8,0.2,7.1,2.2,9.8,4.2h13.9
		c0.1-2.9,0.1-6.1,0-9.2H601V178.6z M624,192.5l-0.7,0.1c-0.1,1.7-0.1,5-0.2,8.5h41.8c0.1-3.5,0.1-6.5,0-8.6H624z M623.1,212.3v2.4
		h41.8v-9h-41.8V212.3z M664.7,228.5l0.1-9.2h-41.7v9.2H664.7z M687.3,259.4c2.5,3.5,1.6,6.9-0.9,8.1c-2.4,1-4.6,0.2-6.6-1.6
		c-2.3-2.1-4.3-4.1-7.4-6.1c-3-2.1-6.4-3.8-10.8-5.8c-2.4-0.9-2.1-3.6,0.7-3.7c5.4,0.2,10.9,1.3,14.5,2.6
		C680.9,254.1,685.2,256.6,687.3,259.4z"/>
	<path class="st0" d="M731.1,264.4c0,2.6-1.6,4-5.1,4c-2.2,0-3.2-1.3-3.2-3.4c0-8.1,0.7-42.6,0.2-61.7c-3.3,5.4-7.3,10.6-11.9,15.5
		c-2.5,2.6-5.2,0.7-3.4-2.4c11.1-16.6,18.9-35.1,21.3-51.5c0.2-1.3,0.7-2,1.9-1.7c4.2,0.8,12.2,4.5,12.2,7.1
		c0.1,1.9-2.2,2.6-5.5,2.1c-1.9,5.4-4.6,11.8-7.9,18.6c2.9,1.3,6,3,6,4.5c-0.1,1.6-2.1,2.4-4.4,2.8c-0.5,6.2-0.5,26.1-0.5,29.9
		L731.1,264.4z M790.9,178.6c-0.2,0.7-1,1.3-2.2,1.7v17.1h10.9c1.6-2.2,3.5-4.3,4.7-4.3c2.4,0,9.2,5.2,9.2,7.8
		c0,1.6-2.1,2.8-4.2,3.6c-0.5,12.4,0.2,47.4,0.2,53.6c0,3.6-1.9,4.4-5,4.4c-2.7,0-3.5-2.1-3.5-4v-4.4h-50.4v6.9
		c0,2.6-1.6,3.8-5.1,3.8c-2.1,0-3.1-1.2-3.1-3.4c0-10.9,1-52.7-0.5-66.5c-0.1-0.9,0.7-1.6,1.7-1.6c1.6,0.1,6.8,2.1,9.6,4.1h9v-18.8
		h-19.8c-1.5,0-2.5-0.5-2.5-2.3c0-1.7,1-2.3,2.5-2.3h55.5c2.4-3.6,5.5-7.8,7.2-7.8c2.3,0,10.3,7,10.3,9.8c0,1.7-2.2,2.7-6,2.7
		L790.9,178.6L790.9,178.6z M750.6,249.6h11.5l0.1-47.5h-10.4l-1,0.2c-0.3,5.4-0.3,23.2-0.3,26.6L750.6,249.6z M781.2,197.5v-18.9
		h-9.3c-0.2,0.7-1,1.3-2.2,1.7v17.1L781.2,197.5L781.2,197.5z M769.7,249.6h11.4l0.1-47.5h-11.5V249.6z M788.8,202.1v47.5h12.3
		c0-14.1,0.2-39.8,0.1-47.5H788.8z"/>
	<path class="st0" d="M918,212.5c0,5.6-5.2,8.3-12.5,10.7c-4.7,1.6-15.5,5-23,7.9c0,2.7,0.1,5.8,0.1,8.1c0,2.8-1.1,4.8-3.6,4.9
		c-2.6,0.1-4.8-2-4.8-4.9c0-1.3,0.2-2.8,0.3-4.8c-7.8,4-12.3,7.7-12.3,13.1c0,5.1,6,7.1,12.1,7.1c9.5,0,15.3-2.3,20-2.3
		c3.5,0,7,1,7,4.7c0,3.4-8,6.2-23.5,6.2c-15,0-22.2-5.5-22.2-14.1c0-6.9,4.6-12.3,19.4-19.8c0.1-1.7,0-3.6-0.1-5.7
		c-0.5-5.7-3.2-11.9-9-11.9c-7.2,0-10.8,9.5-19.2,20.2c-1.7,2.2-3.1,4.3-5.8,4.3s-4-1.9-4.1-4.2c-0.1-2.1,0.7-4.4,3.6-7.4
		c7.5-7.7,16.8-18,22.5-30.4c-4.7,0.6-8.7,0.9-14.1,0.9c-8.2,0-12.8-4.2-14.1-13.4c-0.3-2.7,1.3-3.3,3.1-1.5
		c5.6,5.2,8.8,7.7,15.4,7.7c4.1,0,8.6-0.2,12.7-0.7c1.3-3.3,2.1-5.8,2.3-7.7c0.3-2.4,0.7-4.4-1.1-6.4c-1.9-2.1-3.4-3.3-3.4-4.7
		c0-1.6,3.5-2.3,5.2-2.3c3.6,0,8.6,1.3,8.6,4.1c0,2.4-2.1,9.8-4.3,15.8c12.2-2.8,16.6-7.9,21.4-7.9c2.5,0,5.4,1.4,5.5,4.3
		c0.1,2.7-3.9,4.2-7.1,5.5c-3.1,1.3-15.4,4.2-23.4,5.5c-2.2,3.8-6.5,11.4-8.3,15c7.6-2.1,14.8-1.3,18.8,8.6
		c6.8-12.1,14.8-16.5,22.8-16.5C910.7,200.6,918,205.7,918,212.5z M908.8,210.4c0-3.3-2.7-5.2-7.5-5.2c-4.9,0-11.2,3.5-14.9,9.9
		c-2.2,3.7-3.4,7-3.9,10.7c7.3-3.3,14.6-6,17.3-7.3C905.4,215.9,908.8,214.8,908.8,210.4z"/>
	<path class="st0" d="M979.8,213.4c2.3-3.5,5.1-7.3,6.7-7.3c2.3,0,9.6,6.7,9.6,9.4c0,1.6-2.2,2.6-5.5,2.6H972
		c-0.8,9.8-2.4,18-6.4,25.2c-5.6,10.2-13.7,17.3-24.9,23c-3.4,1.7-5.5-1.5-2.3-3.7c9.9-7.1,15.8-13.4,20.2-22.1
		c3.3-6.5,4.7-13.8,5.2-22.5h-24.4c-1.5,0-2.5-0.5-2.5-2.3c0-1.7,1-2.3,2.5-2.3H964c0.2-7,0.1-14.8,0.1-23.9h-8.5
		c-3.8,6.2-8.4,12.8-14.4,18c-2.3,2.1-4.9,0.3-3.1-2.4c4.3-6.2,8.1-12.7,10.9-18.8c0.1-0.2,0.1-0.3,0.2-0.5c3.4-7.6,5.8-14.8,7-21.3
		c0.2-1.3,0.8-1.6,2.2-1.4c3.5,0.8,11.5,4.4,11.5,6.9c0,2-2.4,2.6-5.7,2c-1.3,3.1-3.3,7.8-6,12.9h20.4c2.3-3.4,5-7.1,6.6-7.1
		c2.2,0,9.6,6.6,9.6,9.3c0,1.6-2.1,2.4-5.6,2.4H976c0.1,0.1,0.1,0.3,0.1,0.5c-0.1,1.4-1,2.2-3.6,2.9c0,7.6,0,14.3-0.2,20.5
		L979.8,213.4L979.8,213.4z M991.4,247.6c0.3,3.3-1.5,5.7-4.6,6.1c-3.2,0.2-4.8-2.8-7.3-7.2c-1.8-3-4-6.1-6-8.7
		c-1.6-2-0.6-4.4,2.4-3.6C983.2,236.2,990.8,241.6,991.4,247.6z M1025.6,179.6c1.7-2.4,4-5,5.4-5c2.5,0,9.7,5.5,9.7,8.1
		c0,1.9-2.4,3-4.8,4c-0.7,15.2,0.3,61.4,0.3,69.1c0,3.6-2,4.5-5.2,4.5c-2.7,0-3.5-2.1-3.5-4v-7h-20.8v9.3c0,2.7-1.7,4-5.2,4
		c-2.2,0-3.2-1.2-3.2-3.4c0-12.8,1.3-66.9-0.5-82.7c-0.1-0.8,0.7-1.6,1.6-1.6c1.7,0.1,8,2.3,10.8,4.7H1025.6z M1027.5,244.7
		c0.1-18,0.3-51.1,0.2-60.5h-20.1l-0.8,0.1c-0.5,6.9-0.5,29.3-0.5,33.5l0.1,26.9H1027.5z"/>
	<path class="st0" d="M1130.2,235.2c0,15.2-13,23.9-29,23.9c-9.7,0-17.1-4.1-17.1-12.1c0-6.6,5.1-10.6,11.4-10.6
		c8.1,0,14.5,5.4,16,13.5c5.6-2.3,10.1-7.1,10.1-16.3c0-9.5-7-16.1-16.5-16.1c-7.2,0-12,2.2-16,5.6c-6,5.2-9.5,9.3-12.4,12
		c-3,2.6-5.9,2.7-7.2,0c-1.3-2.4-0.3-5.7,3.1-9.2c4.9-4.8,16.1-13.1,22.2-18.5c6.7-6,15.3-14.3,18.4-20c1.4-2.4,0.5-3.7-1.4-3.7
		c-6.6,0-25.2,13.1-31.1,13.1c-5.6,0-11.5-7-11.5-12.6c0-2.8,1.4-3.5,3.3-2c2.3,1.9,5.7,4.7,8.3,4.7c4.1,0,14.8-4,23.8-7
		c3.4-1.3,6-2.1,8.7-2.1c5.9,0,12.2,6.3,12.2,10.1c0,3.4-5.4,6.4-8.5,9c-7.9,6-14.3,11.4-20.4,16.9
		C1115.4,209.9,1130.2,219.5,1130.2,235.2z M1103.1,251.7c-0.5-6.9-3.8-10.6-8.4-10.6c-3.3,0-5.2,1.7-5.4,4.8
		c-0.1,4,4.9,5.9,10.3,5.9C1100.7,251.8,1102,251.8,1103.1,251.7z"/>
	<path class="st0" d="M1157.4,253.3c0-9,7.2-16.3,16-16.3s16,7.3,16,16.3c0,9-7.2,16.3-16,16.3S1157.4,262.3,1157.4,253.3z
		 M1183.9,253.3c0-5.9-4.7-10.7-10.5-10.7s-10.5,4.8-10.5,10.7c0,5.9,4.7,10.7,10.5,10.7C1179.2,264,1183.9,259.3,1183.9,253.3z"/>
</g>
</svg>
