<svg xmlns="http://www.w3.org/2000/svg" viewBox="0 0 660.62 103.1"><defs><style>.cls-1{fill:#1e1e1e;}</style></defs><g id="レイヤー_2" data-name="レイヤー 2"><g id="テキスト"><path class="cls-1" d="M24.06,21.48a66.39,66.39,0,0,1-7.5,16.86A37.54,37.54,0,0,1,.18,52.14L0,51.78A57.08,57.08,0,0,0,14.4,34c2.28-4.74,4.5-9.48,5.46-14.7H11.52a43.75,43.75,0,0,0-7,.6l-1.2-2.4c4,.3,8.1.36,9.18.36H19.8l1.56-1.44a1.23,1.23,0,0,1,.84-.48,1.47,1.47,0,0,1,.9.54l2.52,2.64c.36.36.48.6.48.84C26.1,20.58,25,21.12,24.06,21.48ZM31,5c0,4.08-.06,22-.06,25.62,0,2.94.18,16,.18,18.66,0,2.4,0,6.42-7.14,7.32a6.77,6.77,0,0,0-2.22-3.84,13.91,13.91,0,0,0-4.2-2.7v-.3c.48.06,6.06.3,6.9.3,2.28,0,2.52-.66,2.52-2.76,0-1-.12-5.7-.12-6.6,0-1.86.18-20.94.18-24.9,0-2.46-.06-9.9-.54-11.94-.12-.54-.66-2.7-.78-3.18l6.48,1.68c.54.12.84.3.84.78S32.7,4.14,31,5ZM51.3,49.8C42.66,45,32.22,30,31.92,11.46h.66A50.55,50.55,0,0,0,36,24c4.14-3.24,9.06-8.16,10.32-12.66l5.4,4.5a1,1,0,0,1,.48.9c0,1.14-1.2,1-3.18.9a59.86,59.86,0,0,1-12.54,7.44c7.44,16,17.7,19.32,22,20.1v.36A9.83,9.83,0,0,0,51.3,49.8Z"/><path class="cls-1" d="M88.5,22.2a41.66,41.66,0,0,0-7,.54l-1.2-2.34c4.08.36,8.46.36,9.24.36h2.76V11.94H88.5a24.07,24.07,0,0,0-5,.36l-.78-2.1c2.7.24,5.34.3,6.54.3h3c0-2.34-.06-6.42-.12-7a14,14,0,0,0-.66-2.4l5.88,1.8c.48.12.84.36.84.84,0,.72-.42,1-1.86,1.62-.24,1.08-.24,1.5-.3,5.16h1.32L98.7,8.64c.36-.54.54-.78.9-.78s.66.18,1.14.66l1.8,1.86c.36.36.6.6.6.9,0,.48-.36.66-.9.66H96c0,1.38-.06,7.56-.06,8.82h1.2c3.24-4.32,9.06-12.54,9.54-16.5l4.62,3.36a1,1,0,0,1,.54.84c0,.84-.66.9-2.16,1.08-3.3,4.62-5.82,8.1-8.46,11.22H105l2-2.46c.42-.48.6-.78.9-.78a2.3,2.3,0,0,1,1.08.66l2.82,2.46a1.22,1.22,0,0,1,.54,1c0,.54-.48.6-.9.6H100.08a95.62,95.62,0,0,1-7,7.62l.78.36h8.22l1.56-1.74a1.11,1.11,0,0,1,.84-.54,1.64,1.64,0,0,1,.9.42l2.82,1.92c.72.48.84.78.84,1.08,0,.6-.36.84-2.16,1.86-.06,2.22-.12,6.54.06,12.6.06.9.3,4.74.3,5.52,0,2-2.1,2.46-3.12,2.46-1.44,0-1.38-.66-1.32-2.82H93.36c.06,2,.12,3.9-3.12,3.9-1.08,0-1.38-.54-1.38-1.44,0-.48.3-3.84.3-4.56.06-1.2.54-10.8.36-15.84A57.32,57.32,0,0,1,78.6,40.2l-.42-.42a93.46,93.46,0,0,0,11.22-10c-.06-.54-.12-1.32-.24-2.1l1.44.78C92.7,26.22,93.78,25,96,22.2Zm4.8,9.42v8.1h9.6v-8.1Zm0,9.54V49.5h9.6V41.16Zm33.48-35.4,1.38-1.2a1.21,1.21,0,0,1,.78-.42c.3,0,.72.48.9.6L133.26,8a1.68,1.68,0,0,1,.54,1c0,.84-1,1.2-2.82,1.5-3.3,4.56-8.82,12.36-9.12,12.72C124.38,24.6,134,30.06,134,39.66c0,5.76-3.48,8.88-9.24,9.6a8.59,8.59,0,0,0-4.32-6.18l.18-.36a25,25,0,0,0,5.4.78c3.54,0,3.54-3.48,3.54-4.14,0-5.34-2.7-10.74-8.94-15.84A158,158,0,0,0,126.84,7.2h-8.52c-.18,13.08-.24,31,.3,44,0,.36.06,1.08.06,1.8.06,2.88-3.06,2.88-3.3,2.88-1,0-1.5-.42-1.5-1.62,0-1.44.24-3.84.24-5.28.24-10.2.36-30.42.36-31,0-4.92,0-10.56-1-14.58l5.46,2.4Z"/><path class="cls-1" d="M170.7,53.58c-1.92,0-2.4-1.56-3-3.54a23.37,23.37,0,0,0-7.86-11.52L160,38c4.2,1.38,6.66,2.34,9.54,4.74,1,.9,4.08,3.78,4.08,7.38C173.64,51.78,172.56,53.58,170.7,53.58Z"/><path class="cls-1" d="M256.56,53.94a33.93,33.93,0,0,1-11.88-7.38A30.33,30.33,0,0,1,233,53.82c-.18,1.38-2,2-2.88,2a1.28,1.28,0,0,1-1.44-1.32c0-1.68.24-9.9.24-11.76A117.9,117.9,0,0,1,214.32,50c-.72,1.32-.78,1.5-1.2,1.5s-.54-.3-.78-.72L209,45.36a20.49,20.49,0,0,0,6.54-.6v-21a36.27,36.27,0,0,0-6.72.54l-1.2-2.4c3.06.24,6.12.42,9.24.42H253l2.76-3c.42-.48.72-.78,1.08-.78s.48.18,1.14.78l3,2.82c.18.18.6.6.6,1,0,.6-.6.66-.9.66H232.92c.06,15.72.06,28.68.06,29.46a41.58,41.58,0,0,0,9.72-8.94,31.59,31.59,0,0,1-5.88-13.56c-.42.06-.72.12-1.26.18l-1.2-2.34c4.68.36,9.12.36,9.18.36H250l1.56-1.68a1.44,1.44,0,0,1,1-.54,1.71,1.71,0,0,1,1,.54l2.82,2.4a1.14,1.14,0,0,1,.48,1,.94.94,0,0,1-.72.9c-.24.12-1.62.54-1.92.66a58,58,0,0,1-7,11.52,27.42,27.42,0,0,0,14.82,4.86l.12.36C259.2,49.68,257.76,52,256.56,53.94ZM250.74,6.78c0,1.68.3,9.06.3,10.56,0,2.1-2.1,2.46-2.94,2.46-1.56,0-1.44-.84-1.38-1.86H223c0,1.74-1.86,2.16-2.82,2.16-1.62,0-1.62-1-1.62-1.5s.12-2.64.12-3.06c.12-2.1.18-4.14.18-6.54a25.53,25.53,0,0,0-.78-7.44L223.32,4h23.16L248.1,2.1c.24-.24.42-.42.72-.42a2,2,0,0,1,1,.54l2.64,2a1,1,0,0,1,.48.72C252.9,5.52,252.66,5.64,250.74,6.78Zm-31.2,17v4.92h9.54l.06-4.92Zm9.54,6.36h-9.54v5.1h9.54Zm-9.54,6.54v7.2c6.78-1.5,7.56-1.68,9.42-2.22l.06-5ZM246.78,5.4H223v4.68h23.76Zm0,6.12H223v5h23.76Zm-4.2,18.84a48.53,48.53,0,0,0-4.92.24,29.69,29.69,0,0,0,7.08,10.92,39.56,39.56,0,0,0,5.52-11.16Z"/><path class="cls-1" d="M339,13.68H294.24a42.73,42.73,0,0,0-7.08.54l-1.2-2.4c4.14.36,8.4.42,9.24.42h21.54c3.78-7.5,4-10.44,4.14-12.24l5.64,3.3a1.16,1.16,0,0,1,.66,1c0,.42-.36.84-2.28,1-3.72,4-4.08,4.32-6.9,7h12.72l2.58-3c.36-.42.66-.72,1-.72s.48.12,1.14.6l3.9,3a1.42,1.42,0,0,1,.6.9C339.9,13.56,339.36,13.68,339,13.68Zm-27.06,9.54c-.06,3.48-.06,16.26,0,22.14,0,.72.12,3.72.12,4.38,0,1.92,0,4.5-6.3,5.58-.24-1.38-.6-3.54-4.26-5.52v-.36c.9.12,3.6.42,4.8.42,1.56,0,1.56,0,1.56-4,0-1,.06-5.34.06-6.18H296.64c0,2,.12,11.16.12,13a2.64,2.64,0,0,1-.54,1.86,3.6,3.6,0,0,1-2.64,1.14c-1.2,0-1.62-.6-1.62-1.68,0-.12,0-.6.06-1.26.6-7.86.66-18.3.66-27.48a77.79,77.79,0,0,0-.3-8.28l5.22,2.76h10L309,18.36c.48-.48.78-.72,1-.72a2.54,2.54,0,0,1,1.08.54l2.34,1.8c.18.12.66.48.66.9S312.78,22.56,311.94,23.22Zm-4-2H296.64v7.68h11.28Zm0,9.12H296.64v7.92h11.28Zm-1.08-19.2c-1.14,0-2-.54-3.12-3.12-1.8-4.08-2-4.68-4.08-6.36l.12-.36c3.66.9,9.6,3.12,9.6,7.08A2.55,2.55,0,0,1,306.84,11.16Zm16,13.14a49.7,49.7,0,0,0-.12,5c0,2.28.18,12.42.18,14.52A2.72,2.72,0,0,1,320,46.74c-1.56,0-1.56-1.08-1.56-1.5,0-2.4.36-12.72.36-14.88,0-8.82-.18-9.42-.72-10.8l5.64,1.86c.54.18.84.54.84.9S324,23.4,322.86,24.3Zm10.32-3.36c-.24,5.76,0,16.92.12,23.16,0,.84.18,4.5.18,5.22,0,1.62,0,4.86-6.78,6.24-.48-1.62-1.26-3.6-5.28-5.82l.06-.36a32.74,32.74,0,0,0,4.68.42c2.1,0,2.64-.24,2.82-.84.24-.84.24-19.92.24-21.36,0-8,0-8.46-.84-11.16l5.52,1.68c.36.12,1,.36,1,.9S333.9,20.4,333.18,20.94Z"/><path class="cls-1" d="M416,9.84H374.22c.54,24.42-.72,34.56-9.6,44.16l-.36-.3c5-9.72,5.82-20.88,5.82-31.8,0-3.78-.24-11.58-1.14-16l6.12,2.52h14.88A27.69,27.69,0,0,0,389,.9l5.82,1.56c.42.12.84.36.84.84s-.48.84-1.74,1.62V8.4h14.22l2.22-2.94c.36-.48.66-.72,1-.72a2.59,2.59,0,0,1,1.14.6l3.78,2.94a1.42,1.42,0,0,1,.6.9C416.88,9.66,416.34,9.84,416,9.84Zm1.44,9.3H403.14c0,1.26.24,6.72.24,8,0,.78,0,3.12-2.76,3.12-1.56,0-1.56-1.2-1.56-2.34h-5.22l2.34.66c1.2.36,1.74.48,1.74,1.08s-.6,1-1.56,1.26c-.12,2.64-.18,3.48-.18,4.26H406l1.68-2c.36-.42.66-.66,1-.66a2.58,2.58,0,0,1,1.38.66l2.34,1.74a1,1,0,0,1,.54.9c0,.6-.84,1.32-1.8,1.92.06,1.86.18,7.5.18,9.42,0,3.72-3.12,5.82-5.76,6.3a8.71,8.71,0,0,0-5.34-5.52v-.42c.54,0,5.4.06,6.06,0s.78-.78.78-1.68c0-1.44-.24-8.34-.18-9.24H396.18c-.06,2.64.24,14.58.24,17,0,1.56-.78,2.7-2.88,2.7-1.74,0-1.74-.78-1.74-1.92,0-2.82.36-15.24.36-17.76h-9.48c0,.84-.12,3.66-.12,5.52v8.52c0,1.86-1.56,2.22-2.76,2.22-.78,0-1.56-.18-1.56-1.38,0-.48.18-2.7.18-3.18.12-3.36.18-6.78.18-10.2a50.21,50.21,0,0,0-.3-5.46l4.86,2.52h9C392.1,34,392,28.92,392,27.9H387.9c0,.84-.06,2.88-2.94,2.88-1.32,0-1.5-.9-1.5-1.74,0-1.38.36-8.34.36-9.9a40.91,40.91,0,0,0-7.38.54l-1.2-2.4c3,.3,4.74.36,8.52.42-.12-4.08-.3-5-.78-6.78l5.58,1.44c.54.12.9.36.9.78s-.48,1-1.56,1.5V17.7h11.22c-.06-4.26-.3-5.28-.66-6.66l5.46,1.44c.42.12,1,.36,1,.9s-.6.9-1.68,1.62c0,.78,0,1-.06,2.7h7.14l2-3.06c.36-.54.54-.72.9-.72a1.76,1.76,0,0,1,1.14.6l3.42,3.06c.36.36.6.66.6,1S418,19.14,417.42,19.14Zm-29.58,0c0,1,.06,6.18.06,7.32h11.22c0-1.2.06-6.36.06-7.32Z"/><path class="cls-1" d="M479.52,17.16c-1.2.48-1.62.84-3.6,4.74-9.24,17.94-18.54,26.16-31.74,29.88l-.18-.42A65.67,65.67,0,0,0,464.64,33.3c-.6-.06-1.26-.6-2.34-1.8-4.14-4.74-4.74-5.4-8-7.2a33.48,33.48,0,0,1-10,7.8l-.18-.36c7.56-7.32,14.76-19.68,14.76-22,0-2-2.34-2.88-3.54-3.36a6.47,6.47,0,0,1,3-.72c3.42,0,6.66,2.94,6.66,4.2,0,.66-.12.78-1.5,2A21.14,21.14,0,0,0,461.88,14c.42,0,1,.06,2.16.06a45.57,45.57,0,0,0,9.84-1.38,13.5,13.5,0,0,1,2.52-1.44c.72,0,4.68,3.84,4.68,4.68C481.08,16.56,480.84,16.62,479.52,17.16ZM463.8,17c-.48,0-1.14,0-3.12-1.14a93.14,93.14,0,0,1-5.76,7.74c3.36.42,11,1.92,11.4,7.32a67.82,67.82,0,0,0,7.62-15.3C472.32,15.78,465.18,17,463.8,17Z"/><path class="cls-1" d="M546.42,15.18c-1.14.72-1.14,1-1.62,3.6-2.1,11.82-4.62,17.94-9,23.28-3.84,4.62-9.9,9.3-15.84,11l-.24-.36c15.06-10.56,19.62-22,21.12-39.3-6.72.3-13.38,1-20.1,1.8-.42.06-2.4.48-2.82.48a17,17,0,0,1-2.4-1c.06.72.06,1.26.12,6.06,0,.36.24,7.56.24,8.16,0,2.52-1.44,2.88-1.86,2.88-1.08,0-2.58-1.92-2.58-4.2,0-1.08.24-5.82.24-6.78,0-8.34-1.2-9.06-4.14-10.74a6.07,6.07,0,0,1,2.28-.54c.54,0,2.22.18,5.16,2.28a4.08,4.08,0,0,0,2.4.54c.06,0,20.82-1.08,22.86-1.8a5,5,0,0,0,1.92-1.38c.36-.36.54-.42.78-.42.42,0,5,3.66,5,4.8C547.92,14.22,547.5,14.46,546.42,15.18Z"/><path class="cls-1" d="M617.76,30.48c-.54,0-2-.12-2.1-.12a59.88,59.88,0,0,0-6.78-.24c-18.3,0-23.7.36-26.4,1.08-.18.06-2.1.54-2.28.54-1.56,0-4.8-3.84-4.8-6.6a6.93,6.93,0,0,1,.72-2.88c2,4.56,3.9,4.56,10.14,4.56,4.14,0,23.64-.06,26.4-.72.36-.06,2.1-.54,2.46-.54s6.36.66,6.36,3C621.48,30.42,618.48,30.48,617.76,30.48Z"/><path class="cls-1" d="M653.84,53a6.79,6.79,0,1,1,6.67-6.8A6.7,6.7,0,0,1,653.84,53Zm0-12.23a5.45,5.45,0,1,0,5.33,5.47A5.37,5.37,0,0,0,653.84,40.8Z"/><path class="cls-1" d="M21.58,102.11c-5.64-3.12-8.35-7.36-9.33-14.33-.47,4.58-2.14,12.17-11.71,14.8l-.1-.21a16.62,16.62,0,0,0,8.37-8.74,23.74,23.74,0,0,0,1.56-6.5H4.13a18.56,18.56,0,0,0-3.07.24l-.52-1c2.06.16,3.88.16,4,.16h5.9c.05-.6.13-1.41.13-2.71A16.06,16.06,0,0,0,10,79.23l3,.8c.23.06.47.19.47.39s-.37.55-.89.89c0,1.69-.1,3.3-.2,5.2H19.5l1.17-1.35c.13-.16.26-.32.39-.32a1.12,1.12,0,0,1,.49.26l1.75,1.36a.57.57,0,0,1,.26.39c0,.28-.26.28-.39.28H12.64a21.1,21.1,0,0,0,2,5.46c1.93,3.9,5.15,6,9.93,7.28v.21A4.8,4.8,0,0,0,21.58,102.11Z"/><path class="cls-1" d="M45.84,82.19c0,2,.08,3.75.08,4.73,0,5.46-.08,12.48-5.44,15.19l-.1-.13c2.6-2.73,3.69-5.88,3.69-13.91a59.48,59.48,0,0,0-.39-7.85l2.68.7c.34.08.52.26.52.47S46.7,81.85,45.84,82.19Zm6.94.39c0,.76-.05,2.21-.05,4.47,0,3.28.21,8.51.21,11.78a1.24,1.24,0,0,1-1.38,1.28c-.73,0-.75-.5-.75-.84s.13-2.65.13-3c.05-1.82.1-3.35.1-8.24a43.19,43.19,0,0,0-.39-7.23l2.52.65c.24,0,.44.21.44.37S53.46,82.22,52.78,82.58Zm8-.6c-.08,3.54-.08,5.85-.08,7.36,0,1.8.18,9.81.18,11.44a1.27,1.27,0,0,1-1.4,1.49.72.72,0,0,1-.81-.84c0-.52.11-2.75.13-3.22.08-3,.11-6.09.11-9.1,0-4.45,0-6.06-.16-7.33A8.72,8.72,0,0,0,58.4,80l2.78.86c.29.08.44.23.44.39S61.36,81.72,60.74,82Z"/><path class="cls-1" d="M90,100.29l0-.21c5.56-2,8.16-5.64,8.16-9.59,0-4.4-3.54-7-8.06-7a2.07,2.07,0,0,0-1.07.16c1.41.75,1.8,1.71,1.8,2.08s-.08.47-.89,2.16c-1.66,3.56-4.1,8.78-5.87,10.24a1.52,1.52,0,0,1-.83.29c-.6,0-.84-.34-1.62-1.43-.18-.26-1.22-1.22-1.4-1.46a4.79,4.79,0,0,1-.73-2.65c0-5.59,4.73-10.19,11.08-10.19,5,0,9.62,2.93,9.62,8.16C100.13,95.9,95.92,99.77,90,100.29Zm-2-16.49c-2.86.47-6.84,4.16-6.84,9,0,1.77,1,3.72,2,3.72.7,0,1.71-1.85,2.16-2.73,2.6-5.23,3.45-6.92,3.45-8.27A2.3,2.3,0,0,0,87.91,83.8Z"/><path class="cls-1" d="M116.62,86.66c3.41.5,3.9,1.67,3.9,2.24a1.14,1.14,0,0,1-1,1.27c-.6,0-.75-.28-1.33-1.32a7.35,7.35,0,0,0-1.56-2Zm5.93-.59c-.5,2.65-1.59,7.77-2.06,9.59a4.24,4.24,0,0,0-.18,1.09,9.61,9.61,0,0,0,.55,2.32,10.22,10.22,0,0,1,.52,2.41c0,.84-.5,1.38-1.12,1.38-.86,0-1.25-.78-1.25-2.31,0-3.15,0-3.85-1.87-4.6v-.16a2.18,2.18,0,0,0,1.61-.57c.42-.44,3.36-8.3,3.62-9.21Zm-3.64-6.43c1.14.06,3.82.73,3.82,2.32a1,1,0,0,1-.94,1.12c-.7,0-.93-.47-1.4-1.38a5,5,0,0,0-1.48-1.9Zm9.72.89.39-.39c.18-.18.34-.34.47-.34a1.54,1.54,0,0,1,.44.23l.89.71c.26.2.41.33.41.52s-.31.44-.73.78v2.21c0,.52.11,2.75.11,3.19a1.1,1.1,0,0,1-1.2,1c-.67,0-.62-.52-.57-1.09h-3.35c0,1.14,0,6.24,0,7.28s.08,6.24.08,7.22a1.11,1.11,0,0,1-1.22,1.17c-.76,0-.76-.52-.76-.83,0-.47.11-2.62.11-3.06.07-3.54.1-9.05.1-12.72,0-1.3,0-4.94-.16-6,0-.36-.13-.8-.2-1.14l2.39,1.25Zm-3.14.62v2.26h3.35V81.15Zm0,2.89v2.7h3.35V84Zm6.18,7.07v2.78h.94l.65-.86c.1-.13.26-.31.39-.31a.82.82,0,0,1,.49.29l.89.86a.61.61,0,0,1,.23.39c0,.26-.26.26-.39.26h-3.2v3.12h2l.57-.89c.1-.18.23-.34.39-.34s.23.08.47.26l1.17.91c.07.08.26.24.26.4s-.26.28-.42.28h-6.37a19.37,19.37,0,0,0-3.07.23l-.52-1c.65.06,3.1.16,3.88.19v-3.1a18.12,18.12,0,0,0-2.5.21l-.52-1c.94.07,1.14.07,3,.15V91.11a17.05,17.05,0,0,0-3.23.23l-.52-1c1.25.11,2.73.19,4,.19H133l.78-.86c.13-.16.28-.31.39-.31a.91.91,0,0,1,.47.28l.93.83a.63.63,0,0,1,.26.39c0,.21-.1.29-.39.29Zm5.44-10.58.41-.47c.19-.21.39-.42.52-.42a1.25,1.25,0,0,1,.45.21l1.09.83a.77.77,0,0,1,.34.52c0,.24-.26.5-.89,1,0,5.83,0,6.48.05,8.66,0,1.51.19,8.19.19,9.54,0,1-.34,2.26-2.89,2.71a3.35,3.35,0,0,0-2.16-2.55v-.18c.6,0,1.38.1,2.5.1.54,0,.75,0,.75-.62s-.08-2.84-.08-3.33c0-2.83,0-6.22,0-9.15H134a1.08,1.08,0,0,1-1.11,1.14c-.52,0-.71-.29-.71-.65,0-.08,0-.42,0-.52.05-.7.05-3.12.05-4a17.36,17.36,0,0,0-.26-3.93l2.24,1.12Zm-3.12.62v2.26h3.35V81.15ZM134,84v2.7h3.35V84Z"/><path class="cls-1" d="M164.11,96.57a1.33,1.33,0,0,0-.05.34c0,.21.21,1.19.21,1.4a.78.78,0,0,1-.81.89c-.91,0-4.6-1.3-5-8.71A39.65,39.65,0,0,0,158,85.7a8.82,8.82,0,0,0-.91-2.13c1.33.08,3.28,1.22,3.28,2.91a3.46,3.46,0,0,1-.11.86,23.22,23.22,0,0,0-.34,3.61c0,3.2,1.56,5.1,2.27,5.1.28,0,.54-.34.62-.47,1.17-1.74,3.1-4.5,4.21-6.26l.21.07C166.87,90.17,164.16,96.28,164.11,96.57ZM177,95c-.31,0-.41-.11-1.43-1.07a6.21,6.21,0,0,0-2.75-1V92.7c.36-.06,2.13-.21,2.31-.26a.66.66,0,0,0,.57-.68,9.26,9.26,0,0,0-4.57-6.24,2,2,0,0,1,.44,0c2.91,0,6.34,4.78,6.34,7.8C177.89,94.18,177.4,95,177,95Z"/><path class="cls-1" d="M200.59,93.63a30.26,30.26,0,0,0-.91,5c0,.28.13,1.53.13,1.79,0,.44-.05,1-.67,1-1.07,0-2.76-2.39-2.76-7.66a63.39,63.39,0,0,1,1-8.07,13.27,13.27,0,0,0,.15-1.74,3.51,3.51,0,0,0-.88-2.52,1.06,1.06,0,0,1,.47-.1c.93,0,2.62,1.45,2.62,2.47a3.46,3.46,0,0,1-.34,1.22,22.69,22.69,0,0,0-1.82,8.16c0,1.8.45,3.8.86,3.8.16,0,.29-.31.34-.5.29-.88,1.38-3.9,2.31-5.9l.21,0C201.17,91.29,200.8,92.8,200.59,93.63Zm12.51,5.46a25.47,25.47,0,0,1-6.37-.73,3.8,3.8,0,0,1-2.63-3.53,2,2,0,0,1,.26-1.09c.6,2,1.07,3.48,6,3.48.53,0,3-.21,3.31-.21.91,0,2,.39,2,1.12S214.74,99.09,213.1,99.09Zm-.21-13.75a12.14,12.14,0,0,0-5,1.92l-.16-.15c.39-.37,2.29-2.11,2.36-2.19a.24.24,0,0,0,.08-.21c0-.28-.8-.28-1-.28a15.06,15.06,0,0,0-4.73,1.17c1.4-1.87,4-2.55,6.45-2.55,1.61,0,3.46.47,3.46,1.38C214.38,85,213.83,85.18,212.89,85.34Z"/><path class="cls-1" d="M255,92.77h-4.79c0,1.12.11,6,.11,7s0,2.83-2.94,3.25a3.53,3.53,0,0,0-2.11-2.45l0-.18c.62,0,1.35.11,2.08.11s.91,0,1-.19a4.59,4.59,0,0,0,.11-1.4c0-.78,0-3.93-.06-6.14H235.7a17,17,0,0,0-3.06.24l-.52-1c1.61.13,3.22.18,4,.18H252l.8-1.2c.08-.13.24-.33.39-.33s.34.18.47.28l1.46,1.2a.54.54,0,0,1,.26.39C255.34,92.75,255.13,92.77,255,92.77Zm-1.54-8.45c-.28.11-1.69.76-2,.91l-.13-.13a21.3,21.3,0,0,0,.8-2.15H236.3c-.1,1.06-.73,3.79-2.7,3.79a1,1,0,0,1-1.07-1c0-.78.57-1.17,1.51-1.82A4.31,4.31,0,0,0,236,81h.21a10.07,10.07,0,0,1,.08,1.3h6.45a7.5,7.5,0,0,0-.55-3.12L245,80a.4.4,0,0,1,.34.33c0,.19,0,.32-.81.76a8.85,8.85,0,0,0,0,1.27h7.28l.63-.6a.91.91,0,0,1,.46-.26.75.75,0,0,1,.5.26L255,83.39a.78.78,0,0,1,.16.41C255.13,84.22,254.76,84.32,253.41,84.32Zm-2.16,2.5h-7.9c-.08.13-.16.26-.26.44,1.74.11,6.76.91,6.76,3.1a1,1,0,0,1-.94,1c-.57,0-.7-.18-1.48-1a13.25,13.25,0,0,0-4.5-2.81c-2.1,3.07-6.5,3.51-7.43,3.61l0-.13c2.89-.91,5-2.39,6.06-4.21h-1.72a16.34,16.34,0,0,0-3.07.23l-.52-1c1.62.13,3.23.19,4,.19h1.61a5.07,5.07,0,0,0,.44-1.93,2.49,2.49,0,0,0-.13-.83l2.39.52c.16,0,.37.13.37.31s-.16.39-.89.76a4.72,4.72,0,0,1-.39,1.17h4.74l.75-1.1c.11-.13.23-.33.37-.33A.82.82,0,0,1,250,85l1.4,1.09a.49.49,0,0,1,.26.41C251.64,86.77,251.44,86.82,251.25,86.82Zm-7,9.49c0,.44.08,2.55.08,3a1.13,1.13,0,0,1-1.12,1.24c-.83,0-.76-.59-.7-1H238v.75c0,.55,0,1.4-1.12,1.4-.28,0-.75-.07-.75-.64,0-.21.13-3.62.13-4.3a22.37,22.37,0,0,0-.16-2.88l2.19,1h4l.65-.63a.59.59,0,0,1,.36-.15.53.53,0,0,1,.39.15l.94.76c.13.1.28.23.28.39S244.73,95.84,244.26,96.31Zm-1.74-.73H238V99h4.53Z"/><path class="cls-1" d="M282.07,100.73a10.32,10.32,0,0,1-3.69,2.29l-.06-.13c4.5-3.25,5.83-8.27,5.83-12.92,0-1.72-.11-6.45-2.06-6.45-1,0-1.76,1.06-2,1.4a18.49,18.49,0,0,0-2.75,8.61c0,.28.18,1.61.18,1.87s-.11.73-.63.73c-1.53,0-2-3-2-5.38a56,56,0,0,1,.91-7.52,5.7,5.7,0,0,0,.11-1,2.71,2.71,0,0,0-1.51-2.36,5,5,0,0,1,1.17-.18,2.26,2.26,0,0,1,2.29,1.87,3,3,0,0,1-.32,1.14,18.79,18.79,0,0,0-1.45,7c0,.39,0,1.87.26,1.87s.21-.13.23-.26c.6-2.13,2.84-8.79,5.9-8.79,3.25,0,3.59,5.1,3.59,7.7C286.07,95,285,98.08,282.07,100.73Z"/><path class="cls-1" d="M305.51,87c1.8,0,4,1.17,4,2.52,0,.21-.08,1.1-1,1.1-.57,0-.7-.24-1.3-1.25a9.23,9.23,0,0,0-1.79-2.24Zm6.74-.08a67.65,67.65,0,0,1-2.45,8.61,4.14,4.14,0,0,0-.28,1.41,8.84,8.84,0,0,0,.44,2.28,6.93,6.93,0,0,1,.41,2c0,1.35-.88,1.51-1.19,1.51-.83,0-1.17-.84-1.17-1.48,0-.29.08-1.51.08-1.77,0-1.69,0-2.94-1.56-3.72v-.21a2.16,2.16,0,0,0,1.79-.75c.83-1.15,3.67-7.62,3.77-7.86Zm-4.68-6.83c1.95.26,4,1.32,4,2.93a.92.92,0,0,1-1,1c-.81,0-1.12-.7-1.33-1.17a10.51,10.51,0,0,0-1.71-2.67Zm4.13,14.66a27.89,27.89,0,0,0,5.62-8.55h-1.41a18,18,0,0,0-3.07.23l-.49-1c1.61.13,3.2.15,4,.15h1.25c.49-1.4.67-2.16.78-2.57a28.14,28.14,0,0,1-5.44.34l.05-.16c1.77-.31,9.57-2.21,11.39-4.19L326,80.5c.23.24.34.31.34.55s-.29.36-.42.36a3.93,3.93,0,0,1-.94-.15,33.09,33.09,0,0,1-4.49,1.35,20.35,20.35,0,0,1-1,3h5.8l1-1.17c.16-.18.26-.31.39-.31s.26.08.49.26l1.43,1.17a.51.51,0,0,1,.26.42c0,.23-.23.26-.39.26h-7a11.42,11.42,0,0,0,8.27,6v.1a5.74,5.74,0,0,0-2.63,1.82A15.77,15.77,0,0,1,321,86.2h-1.84a17.7,17.7,0,0,1-7.41,8.65Zm2.83,0a4.58,4.58,0,0,1,.34,2c0,2.06-.78,3.49-1.95,3.49a.86.86,0,0,1-.91-.89c0-.57.21-.83,1-1.74a7.88,7.88,0,0,0,1.43-2.83Zm5.31-3.07c.28.08.39.21.39.36s-.08.31-.78.81c.05,1.53.08,5.33.08,6.84,0,1.74-.63,2.6-2.66,3.06-.2-1-.65-1.61-2-2.54v-.13a14.23,14.23,0,0,0,2,.15c.5,0,.76-.05.84-.39a22.18,22.18,0,0,0,.07-2.23c0-.91,0-5-.15-5.65a4.31,4.31,0,0,0-.29-1ZM321,95.14c1.19.76,3,2.65,3,4.29a1.24,1.24,0,0,1-1.2,1.4c-1,0-1.06-1-1.12-1.66a11.11,11.11,0,0,0-.83-4Zm3.79.31c1.15.65,3.9,2.32,3.9,4.5a1.18,1.18,0,0,1-1.09,1.3c-.94,0-1.14-1.12-1.3-1.9a10.89,10.89,0,0,0-1.61-3.82Z"/><path class="cls-1" d="M353,96.57a1.33,1.33,0,0,0,0,.34c0,.21.21,1.19.21,1.4a.78.78,0,0,1-.81.89c-.91,0-4.6-1.3-5-8.71a39.65,39.65,0,0,0-.42-4.79,8.82,8.82,0,0,0-.91-2.13c1.33.08,3.28,1.22,3.28,2.91a3.46,3.46,0,0,1-.11.86,23.22,23.22,0,0,0-.34,3.61c0,3.2,1.56,5.1,2.27,5.1.28,0,.54-.34.62-.47,1.17-1.74,3.09-4.5,4.21-6.26l.21.07C355.72,90.17,353,96.28,353,96.57ZM365.83,95c-.31,0-.42-.11-1.43-1.07a6.25,6.25,0,0,0-2.76-1V92.7c.37-.06,2.14-.21,2.32-.26a.66.66,0,0,0,.57-.68A9.25,9.25,0,0,0,360,85.52a2.14,2.14,0,0,1,.45,0c2.91,0,6.34,4.78,6.34,7.8C366.74,94.18,366.25,95,365.83,95Z"/><path class="cls-1" d="M389.62,101.87c-.83,0-1-.67-1.3-1.53a10.12,10.12,0,0,0-3.41-5l.08-.24a11.1,11.1,0,0,1,4.14,2.06,4.74,4.74,0,0,1,1.76,3.2A1.39,1.39,0,0,1,389.62,101.87Z"/><path class="cls-1" d="M428.1,88.28a17.72,17.72,0,0,0-3,.23l-.52-1c1.77.15,3.66.15,4,.15h1.2V83.83H428.1a10.22,10.22,0,0,0-2.16.16l-.34-.91c1.17.1,2.32.13,2.84.13h1.3c0-1,0-2.79-.05-3a7.48,7.48,0,0,0-.29-1l2.55.78c.21.06.36.16.36.37s-.18.41-.8.7a9.38,9.38,0,0,0-.13,2.24H432l.57-.81c.16-.23.23-.34.39-.34s.29.08.49.29l.78.8c.16.16.26.26.26.39s-.15.29-.39.29h-2.7c0,.6,0,3.28,0,3.82h.52c1.41-1.87,3.93-5.43,4.14-7.15L438,82a.44.44,0,0,1,.23.36c0,.37-.28.39-.93.47-1.43,2-2.52,3.51-3.67,4.86h1.64l.86-1.06c.18-.21.26-.34.39-.34a1.05,1.05,0,0,1,.47.28l1.22,1.07a.52.52,0,0,1,.23.42c0,.23-.21.26-.39.26h-4.91a42.27,42.27,0,0,1-3,3.3l.34.15H434l.68-.75a.47.47,0,0,1,.36-.23.68.68,0,0,1,.39.18l1.22.83c.32.21.37.34.37.47s-.16.36-.94.8c0,1-.05,2.84,0,5.46,0,.39.13,2.06.13,2.4,0,.88-.91,1.06-1.35,1.06-.63,0-.6-.28-.58-1.22h-4.1c0,.88.05,1.69-1.36,1.69-.46,0-.59-.23-.59-.62,0-.21.13-1.67.13-2,0-.52.23-4.68.15-6.86a25.13,25.13,0,0,1-4.73,3.12l-.18-.18a41.92,41.92,0,0,0,4.86-4.35c0-.23-.05-.57-.1-.91L429,91c.91-1,1.38-1.51,2.34-2.7Zm2.08,4.08v3.51h4.16V92.36Zm0,4.13v3.62h4.16V96.49Zm14.51-15.34.6-.52a.52.52,0,0,1,.33-.18c.13,0,.32.21.39.26l1.49,1.4a.77.77,0,0,1,.23.45c0,.36-.42.52-1.22.65-1.43,2-3.82,5.35-3.95,5.51,1.09.6,5.25,3,5.25,7.12,0,2.5-1.51,3.85-4,4.16a3.72,3.72,0,0,0-1.87-2.68l.08-.15a10.88,10.88,0,0,0,2.34.34c1.53,0,1.53-1.51,1.53-1.8,0-2.31-1.17-4.65-3.87-6.86a70.33,70.33,0,0,0,2.7-7.07H441c-.08,5.66-.1,13.44.13,19,0,.16,0,.47,0,.78,0,1.25-1.33,1.25-1.43,1.25-.44,0-.65-.18-.65-.7s.1-1.66.1-2.29c.11-4.42.16-13.18.16-13.44a28.74,28.74,0,0,0-.44-6.32l2.36,1Z"/><path class="cls-1" d="M467.8,95.24a2.58,2.58,0,0,1-2.16,1.62,1.17,1.17,0,0,1-1.14-1.2c0-.49.07-.57.93-1.4A8.1,8.1,0,0,0,468,89.34l.19,0a5.3,5.3,0,0,1,.39,2.13A10.88,10.88,0,0,1,467.8,95.24Zm13.57,6.27a13,13,0,0,1-4.5.47c-3.58,0-4.68,0-5-1.79-.11-.71-.11-3.39-.11-5.08V86.85a6,6,0,0,0-.36-2.5l2.75.86c.21.05.5.15.5.39s-.29.41-1,.7c0,1.27-.08,9.57-.08,10.5,0,2.68,0,2.92.47,3.15a5.28,5.28,0,0,0,2.08.21c2.49,0,3.22-.1,3.64-.89a17.48,17.48,0,0,0,1-3.61l.15,0a32.68,32.68,0,0,0,.6,3.27,2.13,2.13,0,0,0,.78.86.39.39,0,0,1,.16.37C482.57,100.44,482.36,101.1,481.37,101.51Zm-3.48-17c-.89,0-1-.6-1.54-2a7.51,7.51,0,0,0-1.77-3.09l.11-.16c4.37,1.22,4.37,3.64,4.37,4A1.22,1.22,0,0,1,477.89,84.53Zm9,11.68c-.89,0-1.17-.76-1.64-2.14a12.6,12.6,0,0,0-3.25-5l.1-.18c2.63,1,6,3.43,6,5.87C488.05,95.27,487.77,96.21,486.86,96.21Z"/><path class="cls-1" d="M520.94,84c-3.32,0-4.31,0-6.05,1a9.79,9.79,0,0,0-4.4,7.75c0,4.34,4.58,5.36,6.92,5.88.39.07,1.48.31,1.48,1.43,0,.67-.65.72-1,.72-2.68,0-8.68-2-8.68-7.69a9.34,9.34,0,0,1,2.13-5.83,18.73,18.73,0,0,1,3.59-3.25,45.58,45.58,0,0,0-9.21,2.79c-1.11.65-1.24.7-1.66.7a2.24,2.24,0,0,1-1.9-2.29,2.27,2.27,0,0,1,.37-1.33c.49.78.88,1.38,2,1.38a20.64,20.64,0,0,0,3.83-.75c3.09-.76,8.08-1.87,11.18-2.63a5.64,5.64,0,0,1,.83-.13c.39,0,2.08.5,2.08,1.38S521.67,84,520.94,84Zm-.72,6.61c-.45,0-.52-.11-1.15-1.2a13.84,13.84,0,0,0-2.44-2.86c1.74.36,4.29,1.51,4.29,3.15C520.92,90.15,520.76,90.62,520.22,90.62Zm3-1.2c-.39,0-.47-.13-1.22-1.27a12.11,12.11,0,0,0-2.66-2.5c1.67.16,4.58,1.22,4.58,2.94A.73.73,0,0,1,523.26,89.42Z"/><path class="cls-1" d="M561.33,98.78a14.43,14.43,0,0,1-4.45-2.5,1.6,1.6,0,0,0-.23.16c0,.83.1,4.6.1,5.38s-.86,1-1.17,1c-.68,0-.65-.36-.62-1.06h-7.75c0,.41,0,1.09-1.17,1.09-.65,0-.65-.39-.65-.81,0-.91.08-4.94.08-5.77A17.62,17.62,0,0,1,539,99.43l0-.16a28.74,28.74,0,0,0,8-6.16h-4a18.33,18.33,0,0,0-3.06.24l-.52-1c1.76.13,3.64.16,4,.16h4.08a14.57,14.57,0,0,0,1.69-2.37h-3.25c0,.86-.62,1.09-1.22,1.09s-.57-.18-.57-.57,0-2.55,0-3a15.76,15.76,0,0,0-.23-3.82l2.21,1H556.2l.45-.47c.23-.23.36-.36.46-.36s.26.13.37.18l1,.68a.59.59,0,0,1,.26.44c0,.21-.08.28-.62.78,0,.65.1,3.51.1,4.08s-.86.91-1.25.91-.54-.31-.52-1h-5.79l.62.31a.36.36,0,0,1,.18.34c0,.26-.18.34-.86.57-.39.47-.59.73-1,1.15h9.56l1.12-1.28c.18-.18.29-.33.39-.33s.37.18.5.28l1.45,1.28c.16.15.26.23.26.41s-.23.26-.41.26h-7.93a14,14,0,0,0,8.58,3.59v.16A3.81,3.81,0,0,0,561.33,98.78Zm.59-16.48h-7.25c0,.2,0,1.11,0,1.3,0,.52-.6.75-1.17.75s-.63,0-.6-2h-4.4a6.21,6.21,0,0,1-.1,1.63,1.63,1.63,0,0,1-1.12.45c-.52,0-.52-.37-.52-.76V82.3h-3.3a18.81,18.81,0,0,0-3.07.23l-.52-1c1.74.16,3.51.18,4,.18h2.88a7,7,0,0,0-.34-2.65l2.29.57c.16,0,.37.11.37.34s-.16.31-.58.57v1.17h4.37a8,8,0,0,0-.28-2.57l2.28.54c.19.06.39.08.39.32s-.2.39-.65.65v1.06h4.16l1-1.17c.15-.18.26-.31.41-.31a1.05,1.05,0,0,1,.5.26l1.37,1.17a.51.51,0,0,1,.26.39C562.31,82.24,562.11,82.3,561.92,82.3Zm-5.46,3.19H545.88v1.64h10.58Zm0,2.27H545.88V89.5h10.58ZM554,93.11h-4.94a23,23,0,0,1-2,2l.07,0h7.8l.34-.33A8.66,8.66,0,0,1,554,93.11Zm1,2.63h-7.75V98.1H555Zm0,3h-7.75v2.44H555Z"/><path class="cls-1" d="M586,101.3v-.15A18.83,18.83,0,0,0,592.08,99c1.85-1,3.38-2.24,3.38-4.45a3.06,3.06,0,0,0-3.28-3.33c-3.09,0-6.42,2.08-8.5,5.23a.8.8,0,0,1-.65.47c-1,0-1.38-1.54-1.38-2.09A8.3,8.3,0,0,1,582,93a39.6,39.6,0,0,0,.47-5.46c0-2.36,0-3.72,4.5-4.42.15,0,.23,0,.23-.18s-.08-.18-.7-.6a3.5,3.5,0,0,1-1.61-2.57c1.12.91,1.32,1,3.74,2,.57.23,2,.83,2,2.39,0,.57-.21.81-.55.81a2.64,2.64,0,0,1-1.19-.42,7.77,7.77,0,0,0-2.71-.44c-2,0-2.81.62-2.81,1.38,0,.26.06.41.58,1.71a3.09,3.09,0,0,1,.18.91,13.28,13.28,0,0,1-.37,1.54,18.47,18.47,0,0,0-.54,3.53c0,.16,0,.6.34.6.15,0,1.76-1.17,2.1-1.38a13.68,13.68,0,0,1,6.71-2.08c3.56,0,5.07,2.5,5.07,4.53C597.46,99.12,592.16,101.67,586,101.3Z"/><path class="cls-1" d="M634.59,86.35c-.86,0-2.23-.31-3.09-.39s-1.8-.1-2.45-.1c-1.09,0-2.31.08-3.12.13,0,.8,0,1.4,0,2.08s0,1.14.05,1.61a7.69,7.69,0,0,1,1.12,4.11c0,3.92-2.52,7.59-7.31,9.28l-.1-.18A11,11,0,0,0,625,95.48a2.89,2.89,0,0,1-1.72.86c-1.3,0-2.94-1.72-2.94-4,0-1.89,1.25-3.77,3-3.77a4.46,4.46,0,0,1,1.51.32c0-.13-.05-1.88-.05-2.81-1.59.18-5.93.75-8.48,2.13-.75.39-.83.44-1.06.44-.89,0-2.13-1.61-2.13-2.68a1.37,1.37,0,0,1,.2-.72,2.39,2.39,0,0,0,1.9,1.22c.29,0,2.34-.37,3.51-.55,2.45-.41,4.37-.7,6-.86-.18-4.16-.18-4.23-2.34-5a2.41,2.41,0,0,1,1.51-.6c.68,0,2.63.7,2.63,1.54,0,.07-.18.83-.24,1a24.21,24.21,0,0,0-.33,3l7.3-.65c.89,0,2.13.6,2.13,1.33A.74.74,0,0,1,634.59,86.35Zm-11.65,3.41a2.18,2.18,0,0,0-1.74,2.36,2.6,2.6,0,0,0,2.11,2.68c.86,0,1.56-.93,1.56-2.44C624.87,91.73,624.76,89.76,622.94,89.76Z"/><path class="cls-1" d="M656.85,102.06a3.84,3.84,0,1,1,3.77-3.85A3.79,3.79,0,0,1,656.85,102.06Zm0-6.92a3.08,3.08,0,1,0,3,3.09A3,3,0,0,0,656.85,95.14Z"/></g></g></svg>