<svg xmlns="http://www.w3.org/2000/svg" viewBox="0 0 79 67.89"><defs><style>.cls-1{fill:#b5262d;}.cls-2{fill:#fff;}</style></defs><title>new</title><g id="レイヤー_2" data-name="レイヤー 2"><g id="テキスト"><polygon class="cls-1" points="0 67.89 0 0 79 0 0 67.89"/><path class="cls-2" d="M21,39c.41.48,2.07,2.41,2.48,2.78a.4.4,0,0,1-.16.45c-.43-.11-1.38-.27-4.17-.67l-7.42-1C10.86,40.41,8.62,40,8,40l0,0a5.45,5.45,0,0,0,.83,1.12l3,3.52c.65.76,2.47,2.85,3.17,3.1.24.1.65-.09,1.08-.4L16.6,47a.37.37,0,0,1,.31.43C16.16,48,15.58,48.45,15,49s-1.1,1-1.64,1.49a.39.39,0,0,1-.38-.38l.39-.42c.33-.37.51-.69.44-.93a20.88,20.88,0,0,0-2.66-3.52l-4-4.67a1.9,1.9,0,0,0-1.35-.86,2.37,2.37,0,0,0-1.34.47l-.3.21c-.18,0-.39-.26-.32-.44.72-.53,1.58-1.27,1.87-1.52a6.7,6.7,0,0,0,.71-.69c1,.55,4.77,1,5.82,1.19l3.09.41c2.18.29,3.75.51,5.18.63l0,0c0-.14-.22-.4-.52-.74l-3-3.46c-.65-.76-2.48-2.85-3.2-3.07-.22-.06-.57.06-1.28.54l-.31.2c-.19,0-.4-.27-.31-.43.77-.61,1.33-1.07,1.95-1.59s1.1-1,1.62-1.48a.37.37,0,0,1,.38.37l-.2.23c-.44.53-.66.93-.61,1.12.23.82,2,2.79,2.62,3.54Z"/><path class="cls-2" d="M21.85,28.72c-1.45-1.69-1.69-1.9-2.74-1.19l-.28.19c-.16,0-.37-.3-.32-.44.72-.56,1.29-1,1.95-1.59l3-2.61a28.64,28.64,0,0,0,2.15-1.93,24.44,24.44,0,0,1,2.1,1.93c0,.15-.21.41-.37.38-.9-.55-1.53-1-2.55-.48a10.07,10.07,0,0,0-1.66,1.25l-1.16,1c-.49.42-.46.45.07,1.07l2.78,3.23c.39.46.44.41.92,0l.94-.81A7.41,7.41,0,0,0,28,27.44c.14-.23.17-.42-.09-.9l-.45-.77c0-.17.28-.41.44-.35.33.39.81,1.08,1.34,1.69s1.09,1.14,1.4,1.5c0,.17-.24.4-.41.38l-.69-.51a.91.91,0,0,0-1-.18,7.32,7.32,0,0,0-1.31,1l-.94.8c-.49.42-.52.48-.16.9l2,2.28c.74.86,1.26,1.37,1.76,1.42s.85-.09,2.27-1.31c1.25-1.07,1.66-1.54,1.86-2a5.17,5.17,0,0,0-.2-2.56.41.41,0,0,1,.51-.24,18.6,18.6,0,0,1,1.2,2.88c-1.48,1.22-2.94,2.44-4.38,3.68l-1.45,1.25c-.7.6-1.23,1.09-2.16,1.94-.14,0-.39-.2-.38-.38l.49-.51c.85-.87.73-1.18-.73-2.88Z"/><path class="cls-2" d="M29,18.94a.35.35,0,0,1-.29-.43c.46-.34,1.21-1,1.71-1.38s1.26-1.12,1.8-1.64c.19-.07.37.17.37.36l-.35.35c-.31.33-.42.59-.29.74a16.47,16.47,0,0,0,2.7,1.44c2.64,1.25,5.34,2.45,8,3.63-.3-1.14-.64-2.42-1-3.69a4.27,4.27,0,0,0-.31-.89,1.86,1.86,0,0,0-.5-.3c-1.67-.81-3.38-1.59-5.11-2.36a1.65,1.65,0,0,0-1.8,0l-.42.3a.33.33,0,0,1-.3-.41c.5-.37,1.13-.89,1.77-1.44.81-.7,1.4-1.23,1.74-1.58.16-.05.35.15.37.36l-.39.39c-.59.6-.51.72.42,1.19s2.35,1.13,3.67,1.74c-.24-.89-.48-1.76-.87-2.94-.6-1.87-.84-2-1.38-1.57l-.51.38c-.26-.06-.38-.27-.3-.41.46-.34,1-.75,1.56-1.26s1.16-1,1.51-1.38c.15-.05.35.14.37.36l-.45.43c-.63.63-.3,1.61-.08,2.58s.7,2.88.94,3.66a1.89,1.89,0,0,0,.19.51,1.47,1.47,0,0,0,.45.29c1.62.78,3.23,1.5,4.82,2.27q-.7-2.34-1.48-4.66c-.34-1.06-1.34-3.94-1.47-4.33a13.17,13.17,0,0,0-.78-1.89c-.2-.23-.5-.19-.85.09l-.5.37c-.26,0-.39-.23-.32-.41.64-.49,1.09-.85,1.59-1.28s1.07-1,1.47-1.34c.17-.07.37.13.36.36l-.28.29c-.73.78-.46,1.39.5,4.47l1.17,3.75c.7,2.26,1.42,4.4,2.24,6.71a.46.46,0,0,1-.15.21.72.72,0,0,1-.27.15c-1.75-1-4.43-2.21-5.9-2.92a66,66,0,0,0,1.92,6.34.46.46,0,0,1-.15.21.71.71,0,0,1-.28.16c-.86-.44-2.74-1.35-3.36-1.64-3-1.36-5.9-2.75-8.89-4.09-.87-.4-1.44-.67-2.18-.15Z"/></g></g></svg>