<svg xmlns="http://www.w3.org/2000/svg" viewBox="0 0 386.77 129.71"><defs><style>.cls-1{fill:#fff;}</style></defs><g id="レイヤー_2" data-name="レイヤー 2"><g id="背景"><path class="cls-1" d="M386.33,14.51C371.66,39,346.57,59.67,309.68,61.14c-53.35,2.13-86-23-125.44-25.77-24.19-1.68-43,3.49-57.17,10.42l.79,1.63c12.9-5.72,29-8.64,57.57-6.6,52.63,3.75,79.19,27.5,124.71,27.5,43.3,0,67.34-33.55,76.63-52.73Z"/><path class="cls-1" d="M280.77,82.67c6-1.61,7.7-5.76,10.24-11.16l22.53-51.13h.58l23.18,55c2.11,4.36,3.49,7,7.49,7V83.5h-21.7V82.31c2.23-.44,2-3.59,1.16-6l-14.34-34.7h-.74l-15,34.61c-1.63,3.55-.22,6.06,1,6.7v.6H280.77Z"/><path class="cls-1" d="M183.24,75.57c-1.08,2.39-3.11,4.52-7.4,4.52H159.55V53.56h11.52a5.84,5.84,0,0,1,4.57,2.86c.1.24.48.15.42-.19-.16-1-.14-4-.15-5.29a44.63,44.63,0,0,1,.15-4.6c.06-.33-.33-.44-.42-.18a5.34,5.34,0,0,1-4.95,3.2H159.55V24.73h10.22c4.29,0,4.44,1.37,5.15,2.33.43.6.69.23.63-.22-.56-4.55-1-6.18-4.11-6.18s-16.78.24-20.8.29h-1.07a37.46,37.46,0,0,1-5.69-.12c-.56-.08-.72.54-.31.71C146.12,22.61,147,24.46,147,27V76.89c0,5.17-1.47,5.41-3.49,6.41-.56.28-.51.84.44.74a49.9,49.9,0,0,1,5.69-.17h11.74c4,0,13.9.29,17,.29,3,0,4-2.63,5.45-8.38C184,75.36,183.54,74.9,183.24,75.57Z"/><path class="cls-1" d="M121.82,83.39c-1.93-1-3.15-3.71-3.15-5.64V27.06c0-1.93,1.22-4.66,3.15-5.64.6-.31.2-.87-.27-.76a62.35,62.35,0,0,1-9.25.61c-2.18,0-7.52-.16-9.3-.44-.56-.08-.72.54-.32.71,2.56,1.07,3.45,2.92,3.45,5.46V77.81c0,2.54-.89,4.39-3.45,5.46-.4.17-.24.8.32.71,1.78-.28,7.12-.44,9.3-.44a62.35,62.35,0,0,1,9.25.61C122,84.27,122.42,83.7,121.82,83.39Z"/><path class="cls-1" d="M267.74,83.39c-1.92-1-3.14-3.71-3.14-5.64V27.06c0-1.93,1.22-4.66,3.14-5.64.61-.31.21-.87-.26-.76a62.35,62.35,0,0,1-9.25.61c-2.18,0-7.53-.16-9.3-.44-.57-.08-.72.54-.32.71,2.56,1.07,3.45,2.92,3.45,5.46V77.81c0,2.54-.89,4.39-3.45,5.46-.4.17-.25.8.32.71,1.77-.28,7.12-.44,9.3-.44a62.35,62.35,0,0,1,9.25.61C268,84.27,268.35,83.7,267.74,83.39Z"/><path class="cls-1" d="M236.13,75.57c-1.08,2.39-3.11,4.52-7.4,4.52H212.45v-53c0-1.93,1.21-4.66,3.15-5.64.6-.31.19-.87-.27-.76a62.35,62.35,0,0,1-9.25.61c-2.19,0-7.53-.16-9.3-.44-.57-.08-.72.54-.32.71,2.56,1.07,3.45,2.92,3.45,5.46V76.89c0,5.17-1.47,5.41-3.49,6.41-.56.28-.51.84.43.74a50.09,50.09,0,0,1,5.69-.17h11.74c4,0,13.91.29,17,.29,3,0,4-2.63,5.45-8.38C236.88,75.36,236.43,74.9,236.13,75.57Z"/><path class="cls-1" d="M96.82,61.89c-7.88,10-26,23.32-46.77,23.32C20.13,85.21,0,66,0,42.38,0,16.48,22.25,0,50.05,0,66.8,0,77.54,7.65,81.48,7.45l-.55,17.13-1.57-.2c-2.9-8.22-15.06-19.8-31-18.59C34.09,6.86,22.39,23.06,22.21,42.32,22,63.79,34.11,78.45,51.77,78.45c18.93,0,32.32-6.86,44.14-18.38Z"/><path class="cls-1" d="M93.84,117.11c-.45,0-.68-.17-1.56-.84-2.82-2.21-3.88-2.64-5.36-3.06a16.68,16.68,0,0,1,3.48-.4c3.64,0,4.84,1.62,4.84,2.78A1.39,1.39,0,0,1,93.84,117.11Zm2.26-6.56a1.88,1.88,0,0,1-1.29-.65c-2.73-2.44-3.67-3.12-5.24-3.57a14.26,14.26,0,0,1,2.45-.25c3,0,5.39,1.24,5.39,2.91C97.41,109.56,97.09,110.55,96.1,110.55Zm-.26,14.83a8.06,8.06,0,0,0-2.22,1.87.86.86,0,0,1-.66.31,4.94,4.94,0,0,1-3.3-4.47,3,3,0,0,1,.14-.88A4.22,4.22,0,0,0,92,123.88c2.08,0,11.88-7.73,15.76-12.94l.2.09C106.47,115.61,101.77,121.19,95.84,125.38Z"/><path class="cls-1" d="M132.71,123.76c-.35,0-1.89-.39-2.2-.45a38.67,38.67,0,0,0-6.07-.42A49.9,49.9,0,0,0,114.19,124c-.2.06-1.89.71-2.06.71-.88,0-2.76-1.9-2.76-3.76a4.1,4.1,0,0,1,.29-1.39,3.48,3.48,0,0,0,3.56,2.15c1.39,0,4.7-.28,6.72-.45,0-6.62,0-7-.14-7.78s-.37-.91-.83-1.08a14.91,14.91,0,0,0-2.76.51,3,3,0,0,1-.63.08c-1,0-2.65-2.15-2.48-3.39a5,5,0,0,0,3.31,1c1.82,0,7.43-.37,8.94-.94a3.86,3.86,0,0,1,1.26-.36c.65,0,2.45.65,2.45,1.69,0,.29-.23,1-1.34,1h-4.13c-.69,0-1.14,0-1.54,0,1,.71,1.17.79,1.17,1.13s-.4,1.36-.43,1.62c-.09.56-.11,1.19-.2,2.35-.08,1.33-.14,2.63-.23,4,.91-.06,5-.23,5.76-.31.37,0,1.85-.46,2.16-.46,1.06,0,3.31,1.25,3.31,2.61A.85.85,0,0,1,132.71,123.76Z"/><path class="cls-1" d="M142.82,109.59a9.2,9.2,0,0,0-.37,3c0,.73.08,4,.08,4.64s0,2.46-1.22,2.46c-.86,0-1.83-1.25-1.83-2.69,0-.28.17-1.41.2-1.64.06-.62.15-1.84.15-3.23,0-3.28,0-3.59-2.63-4.27a4,4,0,0,1,2.08-.76c1.12,0,3.68.82,3.68,1.81A4,4,0,0,1,142.82,109.59Zm10-.23c-.06.54-.2,5.74-.26,6.82-.2,4.73-1.51,7.36-3.84,9.62a10.79,10.79,0,0,1-5.45,3l-.14-.17c6.7-4.38,6.7-11.52,6.7-16.81,0-4.36-.09-4.78-2.8-5.29a3.71,3.71,0,0,1,2.43-.93c1.42,0,3.84.9,3.84,1.78C153.3,107.72,152.85,109.08,152.82,109.36Z"/><path class="cls-1" d="M178,111.37a2.3,2.3,0,0,0-.82.37c-3.68,2.23-4,2.43-6.1,3.51-1.4,5.49-2.65,10.33-8.49,13.24l-.11-.2c4.47-4.3,5.64-12.59,5.64-13.38,0-1-.34-1.28-1.94-1.76a2.8,2.8,0,0,1,1.82-.54c.92,0,3.05.43,3.25,1.48,1.68-1.82,3.28-3.51,3.28-4.11,0-.22-.14-.25-.31-.25-.89,0-8.95,1.07-11,1.84a10.36,10.36,0,0,1-1.66.65c-.59,0-2.7-1.39-2.7-3a4.51,4.51,0,0,1,.34-1.87c.88,1.5,1.51,1.87,2.65,1.87,2,0,13.16-1.22,13.31-1.31a5.75,5.75,0,0,1,1.36-.67,9.26,9.26,0,0,1,2.25,1.67c.29.28,1.09,1,1.09,1.52S179.71,111,178,111.37Z"/><path class="cls-1" d="M208.57,115.76a19.21,19.21,0,0,1-10.25-9.46c-2.88,4.31-8.12,9-13.82,10.84l-.12-.22c5.7-3.68,10.54-10.47,11.2-13.39l3.45,1.25c.31.11.51.28.51.48,0,.36-.43.51-.83.59a19,19,0,0,0,12.63,6.45l0,.29A4.74,4.74,0,0,0,208.57,115.76Zm.86,12.65h-20.6a16.67,16.67,0,0,0-3.08.17l-.48-1c1.73.14,3.76.17,4.07.17H196v-8.21h-5.27a19.43,19.43,0,0,0-3.11.2l-.45-1c1.39.14,2.85.17,4.07.17H196v-4.07h-2.36a19,19,0,0,0-2.26.14l-.42-1c1.14.09,2.42.15,3.19.15h5.75l1.29-1.65c.14-.17.31-.36.45-.36s.26.08.54.34l1.71,1.61c.17.14.29.28.29.42s-.23.32-.43.32h-4.76v4.07h4.62l1.34-1.58c.17-.2.31-.37.42-.37s.26.08.57.31l2.14,1.58a.64.64,0,0,1,.29.46c0,.25-.23.28-.43.28h-8.95v8.21h6l1.48-1.79c.17-.22.31-.36.45-.36s.23,0,.54.31l2.17,1.78c.2.17.28.28.28.42S209.63,128.41,209.43,128.41Zm-17-1.87c-1.14,0-1.34-.77-1.68-2.29a7.57,7.57,0,0,0-1.68-3.43l.11-.2a12.1,12.1,0,0,1,3.42,1.5,3.66,3.66,0,0,1,1.51,2.61A1.81,1.81,0,0,1,192.39,126.54ZM204.84,123a26.53,26.53,0,0,1-5,4.25l-.2-.17a18.32,18.32,0,0,0,2.76-7l3.25,1.89c.28.17.34.26.34.4C206,122.69,205.67,122.89,204.84,123Z"/><path class="cls-1" d="M218.23,115.87c-.91,0-1.17-.6-1.94-2.24a9.37,9.37,0,0,0-1.48-2.23l0-.17c.14,0,4.93.31,4.93,2.86A1.75,1.75,0,0,1,218.23,115.87Zm1.45,6.48a3.67,3.67,0,0,0-.34,1.33,4.41,4.41,0,0,0,.31,1.33,6.56,6.56,0,0,1,.74,2.52,1.87,1.87,0,0,1-1.76,2.06,1.55,1.55,0,0,1-1.68-1.72c0-.34.17-1.78.17-2.07a3.29,3.29,0,0,0-1.74-3.28l.06-.17a1.94,1.94,0,0,0,1.79-.51,116.43,116.43,0,0,0,6-12.48l.23.06C223.13,111.14,219.94,121.73,219.68,122.35Zm.4-12.57c-.77,0-.94-.39-1.57-1.69a8.74,8.74,0,0,0-1.93-2.86l0-.2c3.68.23,5.13,1.73,5.13,3A1.74,1.74,0,0,1,220.08,109.78ZM238,129.65c-2-1.36-5.67-5.18-6.21-14.09h-3.9a24.72,24.72,0,0,1-1.31,7.36c-1.28,3.11-4.13,6.17-5.81,6.79l-.18-.14a12.31,12.31,0,0,0,2.88-4.76c1.14-2.94,1.57-5.77,1.57-13.27a38.15,38.15,0,0,0-.46-6.74l3.65,1.65h7.41l1.14-1.33c.11-.12.17-.2.31-.2a.74.74,0,0,1,.51.2l2.17,1.64c.17.11.23.19.23.31,0,.39-.83.87-1.31,1.16v3.17c0,.62.17,3.62.17,4.3s0,1-.37,1.3a3.08,3.08,0,0,1-1.51.45c-1.26,0-1.23-1-1.17-1.89h-3.39c.45,2,2.48,8.88,9.06,11.35v.17A5.45,5.45,0,0,0,238,129.65Zm-2.19-22.53h-7.84l-.05,7.76h7.89Z"/><path class="cls-1" d="M269.74,109.53H250.51c.2,7.5.28,15-5.59,19.64l-.17-.17c2.39-3.79,2.94-10.61,2.94-14.29a32.23,32.23,0,0,0-.8-7.76l4,1.9h5.9c0-3.45-.37-4.3-.66-5l4,.91c.23.06.54.2.54.56s-.74.66-.94.74v2.83h5.59l1.25-2.18c.12-.2.26-.37.43-.37a1,1,0,0,1,.51.31l2.45,2.18c.14.12.29.26.29.43S269.91,109.53,269.74,109.53Zm-2.08,19.39c-1.14,0-1.45-.83-1.82-1.9-.15-.37-.72-2.09-.86-2.41-9.32,3-10.68,3.46-12.56,3.82-.15.37-.35.88-.72.88-.22,0-.4-.31-.45-.45l-1.63-4a7.59,7.59,0,0,0,1.88.22c.57,0,1.94-.11,2.48-.14.49-1.24,3.48-9.82,3.28-13.89l4,1.64c.2.08.4.22.4.45s-.4.51-1.11.79a78,78,0,0,1-5.39,10.9c6.67-.68,7.44-.74,9.46-1.08a20.56,20.56,0,0,0-3.28-5.06l.15-.2c3.07,1.64,8,5.12,8,8.38A1.81,1.81,0,0,1,267.66,128.92Z"/><path class="cls-1" d="M295.44,112.42l1.08-1.08c.11-.11.28-.34.48-.34a.91.91,0,0,1,.54.26l2,1.67a.84.84,0,0,1,.37.62c0,.48-.34.59-1.34,1a24,24,0,0,1-3.56,7.89,13.74,13.74,0,0,0,7,3.46v.28a4.94,4.94,0,0,0-3,3.11,15.48,15.48,0,0,1-5.67-5,18.68,18.68,0,0,1-10,5.18l-.08-.2a20.58,20.58,0,0,0,8.8-7.16,22.47,22.47,0,0,1-2.42-9.08h-.6c-.23,3.79-.43,7-2.85,10.47a17.59,17.59,0,0,1-6.12,5.43l-.23-.14a19.6,19.6,0,0,0,5.81-9.74,72.8,72.8,0,0,1-8.32,4.67c-.09.26-.23.74-.57.74s-.46-.48-.51-.62l-1.48-3.34a11.28,11.28,0,0,0,1.28.08,15.94,15.94,0,0,0,3.13-.42v-8.32h-1.19a12.64,12.64,0,0,0-2.26.14l-.48-1c.88.08,2.31.14,3.25.14h.68a27.26,27.26,0,0,0-.57-7l3.74,1c.19.06.48.14.48.4s-.46.62-.8.82c0,.09-.06,4.44-.06,4.87h.09l.94-1.56c.09-.14.26-.37.43-.37a.9.9,0,0,1,.51.31l1.57,1.56a.74.74,0,0,1,.25.43c0,.28-.22.31-.42.31H282v7.72a34.61,34.61,0,0,0,3.84-1,48.84,48.84,0,0,0,.52-8.49,36,36,0,0,0-.4-4.82l3.64,1.33h6.67l1.31-1.89c.12-.14.23-.37.43-.37s.43.23.51.31l2.25,1.9a.7.7,0,0,1,.26.42c0,.29-.23.31-.43.31h-11.4c0,.29-.08,4.62-.08,5.13Zm-5.13.68a18.18,18.18,0,0,0,2.9,7.27,22.52,22.52,0,0,0,2.34-7.27Z"/></g></g></svg>